<?xml version="1.0" encoding="UTF-8"?>
<svg width="374px" height="108px" viewBox="0 0 374 108" version="1.1" xmlns="http://www.w3.org/2000/svg" xmlns:xlink="http://www.w3.org/1999/xlink">
    <!-- Generator: Sketch 52.5 (67469) - http://www.bohemiancoding.com/sketch -->
    <title>black</title>
    <desc>Created with Sketch.</desc>
    <g id="black" stroke="none" stroke-width="1" fill="none" fill-rule="evenodd">
        <path d="M0,0 L374,0 L374,108 L0,108 L0,0 Z M12.8,90 L28.7,90 L34.9,60.7 L37.9,60.7 L56.4,90 L74,90 L55.1,60 C69.3,57 73.9,47.2 73.9,37.2 C73.9,27.5 66.4,19 51.9,19 L27.9,19 L12.8,90 Z M37.8,47.2 L40.7,33.6 L50.5,33.6 C55.6,33.6 57.7,36.4 57.7,39.7 C57.7,44 54,47.2 48.5,47.2 L37.8,47.2 Z M103.4,91.2 C119.4,91.2 129,82.6 129,69.5 C129,59.4 125,53.4 115.1,48.4 L112.1,46.9 C105.8,43.8 103.1,42.3 103.1,38.4 C103.1,34.6 106.9,32.8 111.3,32.8 C116.2,32.8 120.8,34.7 123.7,39.6 L135.6,30.2 C129.8,21 120.8,17.8 112,17.8 C95.5,17.8 87,27.9 87,39.4 C87,49.1 91.3,54.8 101.1,59.7 L104.7,61.5 C111.2,64.8 112.8,66.8 112.8,70.1 C112.8,73.6 110.4,76.3 104.4,76.3 C99.5,76.3 92.9,73.4 90.1,67 L76.6,75.6 C80.9,85 92,91.2 103.4,91.2 Z M148.1,90 L164.1,90 L176,34.2 L194.3,34.2 L197.5,19 L145.1,19 L141.9,34.2 L160,34.2 L148.1,90 Z M191.7,90 L237,90 L240.2,74.8 L210.8,74.8 L222.7,19 L206.8,19 L191.7,90 Z M270.8,91.2 C286.8,91.2 296.4,82.6 296.4,69.5 C296.4,59.4 292.4,53.4 282.5,48.4 L279.5,46.9 C273.2,43.8 270.5,42.3 270.5,38.4 C270.5,34.6 274.3,32.8 278.7,32.8 C283.6,32.8 288.2,34.7 291.1,39.6 L303,30.2 C297.2,21 288.2,17.8 279.4,17.8 C262.9,17.8 254.4,27.9 254.4,39.4 C254.4,49.1 258.7,54.8 268.5,59.7 L272.1,61.5 C278.6,64.8 280.2,66.8 280.2,70.1 C280.2,73.6 277.8,76.3 271.8,76.3 C266.9,76.3 260.3,73.4 257.5,67 L244,75.6 C248.3,85 259.4,91.2 270.8,91.2 Z M328,91.2 C344,91.2 353.6,82.6 353.6,69.5 C353.6,59.4 349.6,53.4 339.7,48.4 L336.7,46.9 C330.4,43.8 327.7,42.3 327.7,38.4 C327.7,34.6 331.5,32.8 335.9,32.8 C340.8,32.8 345.4,34.7 348.3,39.6 L360.2,30.2 C354.4,21 345.4,17.8 336.6,17.8 C320.1,17.8 311.6,27.9 311.6,39.4 C311.6,49.1 315.9,54.8 325.7,59.7 L329.3,61.5 C335.8,64.8 337.4,66.8 337.4,70.1 C337.4,73.6 335,76.3 329,76.3 C324.1,76.3 317.5,73.4 314.7,67 L301.2,75.6 C305.5,85 316.6,91.2 328,91.2 Z" id="Combined-Shape" fill="#000000"></path>
    </g>
</svg>