<?xml version="1.0" encoding="UTF-8"?>
<svg width="374px" height="108px" viewBox="0 0 374 108" version="1.1" xmlns="http://www.w3.org/2000/svg" xmlns:xlink="http://www.w3.org/1999/xlink">
    <!-- Generator: Sketch 52.5 (67469) - http://www.bohemiancoding.com/sketch -->
    <title>full</title>
    <desc>Created with Sketch.</desc>
    <g id="full" stroke="none" stroke-width="1" fill="none" fill-rule="evenodd">
        <rect id="Rectangle" fill="#000000" x="0" y="0" width="374" height="108"></rect>
        <path d="M12.8,90 L27.9,19 L51.9,19 C66.4,19 73.9,27.5 73.9,37.2 C73.9,47.2 69.3,57 55.1,60 L74,90 L56.4,90 L37.9,60.7 L34.9,60.7 L28.7,90 L12.8,90 Z M37.8,47.2 L48.5,47.2 C54,47.2 57.7,44 57.7,39.7 C57.7,36.4 55.6,33.6 50.5,33.6 L40.7,33.6 L37.8,47.2 Z M103.4,91.2 C92,91.2 80.9,85 76.6,75.6 L90.1,67 C92.9,73.4 99.5,76.3 104.4,76.3 C110.4,76.3 112.8,73.6 112.8,70.1 C112.8,66.8 111.2,64.8 104.7,61.5 L101.1,59.7 C91.3,54.8 87,49.1 87,39.4 C87,27.9 95.5,17.8 112,17.8 C120.8,17.8 129.8,21 135.6,30.2 L123.7,39.6 C120.8,34.7 116.2,32.8 111.3,32.8 C106.9,32.8 103.1,34.6 103.1,38.4 C103.1,42.3 105.8,43.8 112.1,46.9 L115.1,48.4 C125,53.4 129,59.4 129,69.5 C129,82.6 119.4,91.2 103.4,91.2 Z M148.1,90 L160,34.2 L141.9,34.2 L145.1,19 L197.5,19 L194.3,34.2 L176,34.2 L164.1,90 L148.1,90 Z M191.7,90 L206.8,19 L222.7,19 L210.8,74.8 L240.2,74.8 L237,90 L191.7,90 Z M270.8,91.2 C259.4,91.2 248.3,85 244,75.6 L257.5,67 C260.3,73.4 266.9,76.3 271.8,76.3 C277.8,76.3 280.2,73.6 280.2,70.1 C280.2,66.8 278.6,64.8 272.1,61.5 L268.5,59.7 C258.7,54.8 254.4,49.1 254.4,39.4 C254.4,27.9 262.9,17.8 279.4,17.8 C288.2,17.8 297.2,21 303,30.2 L291.1,39.6 C288.2,34.7 283.6,32.8 278.7,32.8 C274.3,32.8 270.5,34.6 270.5,38.4 C270.5,42.3 273.2,43.8 279.5,46.9 L282.5,48.4 C292.4,53.4 296.4,59.4 296.4,69.5 C296.4,82.6 286.8,91.2 270.8,91.2 Z M328,91.2 C316.6,91.2 305.5,85 301.2,75.6 L314.7,67 C317.5,73.4 324.1,76.3 329,76.3 C335,76.3 337.4,73.6 337.4,70.1 C337.4,66.8 335.8,64.8 329.3,61.5 L325.7,59.7 C315.9,54.8 311.6,49.1 311.6,39.4 C311.6,27.9 320.1,17.8 336.6,17.8 C345.4,17.8 354.4,21 360.2,30.2 L348.3,39.6 C345.4,34.7 340.8,32.8 335.9,32.8 C331.5,32.8 327.7,34.6 327.7,38.4 C327.7,42.3 330.4,43.8 336.7,46.9 L339.7,48.4 C349.6,53.4 353.6,59.4 353.6,69.5 C353.6,82.6 344,91.2 328,91.2 Z" id="RSTLSS" fill="#FFFFFF"></path>
    </g>
</svg>