<?xml version="1.0" encoding="UTF-8" standalone="no"?>
<!-- Created with Keyshape -->
<svg xmlns="http://www.w3.org/2000/svg" xmlns:xlink="http://www.w3.org/1999/xlink" width="420px" height="120px" viewBox="0 0 420 120">
    <style>
@keyframes textcolor_t { 0% { transform: translate(-568px,120px); } 77.1929% { transform: translate(-568px,120px); } 100% { transform: translate(-145.7px,120px); } }
@keyframes logo-text_t { 0% { transform: translate(0px,-120px); } 42.1052% { transform: translate(0px,-120px); } 50.8771% { transform: translate(0px,0px); } 100% { transform: translate(0px,0px); } }
@keyframes cover_t { 0% { transform: translate(-63.3px,0px); } 42.1052% { transform: translate(-63.3px,0px); } 50.8771% { transform: translate(-63px,120px); } 91.228% { transform: translate(420px,120px); } 100% { transform: translate(420px,120px); } }
    </style>
    <title>rstlss-logo-animated</title>
    <desc>Created with Sketch.</desc>
    <g id="black" stroke="none" stroke-width="1" fill="none" fill-rule="evenodd">
        <path id="textcolor" d="M166,-13L181.468,-107L548,-107L533.876,-13Z" fill="#ffffff" stroke-linecap="square" stroke="none" transform="translate(-568,120)" style="animation: 2.375s linear both textcolor_t;"/>
        <path id="logo-text" d="M0,0L420,0L420,120L0,120L0,0ZM36,95.2L51.9,95.2L58.1,65.9L61.1,65.9L79.6,95.2L97.2,95.2L78.3,65.2C92.5,62.2,97.1,52.4,97.1,42.4C97.1,32.7,89.6,24.2,75.1,24.2L51.1,24.2L36,95.2ZM61,52.4L63.9,38.8L73.7,38.8C78.8,38.8,80.9,41.6,80.9,44.9C80.9,49.2,77.2,52.4,71.7,52.4L61,52.4ZM126.6,96.4C142.6,96.4,152.2,87.8,152.2,74.7C152.2,64.6,148.2,58.6,138.3,53.6L135.3,52.1C129,49,126.3,47.5,126.3,43.6C126.3,39.8,130.1,38,134.5,38C139.4,38,144,39.9,146.9,44.8L158.8,35.4C153,26.2,144,23,135.2,23C118.7,23,110.2,33.1,110.2,44.6C110.2,54.3,114.5,60,124.3,64.9L127.9,66.7C134.4,70,136,72,136,75.3C136,78.8,133.6,81.5,127.6,81.5C122.7,81.5,116.1,78.6,113.3,72.2L99.8,80.8C104.1,90.2,115.2,96.4,126.6,96.4ZM171.3,95.2L187.3,95.2L199.2,39.4L217.5,39.4L220.7,24.2L168.3,24.2L165.1,39.4L183.2,39.4L171.3,95.2ZM214.9,95.2L260.2,95.2L263.4,80L234,80L245.9,24.2L230,24.2L214.9,95.2ZM294,96.4C310,96.4,319.6,87.8,319.6,74.7C319.6,64.6,315.6,58.6,305.7,53.6L302.7,52.1C296.4,49,293.7,47.5,293.7,43.6C293.7,39.8,297.5,38,301.9,38C306.8,38,311.4,39.9,314.3,44.8L326.2,35.4C320.4,26.2,311.4,23,302.6,23C286.1,23,277.6,33.1,277.6,44.6C277.6,54.3,281.9,60,291.7,64.9L295.3,66.7C301.8,70,303.4,72,303.4,75.3C303.4,78.8,301,81.5,295,81.5C290.1,81.5,283.5,78.6,280.7,72.2L267.2,80.8C271.5,90.2,282.6,96.4,294,96.4ZM351.2,96.4C367.2,96.4,376.8,87.8,376.8,74.7C376.8,64.6,372.8,58.6,362.9,53.6L359.9,52.1C353.6,49,350.9,47.5,350.9,43.6C350.9,39.8,354.7,38,359.1,38C364,38,368.6,39.9,371.5,44.8L383.4,35.4C377.6,26.2,368.6,23,359.8,23C343.3,23,334.8,33.1,334.8,44.6C334.8,54.3,339.1,60,348.9,64.9L352.5,66.7C359,70,360.6,72,360.6,75.3C360.6,78.8,358.2,81.5,352.2,81.5C347.3,81.5,340.7,78.6,337.9,72.2L324.4,80.8C328.7,90.2,339.8,96.4,351.2,96.4Z" fill="#000000" fill-rule="evenodd" transform="translate(0,-120)" style="animation: 2.375s linear both logo-text_t;"/>
        <path id="cover" d="M0,0L23,-120L568,-120L547,0Z" fill="#000000" stroke-linecap="square" stroke="none" transform="translate(-63.3,0)" style="animation: 2.375s linear both cover_t;"/>
    </g>
</svg>
