<svg xmlns="http://www.w3.org/2000/svg" width="420" height="120" version="1">
  <g fill="none" fill-rule="evenodd">
    <path fill="#000" d="M0 0h420v120H0z"/>
    <path fill="#FFF" d="M36 95l15-71h24c15 0 22 9 22 18 0 10-4 20-19 23l19 30H80L61 66h-3l-6 29H36zm25-43h11c5 0 9-3 9-7 0-3-2-6-7-6H64l-3 13zm66 44c-12 0-23-6-27-15l13-9c3 7 10 10 15 10 6 0 8-3 8-7 0-3-2-5-8-8l-4-2c-9-5-14-11-14-20 0-12 9-22 25-22 9 0 18 3 24 12l-12 10c-3-5-8-7-12-7-5 0-9 2-9 6s3 5 9 8l3 2c10 5 14 11 14 21 0 13-9 21-25 21zm44-1l12-56h-18l3-15h53l-3 15h-19l-12 56h-16zm44 0l15-71h16l-12 56h29l-3 15h-45zm79 1c-11 0-22-6-27-15l14-9c3 7 9 10 14 10 6 0 8-3 8-7 0-3-1-5-8-8l-3-2c-10-5-14-11-14-20 0-12 8-22 25-22 8 0 17 3 23 12l-12 10c-3-5-7-7-12-7-4 0-8 2-8 6s2 5 9 8l3 2c10 5 14 11 14 21 0 13-10 21-26 21zm57 0c-11 0-22-6-27-15l14-9c3 7 9 10 14 10 6 0 9-3 9-7 0-3-2-5-8-8l-4-2c-10-5-14-11-14-20 0-12 8-22 25-22 9 0 18 3 23 12l-11 10c-3-5-8-7-13-7-4 0-8 2-8 6s3 5 9 8l3 2c10 5 14 11 14 21 0 13-10 21-26 21z"/>
  </g>
</svg>
