<svg xmlns="http://www.w3.org/2000/svg" viewBox="0 0 1281 720.15"><defs><style>.cls-1{fill:#fdd400;}.cls-2{fill:#e6af00;}.cls-3{fill:#e8af00;}.cls-4{fill:#dfa600;}.cls-5{fill:#efba00;}.cls-6{fill:#f1ecee;}.cls-7{fill:#adb8bc;}.cls-8{fill:#e6dfe4;}.cls-9{fill:#baa588;}.cls-10{fill:#d6dbbf;}.cls-11{fill:#c7b7af;}.cls-12{fill:#c8c7a5;}.cls-13{fill:#d7cbce;}.cls-14{fill:#f5b689;}.cls-15{fill:#faf8f4;}.cls-16{fill:#d0ceb2;}.cls-17{fill:#d0c3c2;}.cls-18{fill:#f1e9ad;}.cls-19{fill:#826a44;}.cls-20{fill:#d7d6c3;}.cls-21{fill:#a68c79;}.cls-22{fill:#fcd3ad;}.cls-23{fill:#ac5d37;}.cls-24{fill:#d2c2b9;}.cls-25{fill:#b0603c;}.cls-26{fill:#e8e0cd;}.cls-27{fill:#a07e4b;}.cls-28{fill:#e5d8ce;}.cls-29{fill:#fbfbf9;}.cls-30{fill:#9a4316;}.cls-31{fill:#fdceb0;}.cls-32{fill:#c48019;}.cls-33{fill:#b4a386;}.cls-34{fill:#bf7c1b;}.cls-35{fill:#ad742a;}.cls-36{fill:#d4b697;}.cls-37{fill:#eedd95;}.cls-38{fill:#fcc17c;}.cls-39{fill:#797c77;}.cls-40{fill:#979ea0;}.cls-41{fill:#492f03;}.cls-42{fill:#b48200;}.cls-43{fill:#9d9785;}.cls-44{fill:#47473f;}.cls-45{fill:#fcd000;}.cls-46{fill:#e0cfc4;}.cls-47{fill:#80929f;}.cls-48{fill:#9aa09d;}.cls-49{fill:#303643;}.cls-50{fill:#3d4d66;}.cls-51{fill:#ced2cc;}.cls-52{fill:#7b9cae;}.cls-53{fill:#809baa;}.cls-54{fill:#827c78;}.cls-55{fill:#bc9c77;}.cls-56{fill:#979c9c;}.cls-57{fill:#f9be93;}.cls-58{fill:#cc7e57;}.cls-59{fill:#e29a70;}.cls-60{fill:#de936c;}.cls-61{fill:#e3976c;}.cls-62{fill:#eadeca;}.cls-63{fill:#d7b062;}.cls-64{fill:#ecac82;}.cls-65{fill:#f9c39c;}.cls-66{fill:#be6e4c;}.cls-67{fill:#ca815b;}.cls-68{fill:#902e0a;}.cls-69{fill:#f5e1a0;}.cls-70{fill:#b83a14;}.cls-71{fill:#b5552e;}.cls-72{fill:#d0d2cb;}.cls-73{fill:#dfc7aa;}.cls-74{fill:#a2b6ba;}.cls-75{fill:#180201;}.cls-76{fill:#867c6c;}.cls-77{fill:#56524c;}.cls-78{fill:#754e1d;}.cls-79{fill:#bca692;}.cls-80{fill:#5e330b;}.cls-81{fill:#cd845f;}.cls-82{fill:#ab6236;}.cls-83{fill:#7d1f04;}.cls-84{fill:#a08c63;}.cls-85{fill:#d49d33;}.cls-86{fill:#b5a587;}.cls-87{fill:#5f4f35;}.cls-88{fill:#5b2f03;}.cls-89{fill:#83551f;}.cls-90{fill:#cc8763;}.cls-91{fill:#c07958;}.cls-92{fill:#8e918a;}.cls-93{fill:#838884;}.cls-94{fill:#ceb489;}.cls-95{fill:#5e5546;}.cls-96{fill:#625841;}.cls-97{fill:#687a8a;}.cls-98{fill:#4e565e;}.cls-99{fill:#6e7b82;}.cls-100{fill:#44536b;}.cls-101{fill:#808487;}.cls-102{fill:#5b666f;}.cls-103{fill:#414f63;}.cls-104{fill:#b1b8bc;}.cls-105{fill:#4f627a;}.cls-106{fill:#9aa5b0;}.cls-107{fill:#e7a175;}.cls-108{fill:#cd7b54;}.cls-109{fill:#f8c4a1;}.cls-110{fill:#fbcba9;}.cls-111{fill:#db9b6f;}.cls-112{fill:#d6926d;}.cls-113{fill:#b57856;}.cls-114{fill:#8f5736;}.cls-115{fill:#6a8aa2;}.cls-116{fill:#90959a;}.cls-117{fill:#7d8793;}.cls-118{fill:#727578;}.cls-119{fill:#91928c;}.cls-120{fill:#a8a5a1;}.cls-121{fill:#a49985;}.cls-122{fill:#85847d;}.cls-123{fill:#d08c02;}.cls-124{fill:#292e3a;}.cls-125{fill:#604f30;}.cls-126{fill:#a26925;}.cls-127{fill:#ae704a;}.cls-128{fill:#acaba1;}.cls-129{fill:#232a39;}.cls-130{fill:#a7a5a1;}.cls-131{fill:#747d84;}.cls-132{fill:#838482;}.cls-133{fill:#83868a;}.cls-134{fill:#727f90;}.cls-135{fill:#5a697d;}.cls-136{fill:#b6bbbf;}.cls-137{fill:#b2b2ad;}.cls-138{fill:#445062;}.cls-139{fill:#9aa6b3;}.cls-140{fill:#4b5762;}.cls-141{fill:#515f6e;}.cls-142{fill:#989da1;}.cls-143{fill:#7c7971;}.cls-144{fill:#2b344a;}.cls-145{fill:#adb6bc;}.cls-146{fill:#95a0ae;}</style></defs><title>hero5</title><g id="Layer_2" data-name="Layer 2"><g id="Layer_1-2" data-name="Layer 1"><path class="cls-1" d="M1281,.35h-1.39a5.78,5.78,0,0,0-2.49-.35Q1017.4.12,757.68.07a3.53,3.53,0,0,1-.25.28H0v717H516.65c.11,2.38.88,2.8,3.51,2.8q378.62-.12,757.24,0c2.57,0,3.17-.63,3.25-2.79h.35Z"/><path class="cls-2" d="M1020.17,256.16l-5.7-.06c0-2.12,1.55-2.32,3.07-2.43,1.73-.13,3.47,0,5.21,0a13.64,13.64,0,0,1,11,2.6c3.44,2.63,7.41,2.13,11.11-.06a94.86,94.86,0,0,0,9-5.89,18,18,0,0,1,11.53-3.91c5.95.12,11.94.5,17.86-.59a53.37,53.37,0,0,0,6.81.07c2.21-.1,3-1.16,3-3.47-.16-9.66.26-19.32.77-29,.26-5-.91-10,.09-15-.12-6.17.45-12.35-.53-18.49.29-6.21.25-12.43.49-18.63-.88-6.55-.34-13.13-.35-19.69-.11-3.69-.43-7.37-.25-11.07a18.87,18.87,0,0,0,.69-4.8c0-1.24-.19-2.62,1.2-3.4,1.24,4.9.31,9.89.59,14.83.1,1.77,0,3.55.06,5.33.85,4.28-.33,8.66.61,12.94l.06,20.15a12.63,12.63,0,0,1,.92,8.34c-.89,4.36.27,8.8.33,13.2.06,5.2-.89,10.53.44,15.67a43.59,43.59,0,0,0,8.29,16.83c.3.38.82.67.91,1.1.87,4.32,5,4.61,7.9,6.35,2.27,1.37,4.81,0,5.5-2.6.44-1.68.72-3.55,2.93-3.41s3,2,2.94,3.89c-.05,3.43,2.49,4,4.87,4.78a5.13,5.13,0,0,0,6.06-1.77c1.31-1.73,2.83-2.68,4.91-1.48s3-.2,3.85-1.74c1.86-3.46,2.29-3.29,5.74-1.74,4.13,1.85,5.59,6.53,10,8.19.29-3.57,2-6.89,1.24-10.92-.66-3.3,1-6.84,3.29-9.23,3.1-3.25,4.52-7.27,6.46-11,1.58-3.07,3.51-5.73,7.12-5.78s6.17,2.67,7.64,5.75c3.19,6.71,8,12.41,11.62,18.81,2.25,3.94,6.56,5.38,9.81,8.1,3.72,3.12,9.42,3.64,12,8.13,2.67,4.65,7,6.25,11.5,8.09,7.69,3.15,14.28,7.68,18.2,15.44A12.47,12.47,0,0,0,1257,274c4.83,2.12,8,6.09,11.52,9.56a42.26,42.26,0,0,0,6.38,5.71,14.69,14.69,0,0,1,5.71,7.18v28.78c-4.14.9-11.62-2.56-14-6.76-1.15-2.05-2.39-3.48-4.89-3.5a4.34,4.34,0,0,1-2.39-.73c-4-2.79-7.74-5.92-12.68-6.94a.41.41,0,0,1-.27-.22c-2.18-4.78-6-2.58-9.31-2.11-.47.07.07.2-.34.06-3.82-1.26-6.35-.28-7.34,3.89-.17.71-1.12.82-1.86.45a3.34,3.34,0,0,1-1.86-2.89,12.25,12.25,0,0,0-1.37-5c-2.89-5.5-8.07-6.7-13.29-8.05a7.42,7.42,0,0,1-2.73-.81,8.38,8.38,0,0,0-8-1.5c-2.88.79-4.64-.86-5.3-3.93a5.25,5.25,0,0,0-1-2.84c-2.15,4.75-6.34,8.21-5.47,13.81.94,6.08-2.73,10.69-5.1,15.66-.73,1.55-1.51,2.92-1.43,4.68.15,3.16-1.11,5.37-4.4,6-1.8.34-2.19,1-1.18,2.67,1.33,2.19,2.55,4.21,5.46,4.69,2.44.41,3.59,2.4,3.65,4.75.06,2.81,1,5.4,1.58,8.08s1.91,4.28,4.82,4.48,4.87,1.87,6.3,4.25a29.57,29.57,0,0,0,6.07,6.73,28.79,28.79,0,0,1,7.1,10.15c3.47,8.25,7.77,15.78,15.91,20.38,1.76,1,2.58,2.79,3.33,4.57,1.19,2.83,2.73,5.32,5.79,6.52a4.06,4.06,0,0,1,2.18,1.82c2.46,5,6.33,9.12,8,14.7,1.27,4.19,4.17,8,7.14,11.38a35.14,35.14,0,0,1,7.31,12.94,41.6,41.6,0,0,0,4.23,8.69,8,8,0,0,1,1.44,4c0,9.8,3.87,18,10.32,25.1,2.24,2.47,2.77,5.51,2.95,8.62a6.62,6.62,0,0,0,.52,3.09v26.61c-2.89,1.06-4.27-1-5.39-2.93-1.42-2.51-3.19-4.74-4.84-7.09-3.23-4.59-3.44-9.91-2.11-15.13.79-3.11.71-5.66-1.6-7.92s-1.48-6.79-4.13-8.49-5-3.38-6.6-6.2c-1-1.73-2.58-3.14-3.26-5.11a4,4,0,0,1-.47-1.72c1.2-7.13-2.58-13.26-3.91-19.88-.8-4-3.28-7.37-5.46-10.29-3.42-4.57-5.86-10.13-11-13.35-3.91-2.42-4.86-6.68-5.79-10.78-.39-1.73-.86-3.22-2.5-4.11-3.81-2.07-5.93-5.56-7.35-9.41a8.81,8.81,0,0,0-4-4.73,62.54,62.54,0,0,1-12.66-9.78c-5.54-5.81-10.87-12-17.55-16.66a29.79,29.79,0,0,0-3.19-1.61c-2.46-1.35-4.38-3.19-4.16-6.19.19-2.74-1.24-4.05-3.5-4.66-3.49-.95-5.39-3.19-6.42-6.57-.68-2.28-1.74-4.45-4.14-5.61a4.44,4.44,0,0,1-2.14-2.79,3.57,3.57,0,0,0-2.39-2.48,1.68,1.68,0,0,1-.93-.52c-2.14-3.51-5.38-5.45-9.06-7.09-1.32-.59-2.46-1.76-4-2a3.36,3.36,0,0,1-1.37-.41c-8-5.25-17.6-7.32-25.26-13.26-3.44-2.68-7.84-3.38-12-4.08a12,12,0,0,1-6.85-3.46c-3.32-3.22-6.69-6.44-11-8.49-5.58-2.67-9.85-6.81-14.06-11.39s-9.36-8.15-13.71-12.58c-3.52-3.59-7.6-4.44-12.38-4.22a29.36,29.36,0,0,1-17.45-4.52C1024.89,261.26,1023.11,258.07,1020.17,256.16Z"/><path class="cls-3" d="M1020.17,256.16c2.59.25,4.51,2,6,3.67,4.56,5,10.82,6.54,16.65,6.08,8.69-.67,14.61,2.82,20,8.71a34,34,0,0,0,7.61,6.49c3.29,2,4.35,6.15,7.72,8.33,2.18,1.42,4.14,3.25,6.55,4.33a39.4,39.4,0,0,1,13.66,10.58c1,1.18,2.47,2.06,3.74,1.81,2.61-.5,4.54,1.12,6.76,1.46,4.76.75,8.34,3.38,12,6.05a16.59,16.59,0,0,0,6.31,3.15,25.84,25.84,0,0,1,9.86,4.78,10.75,10.75,0,0,0,6.86,2.63,1.91,1.91,0,0,1,1.89.8c1.15,2.31,2.66,3.34,5.44,2.74,1.45-.31,2.7,1,2.71,2.7,0,2.07,1,3,3,3.38.57.1,1.48.36,1.57.71,1.22,4.82,7.27,6.26,7.89,11.51a5.18,5.18,0,0,0,4.83,4.92,7.54,7.54,0,0,1,4.51,2.76c.55.63,1.32,1.27.82,2.18-2.09,3.87.83,5.17,3.4,6.46,4.14,2.09,7.34,5.37,10.88,8.24,3.3,2.68,5.63,6.23,8.84,9.06,3.06,2.7,5.6,6,9.29,8.08,1.36.75,2.56,1.81,4,2.43a8,8,0,0,1,4.67,5.41c1.16,3.57,3,7,6.82,8.73a5,5,0,0,1,3,4.15c.75,4.93,2.1,9.46,7,12.2a8.34,8.34,0,0,1,4.65,6.08,3.29,3.29,0,0,0,2,2.39,4.67,4.67,0,0,1,2.31,2.18c3.3,6.84,8.22,13,8.46,21.1a5.4,5.4,0,0,0,.61,2c1.06,2.33,4.41,4.31.92,7.31-.34.29-.09,1.73.31,2.37,2.58,4.13,3.56,9.63,9.41,11,1.56.37,2.23,1.79,2.28,3.34a10.47,10.47,0,0,0,3.22,7c2.15,2.26,2.08,4.8,1.33,7.69-1.5,5.83-1.69,11.5,3.11,16.24a11.67,11.67,0,0,1,2.72,4.18,8.19,8.19,0,0,0,4.79,5v33.81c-4.91-2.56-8.23-6.88-11.76-10.89a232.31,232.31,0,0,0-18.54-19.37c-.7-.64-1.66-1.24-1.94-2-2-5.93-6.64-10-11-13.92s-4.79-8.94-6.29-13.72a67.53,67.53,0,0,0-5-12.09c-1.56-2.89-1.54-6.37-3.1-9.39a25.42,25.42,0,0,1-2.82-14.26,6.22,6.22,0,0,0-1.39-4.25,29.85,29.85,0,0,1-3.5-7.42c-.87-2.64-1.85-4.61-5.13-4.23-1.14.13-2-.74-2.64-1.63a14.18,14.18,0,0,0-6.89-4.92,7.15,7.15,0,0,1-3.57-2.84c-6.55-8.94-13.37-17.7-21.21-25.53-3.29-3.28-6.3-6.74-9.38-10.19a4.64,4.64,0,0,0-2.08-1.35,10.09,10.09,0,0,1-6.07-5.21,8.45,8.45,0,0,0-3.51-3.52c-5.65-2.85-9.18-7.8-12.79-12.68a92.67,92.67,0,0,0-14-14.71c-4.18-3.64-9.29-6.55-13-10.38-5.6-5.82-11.16-11.79-16.58-17.83a112.13,112.13,0,0,0-13-13,19,19,0,0,1-6.67-9c-1.46-4.29-5.16-7.8-9.15-10.28-3.54-2.19-5.75-6.14-10.09-7.26-.72-.19-1.37-1.36-1.72-2.21-3.67-9-11.22-13.8-19.31-18-3.18-1.67-6.31-3.44-9.56-5C1024.82,263.38,1022.4,259.89,1020.17,256.16Z"/><path class="cls-4" d="M1280.6,492.06a3.4,3.4,0,0,1-1.17-2.51,13,13,0,0,0-4-8.84,32.15,32.15,0,0,1-8.09-14.3c-1-3.75-3.27-7.21-1.88-11.4.35-1.05-.68-1.93-1.25-2.85-2-3.24-4.22-6.45-4.73-10.36-.42-3.17-2.53-6-4.19-7.89-3.2-3.68-5.16-8.17-8.56-11.63a4.23,4.23,0,0,1-1.4-2.45c0-6-5.44-9.35-7-14.56A3.26,3.26,0,0,0,1236,403c-4.18-1.09-5.7-4.51-7-8a7.79,7.79,0,0,0-3.43-3.81,60.47,60.47,0,0,1-8.61-7.38c-1.28-1.28-1.58-3.4-4.26-2.87-1.08.22-1.06-1-.26-1.72,2.25-2.06,1.5-3.7-.71-5.16a3.31,3.31,0,0,1-1.53-2.72,5.29,5.29,0,0,0-2.42-4.21,7.15,7.15,0,0,1-2.68-4.1c-.25-.93-.57-2.22-1.51-2.28-3.81-.25-4.53-3.41-6.06-5.9s-3-4.73-6.7-4.24c-2.46.32-4.26-1.89-4.77-4.16-.7-3.13-2.1-6.13-1.87-9.46.15-2.31-.66-3.9-3.41-4-2.18-.09-4.09-1.17-4.5-3.46-.38-2.13-3.89-2.54-2.92-4.87.89-2.16,3.6-1.35,5.47-2,2.15-.72,2-2.6,1.73-4.21-.31-2.19.74-3.67,1.62-5.54,2.17-4.62,6-8.81,4.92-14.55-1.16-6.37,3.69-10.44,6-15.46a1.69,1.69,0,0,1,2-1.1c.89.33,1,1.24,1.2,2.06a11.44,11.44,0,0,1,.09,1.43c.27,4.94,1.72,5.79,6.32,3.47,1.23-.63,2.31-1,3.13.2,2.27,3.48,6.33,2.91,9.51,4.05,3.66,1.32,7.29,2,8.89,6.13a6.69,6.69,0,0,0,1.9,2.13c1.22,1.14,2.07,2.17.91,4-.79,1.24,0,2.43,1.3,3.53.8-2-.08-4.36,2.23-5.53,1.6-.8,3-1.72,4.46,0,1,1.06,1.73,1.05,2.57-.18.58-.83.09-2.6,1.52-2.51,1.64.11.58,2.4,1.81,3.07.84-.22.68-.91.77-1.46.12-.82.06-1.79,1.2-1.89a1.86,1.86,0,0,1,2,1.32c.95,4.39,4,5.74,8,6a3.7,3.7,0,0,1,2.38,1.51c2.37,3.33,5.59,4.63,9.56,4.65,1.66,0,2,1.52,2.43,2.75.91,2.49,2.43,4.52,5.06,5.19,2.94.74,5.43,2.43,8.23,3.47Z"/><path class="cls-5" d="M1280.6,296.41c-6.11-5.62-12.92-10.49-18.19-17-2.46-3.06-6.69-3.53-9.43-6.4-1.65-1.73-3.5-3.19-4.55-5.4-3.2-6.79-9.52-9.8-15.75-12.87-2.21-1.1-4.33-2.52-7-2.33a2.77,2.77,0,0,1-2.46-1.87,19,19,0,0,0-11-9.93c-2.41-.88-4.69-3.24-7-4.57-6.92-3.94-9-11.3-13.66-16.75-3.23-3.81-3.59-9.1-7.85-12.09-3.31-2.33-6.86-2-8.38,1.74-1.13,2.76-3.24,5.05-3.64,8.15a5,5,0,0,1-2.07,2.85,12.14,12.14,0,0,0-3.56,13.85c.18.5.33.89-.12,1.24-2.79,2.15-1.84,5.44-2.51,8.23-.19.79.07,1.94-1,2.08s-1-1-1.21-1.8c-.11-.47-.13-1.22-.4-1.33-4.71-1.91-6.62-7.21-11.21-9.25-.87-.39-1.62,0-1.49.81.34,2-1.07,3-2.16,4.26-1.44,1.66-2.57,3.54-4-.22-.6-1.63-2.1-1-2.92.49-1.76,3.21-5,3.79-8.5,2.89-4.06-1-5.86-3-5.41-7.15a1.61,1.61,0,0,0-1.58-2c-1.13,0-1.14,1-1.18,1.87-.12,1.94-.12,4.29-2.39,4.7s-5.19,2.24-6.91-1.3a1.46,1.46,0,0,0-1.87-.72c-2.86,1.08-3.56-.67-4-2.92a4,4,0,0,0-1-2.26c-5.27-4-6.44-10.35-9-15.82a14,14,0,0,1-1-9c1-4.46.15-9.09-.09-13.5-.32-5.9.45-11.68.36-17.51,1.73,2.66,3.6,2.91,6.23.94,2.92-2.18,6.6-3.47,7.78-7.44.11-.34.52-.75.43-1-2.41-5.12,3.44-8.51,2.76-13.29-.17-1.17.14-2.52-.64-3.45-2.92-3.49-.6-5.88,1.53-8.4a1.75,1.75,0,0,1,2.47-.45,94.2,94.2,0,0,1,13.45,7.36c6.3,4.24,13.21,7.3,20,10.54,7.48,3.58,14,8.17,18.83,15,5,7.08,12.41,11.47,19.12,16.61,4.24,3.25,8.57,6.24,12.49,10,3.1,3,7.09,5.46,10.77,8,9.28,6.49,19,12.43,26.73,20.84,2.33,2.52,5.72,3.49,8.12,5.86,5.12,5,11.68,8.12,17.28,12.51,4,3.1,6.35,7.77,10.67,10.56,1.93,1.25,3.69,2.65,6.09,2.77Z"/><path class="cls-1" d="M516.72,14.46a5.42,5.42,0,0,0,.87-.61c3.2-3.28,3.06-3.23,4.85.81,1.13,2.55.08,3.25-2.17,3.37-1.18.06-2.37,0-3.55,0Z"/><path class="cls-1" d="M516.72,8c1,.2,2,.53,1.89,1.73s-1.07,1.07-1.89,1.15Z"/><path class="cls-6" d="M925.4,378.47a3.94,3.94,0,0,0,1.4,3q6.47,5.61,12.54,11.66a12,12,0,0,1,3.39,7.54c.64,6.35-.84,12.22-3.22,18-1.75.6-2.72-.59-3.58-1.71-2.39-3.11-5.56-5.13-8.9-7.07a119.45,119.45,0,0,1-16.44-11.48c-4.13-3.47-8.17-6.91-13-9.37C887,383.71,879,374.86,869.05,368.65c-9.26-5.81-17.26-13.17-26-19.61a9.11,9.11,0,0,1-2.16-1.88c-2.14-2.92-4.82-3.69-8.19-2.38-1.1.43-2.31.73-3.39-.2-.81-4.12,2.23-6.05,4.88-7.93,2.37-1.69,4.86-1.27,7.26.64,1.74,1.39,3.39,2.9,4.86,4-1.84-2-4.78-3.37-6.77-5.8-2.37-2.9-3.23-6.09-1.52-9.68a35.51,35.51,0,0,0,2.15-6.84c.89-3.58,2.07-7.13,1-10.94-.3-1-.47-2.42.82-3.24,2.85.6,4.18,3.47,6.73,4.52,1-.63,2-1.06,3.11-.15.73,2.09,1.94,4.07,4.14,4.44,5.5.92,7.27,5.56,9.85,9.37.92,1.34,1.37,3,2.94,3.83a64.6,64.6,0,0,1,9.47,7.64c8.37,8.22,17.92,15.19,25.66,24,2.78,3.17,5.94,4.57,10.11,4.1a15.77,15.77,0,0,1,5.72.27c5.17.5,6.65,2.46,6,7.72C925.4,373.17,927,375.88,925.4,378.47Z"/><path class="cls-7" d="M951.18,130.63c3-3.87,7.18-6,11.38-8.21,2.19-.82,4.08-2.55,6.65-2.24,4.73-.86,9.12-3.32,14.11-3.06a1.27,1.27,0,0,0,1-.34c4-4.65,10.25-4,15.24-6.37,2.51-1.19,5.71-1.25,8.66-1.33a4,4,0,0,1,1,.24,5.6,5.6,0,0,1,2.7,2.33c-1.6-2.46-2.42-4.32-.13-6.12s6.39-1.73,8,0,1,3.16-.65,4.45c4.68,2.06,7.67-2.62,11.69-2.92.14.25.1.09-.16-.12-1.28-1-4-.88-3.38-3.41.69-2.79,3.33-1.58,5.17-1.87a3.21,3.21,0,0,1,2,.55c2.86,1.47,5.67,3,9.11,2.61,2.27-.22,3.8,1.4,4.95,3.09a5.42,5.42,0,0,0,5.27,2.7c-1.28-.73-2.82-1.62-2-3.45.75-1.6,2.52-1.77,4.09-1.47,3.57.69,7.08,1.13,10.51-.57.43-.22.87-.39,1-1.08-.67-.75-1.43-.21-2.14,0a11.53,11.53,0,0,1-3.83.88c-7.43-.48-14.93.38-22.33-1a13.51,13.51,0,0,1-5-1.85c-1.45-.59-3-.26-4.45-.37-1.12-.09-2.85.26-2.3-1.94a3.15,3.15,0,0,1,1.84-1c18.58-3.52,37.29-3.69,56.06-2.14,2.86.23,5.34,1.4,6.36,4.44-.06,4.85-3.91,7.18-6.85,10.09-.48.47-1.36.43-2,.82-3.73,2.35-3.74,2.35-5.69-1.64-1-2-2.81-1.34-4.06-.89-1.93.71-.24,1.59.3,2.31,1.11,1.48,1.1,3-.22,4.19-1.55,1.43-3.08.75-4.52-.38,3.64,3.32,6.73,7.31,11.45,9.33.43.18.19-.18.27.19.91,3.9,4.68,6.15,5.71,10,.3,1.08.36,2.22-.72,2.91s-2.29.35-3.26-.53c-.58-1.17-1.44-2.17-2.09-3.31-2.74-4.75-7.08-5.86-12.13-5.18-.69.1-1.56-.22-1.75,1.19-.77,5.83-2.16,6.83-8.25,7.08-4.11.17-8.28.41-11.81,3-2.61,1.3-4.32-.52-6-1.91-1.09-.9.14-4.45,1.56-4.83.87-.23,1.93.1,2.65-1.21-2.06.21-3.92.17-5.29,1.83a6,6,0,0,1-2.48,1.36c-2.75,1.22-5.75,1.88-7.75,4.57-1.09,1.47-3,.81-4.73.25.68.76,1.56.9,2.2,1.43a3.66,3.66,0,0,1,1.21,4.18c-.5,1.59-1.85,2.13-3.3,2.39s-2.42-.58-3-2a2.91,2.91,0,0,0-3-2.09,2.18,2.18,0,0,1-1.67-.55c-1.63-1.81-3.07-4.1-5.6-1-.36.44-1.08-.09-1.46-.62-.11-.14,0-.52-.36-.42,1.89,2.05-2,3.87-.23,5.92,2.15,5.09,5.32,9.74,6.57,15.23a3.93,3.93,0,0,1-.25,1.59,2,2,0,0,1-.76.78c-2.32.2-3.29-1.36-4-3.16-.39-1-.44-2.06-1.18-2.88-2.85-3.72-4.72-8-7.19-12,0-.72.12-1.43.91-1.77-8.21-2.4-8.64-3.14-7.15-12.92-1.87,1.37-1.7,3.18-2,4.81-.59,3.18-1.79,3.66-4.34,1.56a2.1,2.1,0,0,0-1.9-.38,2.82,2.82,0,0,1-3.06-1.33c.14-1.86,1.06-3.5,1-5.53-.14-2.92-2.52-2.4-3.94-3.15-.75-.39-1.87,1.15-1.58,1.89,1.24,3.13-1.1,4.41-2.77,6.09-3.29.61-6.5-.43-9.76-.52-2.42-1.83-2.47-3.84-.36-5.93.71-.71,1.39-1.34.45-2.43-.77,3.56-4.23,4.21-6.49,6.17a10.81,10.81,0,0,1-7,2.63c-1.55,0-3.35,1.24-4.31-.93C949,133.41,949.65,131.85,951.18,130.63Z"/><path class="cls-8" d="M829.6,344.6c6.69-3.19,6.88-2.93,13,2.21,2.35,2,5,3.73,7.32,5.71,7,5.89,14.5,11.18,22.06,16.37,6,4.1,11.41,9,17.23,13.31a52.54,52.54,0,0,0,9.19,5.56c5.64,2.61,9.77,7.14,14.67,10.68,5.58,4,10.9,8.48,17.25,11.45,3.9,1.82,6.29,5.66,9.17,8.78A50.19,50.19,0,0,1,931,434.55c-1.12,2-2.35,2.67-4.6,1.23-10.69-6.85-20.64-14.72-30.76-22.34-18.08-13.58-35.63-27.86-52.85-42.51-4.29-3.65-8.59-7.28-12.84-11-2.64-2.29-5.89-1.57-8.57-3a3.08,3.08,0,0,1,.08-3.09,45.4,45.4,0,0,1,5.88-8.55A1.82,1.82,0,0,1,829.6,344.6Z"/><path class="cls-9" d="M912.28,459c-2.52,3.88-6.08,6.78-9.55,9.68-1.88,1.57-3.9,3-5.69,4.72a4.42,4.42,0,0,1-3.39,1.58c-1.66-1.18-1.67-3.31-2.81-4.87a32.6,32.6,0,0,0-10.78-9.2c-8.4-4.75-15.2-11.63-22.21-18.11-4.92-4.55-11.27-7.37-15.26-12.95-4.35-6.07-11.23-9.74-15.22-16.14a2.14,2.14,0,0,0-.8-.72c-8.26-4.69-13.81-12.34-20.48-18.77-1-1-2.14-1.91-3.2-2.87-2.17-2-3.46-4.27-2.76-7.32,1.21-2.51,3.44-3.95,5.74-5.23,2.51-1.41,4.94-1.08,7.43.49,11.76,7.45,22,16.85,32.84,25.47,10.1,8,19.6,16.79,30.61,23.63a58,58,0,0,1,7.57,6,29,29,0,0,0,7,4.93,10.3,10.3,0,0,1,5.11,5.83c1.73,4.4,5.16,7.07,9.06,9.32A32.05,32.05,0,0,1,912.28,459Z"/><path class="cls-10" d="M875.7,485c-3.15,2.74-6.92,3-10.82,2.63-6.73-5.51-12.94-11.6-19.33-17.49-7.46-6.86-15.17-13.45-23-19.87-5.27-4.31-10.25-9-15.55-13.21-8.36-6.72-16-14.31-24.17-21.21-4.09-3.44-8.22-6.89-12.06-10.62-1.1-1.07-2.45-2-2.06-3.9,1.95-3.35,5.29-5.08,8.45-6.91a100.9,100.9,0,0,0,12-7.69c1.11-.87,2.22-1.88,3.84-1.32,1.27,1.64,0,2.92-.67,4.24-4.24,8-4.26,8.68,2.2,15.09a316.6,316.6,0,0,0,26.84,23.72c4.42,3.49,8.2,7.69,12,11.79,8.26,8.8,16.57,17.55,26,25.16a50.57,50.57,0,0,0,8.37,5.54c5.06,2.63,6.6,7.59,8.43,12.38A1.84,1.84,0,0,1,875.7,485Z"/><path class="cls-11" d="M912.28,459c-6.94-2.13-13.36-5.17-16.67-12.09-1.64-3.43-3.53-6.1-7.28-7.34-2.94-1-4.6-3.74-6.9-5.61-5.87-4.74-12.39-8.57-18.29-13.2-7-5.51-13.73-11.46-20.76-17-7.2-5.69-14.17-11.67-21.26-17.5-3-2.5-6.92-3.65-9.79-6.55-1.38-1.38-3.68-.55-5.34.62s-3.45,2.56-5.18,3.85c-1.23.47-2.43,1.38-3.77.26a2.35,2.35,0,0,1-.44-.93c-.13-1.13.66-1.95,1-2.93,1.56-2.54,4.16-4,6.3-5.9,1.76-.69,2.92-2.31,4.67-3,5.49-3.21,10.3-1.61,14.88,2,4.21,3.35,8.72,6.32,12.62,10.06.34.34-.14,0,.27.23,12,6.83,20.86,17.6,32,25.56s21.27,17.46,32.1,26c3.47,2.73,6.28,6.24,9.86,8.9,1.53,1.14,2.81,1.8,4.83.7,3-1.63,5.13.55,7.19,2.39C919.34,451.62,916.53,455.91,912.28,459Z"/><path class="cls-12" d="M797.24,384.18c1.19-.05,2.37-1.21,3.58-.05.28,5.87,6,7.65,8.79,11.6,3.13,4.36,8.17,6.9,11.15,11.45a5.09,5.09,0,0,0,1.5,1.53c9.45,5.82,16.07,14.66,23.64,22.46,4.35,4.49,10.06,7.15,14.35,11.78s9.36,8.11,14,12.19c4,3.48,9.43,5,13,8.72,2.89,3,7.46,5.58,6.34,11.08-3.26,3.32-6.78,6.2-11.53,7.1-2.94-.71-4.55-2.49-4.39-5.6.14-2.72-2-4-3.62-5.4a25.45,25.45,0,0,0-5.64-3.79c-8.07-3.87-13.79-10.41-19.91-16.67-7.43-7.6-14.22-15.77-21.7-23.34S811.22,413.36,803.81,406c-3.29-3.27-6.37-6.77-9.71-10S792.57,386.35,797.24,384.18Z"/><path class="cls-13" d="M821.67,356.81c6.18-2.55,9.79,2.18,13.41,5.36,11.93,10.48,24.26,20.48,36.52,30.55,10.59,8.71,21.73,16.73,32.66,25,5.33,4,10.67,8.06,15.94,12.18,2.56,2,6.15,2.4,8,5.57.54.91,1.7-1,2.81-.93-.48,3.89-3.93,5.74-5.9,8.6-1,.92-2,.63-3,.18-4.16-1.84-8.35-3.73-11.65-6.93a106.82,106.82,0,0,0-22.68-16.68,23,23,0,0,1-3.63-2.91c-3.86-3.34-7.47-7-12.64-8.5-3.11-.92-5.65-3.28-7.93-5.44-6.07-5.73-13-10.35-19.31-15.84-7.46-6.55-14.84-13.5-23.36-18.88-2-1.29-4.8-.62-6.61-2.48C814.33,361.66,818,357.26,821.67,356.81Z"/><path class="cls-14" d="M856.35,277.7c0-5.74-1.42-11.66,2.52-16.9.66-.88.34-2.55.34-3.86,0-6.58-.61-13.23.09-19.74,1.23-11.42.81-22.88,1.61-34.28.3-4.25-.33-9.57,3.8-13a2.19,2.19,0,0,1,1.36,1.55c1.32,3.28,1.82,3.37,4.36.7,2-2.09,4-4.16,7.05-4.64a8.39,8.39,0,0,1,7.95,6.37c1.34,4.42,2,9,3,13.51a4.29,4.29,0,0,1-3.44,5.4,2.06,2.06,0,0,1-1.08-.44c-.89-1.49-.83-3.26-1.4-4.85A21.35,21.35,0,0,1,881,198c.23-2.07-1.45-3.25-2.61-4.48s-2.59-.19-3.12,1a25.39,25.39,0,0,0-2.44,11.09,1.9,1.9,0,0,0,.63,1.61c3.53,2.49,2.67,6.14,2.75,9.66.14,5.77-1.29,11.51.1,17.31,1,4-.7,6.19-4.91,6.86a3.86,3.86,0,0,0-3.06,2.12c.11,1.6,2.17,2.93.69,4.75a3,3,0,0,1-2.12,1.18c-.56,1.9.6,3.81.06,5.72-1,3,1.23,5.91,0,8.87.15,1.68.26,3.37,1.41,4.73,4.27,5,4.4,10.94,3.34,17-.52,3-.93,6.07-3.43,8.33-1.41,1.27-.7,3-.19,4.37a24.19,24.19,0,0,1,1.45,5.51c.26,2.42,1.14,4.79-2.55,5.38-.9.14-.95,1.53-1.08,2.49-.16,1.26.32,2.69-.93,3.68-3.15-1-3.58-3.71-4-6.4a3.24,3.24,0,0,1,.24-1c.92-1.41,2.65-2.45,2-4.55.25-2.82-1.26-5.2-1.64-8-2.35.56-3.3,3.18-5.68,3.06-1.77-.57-1.75-1.83-1.61-3.43.43-4.88,2.75-9.1,4.82-13.32,2-4,1.06-7.78.68-11.69-.9,1.44-.48,3-.73,4.5S858.78,277.82,856.35,277.7Z"/><path class="cls-15" d="M821.67,356.81a64.87,64.87,0,0,0-7.26,8.61c-.14,2.88-2.18,4.34-4.3,5.73-2.28,1-3.69,3-5.63,4.41l-5.84,5.68c-2.06,1.11-2.46,3.88-4.77,4.74a1.64,1.64,0,0,1-.93-.26c-7.23,6.31-16.1,10.14-23.75,15.8-2.66,2.36-5.28,1.46-7.88-.1-8.75-6.49-11.18-15.06-7.92-24.88,8.22-24.76,24.24-43.65,43.84-60.09,6.34-5.32,12.92-10.15,20.45-13.51,5.64-2.53,11.42-5.29,17.93-2.63,2.48,1,4.94,2,6.38,4.47,2.59,7.17.18,13.89-2.1,20.51-1.92,5.56-1.2,8.49,3.53,12.26,2.11,1.68,4,3.68,6.53,6.12-3-.05-4.24-1.71-5.59-2.78-7.29-5.78-11-4.9-14.76,3.71C826.7,348.5,823.53,352.23,821.67,356.81Z"/><path class="cls-16" d="M792.94,385.72a1.83,1.83,0,0,1,.64-.16c1.4-.38,1.88-2.35,3.64-2.11l0,.73c-.72,1.09-1.53,2.15-2.17,3.3-2.22,4-1.64,5.79,1.63,8.9,5.41,5.15,10.54,10.61,15.83,15.9a19.62,19.62,0,0,0,2.53,2c4.05,3,7.94,5.86,10.94,10.16,2.89,4.14,7.44,6.94,10.81,10.9,6.41,7.53,13.51,14.49,20.09,21.88,4.52,5.08,10.7,7.59,16.21,11.1,2.47,1.58,3.63,4.51,6.52,5.43.21.07.5.75.4.86-3,3.53.75,5.15,2.09,7.44-2,1.22-3.71,3.21-6.42,3a28.4,28.4,0,0,0-13.59-16,57.79,57.79,0,0,1-15.93-13.73c-2.5-3-5.74-5.31-8.42-8.26-9.57-10.53-20.33-19.79-31.22-29-6.68-5.62-13.7-11.2-18.45-18.87a3.89,3.89,0,0,1-.12-4.34Q790.45,390.27,792.94,385.72Z"/><path class="cls-17" d="M809.46,370.5c1.69-1.66,2.9-3.78,4.95-5.08,7.65-.68,12.2,4.83,17.18,9a140.3,140.3,0,0,0,12.61,10c3.52,2.35,5.51,6.59,9.3,8.84,6.07,3.61,10.5,10,16.91,12.41,9,3.4,14.83,10.85,22.9,15.41a69.15,69.15,0,0,1,18,13.92c3.59,4,9,5.8,13.84,8.09a6.11,6.11,0,0,1-2.83,4.3c-.47.08-1.09.4-1.39.21-2.51-1.54-4.71-2.93-7.41.15-.76.86-2.83-1.22-4.12-2.24-5.63-4.45-10.57-9.66-16.22-14.11-13-10.27-25.72-21-38.79-31.21-4.14-3.24-8.93-6.1-11.6-11a3,3,0,0,0-1.51-1.48c-7.83-1.95-12.28-8.76-18.56-12.93-4.58-3.05-8.8-4.65-14-2.17C808.3,371.7,809.11,371.17,809.46,370.5Z"/><path class="cls-18" d="M761.31,401.42l7.88.1c3,2.84,6.28,5.4,9.24,8.18,6.23,5.85,13.3,10.77,19.21,16.77,4.19,4.26,8.87,7.84,13.21,11.84,9.63,8.86,19.95,16.95,29.78,25.61,5.73,5.05,11.13,10.4,16.75,15.53,2.76,2.52,6.78,3.83,7.5,8.2-3.55.61-6.13-1.2-8.59-3.39-8.57-7.61-17-15.43-25.75-22.77-17.94-15-35.5-30.45-53.13-45.8C772,411,766.67,406.18,761.31,401.42Z"/><path class="cls-19" d="M1090.7,102.19c-.47-3.37-3.32-3.71-5.77-4.43-4.76-1.4-9.69-1.34-14.58-1.45a152,152,0,0,0-36.59,3.39c-2.17.48-4.29-.06-6.4.33-1.45,1.19-3.18.79-4.82.84-7.49.24-15-.56-22.43,1.29-7.05,1.75-13.34,4.35-17.18,11-.7,1.23-1.39,3-3.47,2.42,0-4.77.47-9.52.17-14.31-.21-3.47,1.83-5.38,5.39-5.63,13.74-.94,27.5-.44,41.25-.54,21.17-.14,42.35,0,63.52-.1,2.8,0,4.08.62,4.17,3.68.25,7.88.79,15.75,1.21,23.62l-.21,8.73c-2.29-.29-2.3-2.12-2.37-3.75C1092.25,118.91,1090.83,110.6,1090.7,102.19Z"/><path class="cls-20" d="M979.46,115.61c1.77-1.52,2.42-3.77,3.63-5.65,3.4-5.29,8.81-7.28,14.35-8.79,9.84-2.68,19.88-2.52,29.92-1.14,2.14,1.61,5.31-.17,7.22,2.18l0,0a5.21,5.21,0,0,0-1.43,0c-1.69.57-3.89-.47-5.09,1.61,1.88.75,2.62,3.93,5.53,2.57.55-.26.85.27.83.8,0,.86-.77,1.59-1.36,1.29-3.34-1.68-4.71,1.35-6.93,2.55s-4.65,1-6.94,1.29c-1.82.26-2.11-2.65-2.91-4.27,1.33-1,2.28,1.34,3.35,0a1.14,1.14,0,0,0,0-1c-.65-1.5-2.12-1.48-3.39-1.52a9.88,9.88,0,0,0-3.15.57,2.07,2.07,0,0,0-1.67,2.69c.31,1.52.93,2.06,2.48,1.6a1.51,1.51,0,0,1,2.06,1.21,9.2,9.2,0,0,1-7.29-1.55,1.4,1.4,0,0,0,.46-1.47,1.43,1.43,0,0,1-.45,1.47c-3.38,1.5-7.32.53-10.66,2.58-1.45.89-3.4,1-5.15,1.36-2.55.53-5.08.88-6.67,3.45a3.41,3.41,0,0,1-2.83,1.25c-4.82-.76-9.09,1.69-13.69,2.1a1,1,0,0,1,.19-1.4c1.33-.68,2.59-1.57,4.2-1.46,1.21-1.28,3.22-.06,4.4-1.43C978.75,116.18,978.83,115.62,979.46,115.61Z"/><path class="cls-21" d="M899.28,288.5c4.74,1.59,9.45,3.25,13.38,6.5-2.1,2.89-3.91-.2-5.64-.46,15.38,7.78,27.59,18.8,34.7,34.9A32.1,32.1,0,0,1,944,345.63c-.5,5.16-3.75,7.73-8.64,7-.88-2.11,0-4.23,0-6.35-.09-11.92-4.36-22-12.44-30.78-4.26-4.62-8.88-8.49-14.67-10.92a2.75,2.75,0,0,1-.93-.56c-4.42-3.54-9.32-6-15-6.46a5.14,5.14,0,0,1-4.25-2.18c-.07-2.33-2.21-4.55-.4-7C891.5,286.49,895.39,287.61,899.28,288.5Z"/><path class="cls-22" d="M877.09,188.53c-2,1.49-4.2,2.62-5.63,4.77-1.24,1.86-3.14,3.35-5.31,2.69s-1.07-3.05-1.33-4.7c-.07-.47-.07-.95-.11-1.42a14.66,14.66,0,0,1,10.66-9.77,43.45,43.45,0,0,0,5.39-1.62c1.79-1,3.54-2.08,5.69-2.11a5.25,5.25,0,0,0,4,1,16.93,16.93,0,0,1,6.33.89c5.66,1.52,7.58,6.31,4.55,11.36-1.15,1.92-2.87,3.3-5.31,3a3.91,3.91,0,0,0-4.18,1.91c-1.86,2.66-4.6,2.42-6.25-.5-.83-1.47-2-2.69-2.81-4.12C881.38,187.51,879.46,187.05,877.09,188.53Z"/><path class="cls-23" d="M895.7,273.46a9.42,9.42,0,0,1-7.06-4.29c-.19-1.64-3-2-2-4.2a3.1,3.1,0,0,1,2.08-.69c2.2.54,4.34-.33,6.29-.86a5.82,5.82,0,0,0,4.34-4.42c1.61-5.72,1.66-11.9,4.18-17.25,4.46-9.5,5.09-19.2,3.08-29.27a20.54,20.54,0,0,1,.19-6.41c.4-3.59-.23-7.13-.23-10.69a14.34,14.34,0,0,1,.28-2.85c.35-2,1.28-3.68,3.45-3.29,2,.35,3.83,1.45,4,3.95a42,42,0,0,1-.87,9.22c-.54,3.28-.39,6.65-1.18,9.9a5,5,0,0,0-.94,2.65c-.07,9.88-1.24,19.67-2.16,29.49a63.43,63.43,0,0,1-.91,6.35,10.39,10.39,0,0,0,.52,5.91,16.38,16.38,0,0,1,0,3.5c-.5,1.52.74,3,.1,4.51a8.34,8.34,0,0,1-4,3.8c-.72.33-1.76.54-1.9,1.43C902.16,274.65,898.93,274,895.7,273.46Z"/><path class="cls-24" d="M935.45,352.39c7.11-2.71,9-7.31,6.69-16.41-3-11.77-9.7-21.09-19.1-28.67-3.78-3.05-7.15-6.58-11.26-9.3-2.77-1.84-6.06-2.67-9.25-5,4-.07,6.57,3.42,10.12,2,5.37,1.44,9.28,5.17,13.28,8.65,7.2,6.29,13.48,13.3,17,22.45,3.06,8,5.54,16,2.73,24.73-.84,2.61-.65,5.54-2.91,7.59-3.2.14-5.08-2.27-7.38-3.86a1.7,1.7,0,0,1-.47-1.39A1.3,1.3,0,0,1,935.45,352.39Z"/><path class="cls-25" d="M887.25,289.18a4.66,4.66,0,0,1,1.37,5.8,8.11,8.11,0,0,1,1.1,3c.57,4.45,1.17,8.9-1.65,12.91a1.72,1.72,0,0,1-2.69-1.33c-.1-4.09-2.85-4.65-5.94-4.94-.35-.1-.67-.28-1-.39-5.33-1.75-6.79-6.58-3.12-11a9.93,9.93,0,0,0,2.16-9c-1.14-5.11.49-10.23-.13-15.35a1.87,1.87,0,0,1,1.89-2.17,3.32,3.32,0,0,1,1.6,1.29c2.72,3.8,3.32,8.3,4.22,12.7l1.16,4.43C887.91,286.11,888.11,287.51,887.25,289.18Z"/><path class="cls-26" d="M951.18,130.63c-.87,1.57.05,3.22-.52,4.94,3.47-1.12,7.33.14,9.76-3.11a2.11,2.11,0,0,1,.51,2.91,3.49,3.49,0,0,1-3.52,2.4c-1.14,0-1.81.35-1.75,1.59a3.34,3.34,0,0,1-.14.94c-1,2.32-3,1-4.54,1.36-2.48,1.1-5.11.89-7.71.93-.86,0-1.87-.1-1.2,1.33.12,2.72-1.92,3.63-3.87,4.52a49.06,49.06,0,0,1-5.46,2.52c-5.52,1.67-9.35,6.77-15.46,7.22a5.06,5.06,0,0,0-4.38,3.17c-2.53,2.12-4.44-.52-6.66-.87a1.76,1.76,0,0,1-.6-.82c.61-2.62,3.16-3,5-4,5.42-3.16,11.57-5.35,16.32-9.26,5.26-4.32,11.27-6.73,17.14-9.64.85-1,3-.74,2.79-2.81A5.13,5.13,0,0,1,951.18,130.63Z"/><path class="cls-27" d="M986.1,263.36c-5.36,3.46-10.71,6.93-16.9,8.79-1.55.47-3.07.77-4.31-.63s-.35-2.73.34-3.95c1.18-2.07,1.45-4.56,3-6.44,1.84-1.33.69-2.82.23-4.28-.94-2.5-.36-5,.34-7.36,1.31-4.32,2.05-8.82,4-12.94a4.31,4.31,0,0,0-.06-3.79c.06-3.46-.83-6.86-.6-10.32a68.29,68.29,0,0,1-.31-10.11c2.56-2.54,2.8,0,3.31,1.59,1.17,3.6,1,7.45,1.85,11.11a3,3,0,0,1,.13,1,5,5,0,0,0,.25,3.71c1.23,1.91,1.82,3.84.23,5.88a1.71,1.71,0,0,0-.46,1.32,24.78,24.78,0,0,1-.33,11c-.33,2.21-.58,4.47-2.93,5.62-.76.17-1.75,0-1.52,1.37a6.48,6.48,0,0,1-.59,3.82c.78-1.64,2.23-1.66,3.54-1.25,2.16.68,4.32,1.33,6.51,1.87,1.14.28,2.55.82,2.45,2.22s-1.7.89-2.62,1.27a2.1,2.1,0,0,1-1.4,0C982.16,263.38,984.32,261.39,986.1,263.36Z"/><path class="cls-28" d="M935.4,354c3.08.41,5.15,2.5,7.32,4.42-.6,4.36-3.81,7.07-6.58,9.95-3.41,3.53-7.15,6.75-10.74,10.1-.24-2,.08-4.1-1.64-5.7-.58-.55-.28-1.32,0-2,1.53-4.43.37-6.31-4.17-6.8-.28-3.84,2.8-3.44,5.09-4,3.69.3,5.75-2.73,8.56-4.22C934,355.27,934.35,354.16,935.4,354Z"/><path class="cls-29" d="M856.07,297.71c.49-.51.95-1,1.46-1.54,1.54-1.45,3.19-3.9,5-3.49s.48,3.37,1.13,5.08a12.53,12.53,0,0,1,1.11,5.85,16.69,16.69,0,0,1-2.81,4.33h0a8.05,8.05,0,0,0-1.1,2.24c-.75,2-2.19,3.3-4.23,3.29a4.62,4.62,0,0,1-4.8-3.34c-.88-.92-2-.74-3.14-.82.43-2.49,2.52-4.11,3.36-6.39C852.72,300.65,853.21,298.27,856.07,297.71Z"/><path class="cls-30" d="M885.06,280.66c-.29.51-1.22,1-1.15.47.67-4.73-2.65-8.07-3.95-12.09a3.26,3.26,0,0,1-.06-.7,14.78,14.78,0,0,1,.09-9.41c1.64-5.54,1.83-11.21,1.62-17-.15-3.9.42-7.8.42-11.72A73.06,73.06,0,0,0,880.64,215c-.32-1.52-.68-3.07.7-4.32,1.68-.69,2.26.49,2.84,1.67l.09-.07c2.76,1.42,2.7,4.09,2.64,6.55-.25,9.81-1.18,19.58-1.07,29.4,0,2.75.24,5.52-.65,8.2-.41,1.23.09,2.35.49,3.48-.19,1.92,1.37,3.62.74,5.6.75,1.22,2.88,1.61,2.21,3.68L885.47,267C884.46,271.77,885.14,276.23,885.06,280.66Z"/><path class="cls-31" d="M856.07,297.71l-4,5.2c-.56-5.39,1.18-10.41,2.4-15.53.76-3.2,1.26-6.45,1.87-9.68,1.69-1.18,1.39-3,1.27-4.6a13.7,13.7,0,0,1,2.06-7.89c2.66,4.55,2.9,9.35,2.11,14-.56,3.23-2.42,6.31-4,9.27-1.43,2.6-1.67,5.45-2.43,8.2C855.24,296.9,855.8,297.35,856.07,297.71Z"/><path class="cls-32" d="M952.72,263.42c-4.69,1.78-9.38,3.57-14.55,2.71a2.74,2.74,0,0,0-2.77,1c-5.82,6.12-14.59,6.93-21.77,2.12a1.76,1.76,0,0,1,.56-.87,4.28,4.28,0,0,1,2.39-.48,15.52,15.52,0,0,0,12-3.84,5.87,5.87,0,0,1,5.18-1.75c1,.11,1.83.95,2.9.93a7.65,7.65,0,0,0,5.21-1.6c2.16-1.68,5-1.62,7.62-2.24a3.37,3.37,0,0,1,2.5,1A3.51,3.51,0,0,1,952.72,263.42Z"/><path class="cls-33" d="M986.1,263.36c-2.51-.6-4.91,1.29-7.4.37-.43-.17-1.76.15-1.2-1,.29-.6.1-1.94,1.69-1.6,1.32.28,2.64,1.34,4.41.28-3.62-1.11-7.12-1.77-10.51-3.41,0,1.57,1.47,1.09,1.82,2.61-1.5-.79-3.35-.47-3.57-2.28-.35-2.82-1-5.83,1.28-8.52,1,1.22-.35,2.66.9,3.49a5.58,5.58,0,0,0,2.88,2.3c-.6-.54-2.19-.53-1.7-2a1.76,1.76,0,0,1,2.44-.89c3.16,1.15,5.11,0,6.89-2.71,1.4-2.12,2.85-1.64,3.62,1a32.36,32.36,0,0,1,.86,8.5,13.83,13.83,0,0,1-1.53,3.83Z"/><path class="cls-27" d="M987,263.29c-2-1.88-.72-2.73,1.06-3.44.87-2.07,2.46-3.6,3.9-5.26a5.79,5.79,0,0,1,5.06-1.31c1.72.36,1.78,2.47,3.29,3.18,1.36-.85,1.81-3.37,4.19-2.41.51.17.84,1.07,1.48.61,4.07-2.84,9-2.5,13.52-3.85a3.12,3.12,0,0,1,1.48.2,6,6,0,0,1,2.46,3,.85.85,0,0,1-.39.81c-2.86.42-6-1-8.56,1.33-5.91,1.75-11.66,4-17.79,5.07C993.42,261.71,990.21,262.57,987,263.29Z"/><path class="cls-22" d="M883.46,175.55c3.92-6.09,10.34-9.08,16.12-12.81,1.86-1.2,3.19-3.79,6.06-3.08l.29.08c1.47,1.73,3.74,1.42,5.6,2.13.53.21,1.18-.14,1.76-.05,1.28.2,2.32.82,2.27,2.25s-1.22,1.51-2.3,1.7c-2.72.48-5.71-1.08-8.18,1.13-1.87.87-4,.92-5.83,2-4.27.67-7.38,3.53-10.77,5.83a9.85,9.85,0,0,1-3.13,1.55C884.57,176.44,883.58,177.07,883.46,175.55Z"/><path class="cls-34" d="M895.7,273.46c1.17-.06,2.36-.06,3.53-.2,1.38-.16,2.46-1.13,1.82-2.38-1.32-2.59.07-3.16,2.1-3.42s3.14-2,4.87-2.69a2.31,2.31,0,0,1,1.76.67,4,4,0,0,0,3,1.22,1.92,1.92,0,0,1,1.26.81,1.37,1.37,0,0,1-.17,1.49l-.22.3c-1.29-.2-2.55-.51-3.59.77C906.15,274.82,901,274.56,895.7,273.46Z"/><path class="cls-35" d="M952.72,263.42c-1.6-.35-1.28-1.39-.87-2.46a1.91,1.91,0,0,1,1.06-2.15,8.22,8.22,0,0,0,4.35-4.06c1-1.66,1.94-3.32,3.71-4.29a5.5,5.5,0,0,1,.93-.49c1.27-.57,2.45-2.59,3.92-.8,1.24,1.53.62,3.37-.39,4.94a9.3,9.3,0,0,1-2.28,2.19c-1.34,1.07-1.61,2.24-.57,3.65,0,.16.07.32.1.49C959.59,262.21,956.07,262.52,952.72,263.42Z"/><path class="cls-36" d="M887.25,289.18c-1-1.2-1-2.66-1-4.09a31.93,31.93,0,0,1,13.06,3.41C895.25,288.27,891.26,288.87,887.25,289.18Z"/><path class="cls-35" d="M969.78,256.73c0,1.66.65,3.52-1.53,4.4.42-1.45.66-2.64-1.6-1.77a37.43,37.43,0,0,1-4,1.08l-.15-.23C964.05,257.25,966.15,256.23,969.78,256.73Z"/><path class="cls-7" d="M946.87,133.91c1.08.17,1.83.77,1.7,1.89s-1.22.91-2,1-1.66,0-2.49,0A4,4,0,0,1,946.87,133.91Z"/><path class="cls-37" d="M969.9,119.46l-.18,1.4c-2.6-.45-4.57,2-7.16,1.56C964.61,120.46,966.91,119.11,969.9,119.46Z"/><path class="cls-38" d="M883.46,175.55c.51.54,1,.2,1.59.06.49.29,1.19.06,1.56.65a.91.91,0,0,1-.18.81,9.21,9.21,0,0,1-5.67,1.41A4,4,0,0,1,883.46,175.55Z"/><path class="cls-5" d="M1096.43,155.43c-1.36-4.26-.4-8.63-.61-12.94C1097.16,146.75,1096.16,151.12,1096.43,155.43Z"/><path class="cls-37" d="M978.5,116.57c-.88,2.29-2.82,1.29-4.4,1.43C975,115.9,977,116.82,978.5,116.57Z"/><path class="cls-1" d="M687.11,69.29a13.41,13.41,0,0,1,2.23,1.23,1.54,1.54,0,0,1,.39,1.25c-.08.56-.64.67-1.12.51-2.11-.67-3.62.63-5.31,1.47-1.2.59-2.88.86-3.43-.64-.63-1.76,1.14-1.64,2.24-1.85s2-.45,1.39-1.81c-1.39-2.86,1.18-3.81,2.57-5.16s3.17-1.55,4.3.26c1,1.62.19,3-1.5,3.73C688.35,68.53,687.87,68.86,687.11,69.29Z"/><path class="cls-1" d="M639.62,119.42c-4.62-2.47-5.8-5.26-4.31-9.6.32-1,.91-1.78,2-1.63a2.43,2.43,0,0,1,2.23,2.43C639.69,113.44,639.62,116.27,639.62,119.42Z"/><path class="cls-1" d="M634,81.15c1.12.44,2.68.67,2.59,2.1a3.22,3.22,0,0,1-3.11,3c-1.49.14-1.64-1.12-1.6-2.25C631.9,82.56,632.28,81.35,634,81.15Z"/><path class="cls-1" d="M657.65,46.05c.15.92,0,1.29-.62,1.4-1.49.27-2.51-.52-3.45-1.51s-2-1.83-1.9-3.3c0-.21.48-.39.74-.59C653.79,44,656.31,44.52,657.65,46.05Z"/><path class="cls-1" d="M720,27.43c-.46-1.81.19-3.18,1.91-3.65,1.11-.3,1.2.92,1.2,1.72,0,1.8-.84,3.61-2.36,4S720.17,28.2,720,27.43Z"/><path class="cls-1" d="M692.44,57.69c1.07.29,2.58.36,2.71,1.75.12,1.19-1.13,1.81-2.2,1.91a2.32,2.32,0,0,1-2.46-2.1C690.27,58,691.37,57.76,692.44,57.69Z"/><path class="cls-1" d="M673.8,84.44a3,3,0,0,1-2.79,1.8,1.58,1.58,0,0,1-2-1.83c.13-1.32,1.16-1.66,2.32-1.54S673.48,83.14,673.8,84.44Z"/><path class="cls-1" d="M577.67,102.58c1.39.14,1.52,1.15,1.76,2.06.32,1.21-.39,1.84-1.43,2-1.38.2-1.49-.88-1.53-1.85A2,2,0,0,1,577.67,102.58Z"/><path class="cls-1" d="M557.49,79a1.86,1.86,0,0,1-2.22,1.51c-.9-.11-1.68-.58-1.39-1.58s1.34-1.14,2.32-1.07A1.29,1.29,0,0,1,557.49,79Z"/><path class="cls-1" d="M656.24,125.88c-.08.67.07,1.69-.82,1.66-1.39,0-1.37-1.39-1.51-2.36s.1-1.84,1.23-1.6S656.17,125,656.24,125.88Z"/><path class="cls-1" d="M532.92,84.45a1.31,1.31,0,0,1,1.21,1.46,1.69,1.69,0,0,1-1.91,1.64c-.9-.06-1.07-.82-1-1.57A1.61,1.61,0,0,1,532.92,84.45Z"/><path class="cls-1" d="M649.57,104.75c1,.07,1.43.62,1.44,1.38a1.4,1.4,0,0,1-1.49,1.56c-.67,0-1-.5-1-1.16A1.62,1.62,0,0,1,649.57,104.75Z"/><path class="cls-1" d="M649,121.85c-.75.06-1.11-.19-1.18-.74a1.67,1.67,0,0,1,1.29-1.87c.73-.26,1.2.07,1.18.81A2.3,2.3,0,0,1,649,121.85Z"/><path class="cls-1" d="M580.31,87.71c.87.16,1.65.42,1.71,1.49,0,.67-.29,1.23-1,1.18-1-.07-1.32-.93-1.48-1.76A.7.7,0,0,1,580.31,87.71Z"/><path class="cls-1" d="M558.61,101.88a1.23,1.23,0,0,1,1,1.28c-.07.92-.72,1.16-1.51,1a1,1,0,0,1-.8-1.34A1.18,1.18,0,0,1,558.61,101.88Z"/><path class="cls-1" d="M666.83,86.05a1,1,0,0,1,1.26,1,1.13,1.13,0,0,1-1,1.25.92.92,0,0,1-1.21-.93A1.29,1.29,0,0,1,666.83,86.05Z"/><path class="cls-1" d="M665.37,97.1c.09.75-.2,1.2-.87,1.28a1,1,0,0,1-1.2-.94,1.07,1.07,0,0,1,.89-1.27C664.89,96.05,665.15,96.62,665.37,97.1Z"/><path class="cls-1" d="M665.15,109.72c-.64-.15-1.32-.44-1.23-1.28a1.3,1.3,0,0,1,.93-.79c.83-.08,1.23.54,1.26,1.29C666.13,109.45,665.76,109.74,665.15,109.72Z"/><path class="cls-1" d="M580.26,95.51c0,.58-.45.77-.92.79a1,1,0,0,1-1.17-.94c0-.54.39-.8.89-.82A1.15,1.15,0,0,1,580.26,95.51Z"/><path class="cls-39" d="M1095,161.16q0,9.18.08,18.36a111.46,111.46,0,0,0-.75,18.53,19.84,19.84,0,0,0-.27,9.89c.4,2,.66,4-.55,5.89-2.25,2.13-3.4,5-4.52,7.71a10.15,10.15,0,0,1-2.47,4.07c-1.34.95-2.86.67-4.34.61a2.62,2.62,0,0,1-1.88-1c-.45-1.29-1.47-1.43-2.69-1.68-1.54-.31-3.58-.93-1.37-3.12.08-.08.32-.17.24-.18-4.74-.91-3.56-4.36-3.22-7.45a2.93,2.93,0,0,1,.5-.94c1.76-2.15,4.2.69,5.49-.43,1.64-1.42,2.76-2.28,4.91-1.23a7.49,7.49,0,0,0,4.89.46c.48-.11.93-.36,1-.91s-.42-.79-.89-.94a20.45,20.45,0,0,0-6.38-.51c-1.59,0-3.13,1-4.69-.49-.71-.68-1,.74-1.65,1.1-2.76,1.63-5.48.6-5.4-2.41.15-5.71-2.52-10.87-2.85-16.46A9,9,0,0,1,1068,188c0-.51,0-1,0-1.54-.42-6,.11-12-.82-18-.41-2.64,0-5.41-.09-8.13-.06-2.32,1.87-3.39,4.2-3.41a2.76,2.76,0,0,1,1.35.71c1.79,2.89,5.5,1.94,7.77,3.88a17.88,17.88,0,0,1,3.19,3.37c.57.78,1.18,1.72.63,2.64-.73,1.21-1.85.6-2.42.4,1.17,2.95,3.51,5.74,1.91,9.8-.66,1.69,1.81,3.43,1.34,5.67.88-2.83,1.68-5.51,4-7.41.19-.16.51-.4.43-.47-2.32-2-.33-4.18-.52-6.15-.37-3.83,3-5.48,3.67-8.55C1092.91,159.62,1094.25,160.45,1095,161.16Z"/><path class="cls-40" d="M1090.7,102.19a49.83,49.83,0,0,1,2.86,16.29c.13,4.25.13,8.48,1.4,12.58,0,3.33,0,6.66,0,10-.42,2.15-2.74,2.85-3.62,4.9-.6,1.42-2.25-.7-3.45-1.19a13.9,13.9,0,0,1-5.51-7.26,1.48,1.48,0,0,1,.55-.87c.73.33,1.67,1.23,2.21.31.91-1.57-1.13-2.71-1-4.26-2,0-2.33-1.78-3.08-3-.61-1-3.06-1.79-.65-3.39-.28-.13-.56-.28-.85-.4a27.7,27.7,0,0,1-12.48-11c-.93-1.5.23-1.54.52-2,.56-.87,1.36-.3,1.61.38.66,1.81,1.71,3.34,3.51,1.65,2.07-1.93-1-2.58-1.51-3.91-.37-.94-1.88-.52-2.08-1.81,3.13-1.69,6.45-1.12,9.64-1.09a30.63,30.63,0,0,0,0,3.2c.07.66.08,1.52,1,1.64s1.17-.65,1.14-1.38c-.08-1.88,1-1.79,2.32-1.51.67.14,1.5.28,2-.47C1086.81,106.94,1089.63,105.21,1090.7,102.19Z"/><path class="cls-41" d="M1092.12,213c2.24-1.88,1.38-4.15.5-6.15a7.36,7.36,0,0,1,1-8.23,1,1,0,0,1,1.4-.12c-.15,12.79.88,25.62-.85,38.37-.37,2.71.8,5.17.87,7.8,0,2.09-.44,3.08-2.8,2.9-3.1-.23-6.23-.1-9.34-.12a151.45,151.45,0,0,0-23,.12c-1.12.11-2.1.25-3-.62-.93-2.06.63-2.84,2-3.49,3-1.44,6-2.92,9.37-3.18,4.7-1,9.27-2.39,12-6.73,1.23-1.93,2.7-4.25-.48-6a1.13,1.13,0,0,1-.59-1.51c.66-1.3,2.08.1,2.88-.77l4.31-.76c.63-.52,1.81-.56,1.94-1.42C1088.88,219.41,1091.92,216.73,1092.12,213Z"/><path class="cls-42" d="M1056.56,246c1.24,1.32,2.84.89,4.35.89,6.52,0,13,0,19.55.09a11.4,11.4,0,0,1,2.4.5c-6,0-11.94.19-17.91.07a13.2,13.2,0,0,0-8.58,2.93,117.75,117.75,0,0,1-10.37,7c-4.55,2.76-9.28,3.29-13.39,0-3-2.44-6.09-2.87-9.58-2.68,0-.28,0-.55-.07-.83.25-2.54,2.29-3.56,4.18-4.4a25.56,25.56,0,0,1,8.87-2.64c2.92-.19,5.47-2.09,8.51-2.44,2.51-.28,5.08-.3,7.56-1.48S1056.16,243.29,1056.56,246Z"/><path class="cls-43" d="M1088.57,143.87l2.27,1.71c.76-1.46-.17-2.44-.81-3.56,1.7-.29,3.65,1,4.88-1q0,10.07,0,20.12l-1.71.06c.91,3.4-2.39,4.71-3.66,7.07,1,.89,2.93-.28,3.28,1.61-4,.53-4.27,1.12-2.08,4.54.65,1,.55,2.44,1.14,3.72l-1.91-1.27c-2.27,2.47-2.16,5.84-4.24,8.27-.52.61-1.25,1.43-2.09.86a2.18,2.18,0,0,1-.35-1.94c.77-2.4.36-4.27-1.91-5.61-.44-.26-1.24-.64-.56-1.3s1.54-1.92,3.79-.13c-3.6-3.8-1.84-9.06-6.65-10.56,2.55-2.26,3.85,0,5.88,1.45-1-2.86-3.59-3.5-4-5.72a2.45,2.45,0,0,1-.68-1.36c.71-3.33,1.54-3.7,5.24-2.81,1.37.32,2.81,2.22,4.17.56s-.1-3.1-.79-4.56c-.41-.87-.93-1.86-.47-2.72a5.36,5.36,0,0,0,0-5.29C1086.91,145.12,1087.41,144.18,1088.57,143.87Z"/><path class="cls-44" d="M1095,198.49l-1.4.12c-.8-5.51.41-11,.5-16.45a8.71,8.71,0,0,1,1-2.63A187.35,187.35,0,0,1,1095,198.49Z"/><path class="cls-5" d="M1165.1,255.33c-.13,1.23-1,1.44-2,1.45s-2.23-.19-2.29-1.56c0-1.12.94-1.19,1.76-1.2C1163.61,254,1164.71,254,1165.1,255.33Z"/><path class="cls-2" d="M1201.19,297.29a4.25,4.25,0,0,1-2.34,3.12,2.25,2.25,0,0,1-3-1.06c-.56-.91-1.1-1.84-1.62-2.76-.69-1.22-1.11-2.67,0-3.61s1.85.58,2.66,1.12C1198.35,295.11,1200.61,295.16,1201.19,297.29Z"/><path class="cls-45" d="M925.08,361.07c-1.92.81-4.08,1.15-5.52,2.88-8.27,1.45-14.43-1.54-20.32-7.6-9.55-9.82-20-18.7-30.16-28a4.53,4.53,0,0,0-1.26-.57c-1.15-2.85-3.22-5.41-2.72-8.78.11-2.49.6-5,.49-7.48-.09-1.8.46-3.08,2.6-2.91,2,.17,3,1.52,4,3.07.59,1,1,2.22,2.35,2.44,2,1,2.66,2.94,3.67,4.64a3.65,3.65,0,0,0,3.42,2.13c1.75-.08,2.2-1.51,2.71-2.87a18.58,18.58,0,0,0,.72-4.18,3.77,3.77,0,0,1,2.06-3.11c2-4.15,1-8.66,1.58-13,3.83-2,7.42-.12,10.75,1.21a32.13,32.13,0,0,1,8.54,4.65h0a53.41,53.41,0,0,1,19,16.73c6.83,9.5,9.24,19.95,5.12,31.34C930.79,355.59,928.94,359.09,925.08,361.07Z"/><path class="cls-46" d="M866.16,319.48c-.46,3,1.69,5.45,1.66,8.34-2.67-1-2.91-3.88-4-5.88-2.8-5.06-7.87-6.92-12.17-9.89-.93-.65-2.55-1.59.21-1.93,4.71,3,4.7,3,8.45-.88a14.27,14.27,0,0,1,1.68-1.31c.13,2.7,2.72,4.47,2.71,7.22C866.39,316.19,864.93,318.29,866.16,319.48Z"/><path class="cls-47" d="M1008,148.26c-1.51-1.13-1.9-2.31-.43-3.85.44-.47,1.67-1,.73-2-1.32-1.38,0-2.07.78-2.42,2.06-.93,0,2,1.94,1.68.75-.65.39-2.59,2.89-2.64,2.18-.05,3.74-1.75,2.1,1.92-.22.49,1.35.81,1.5,1.87,0,.33,1.14.42,1.43-.3.92-2.37,1.69-.7,2.32.12a11.33,11.33,0,0,1,1.34,2.5c.33.75-.1,2.7,1,2s3.27-.33,3-2.71c-.18-1.5-.4-2.08-2.11-1.91-2.21.21-.91-3-2.77-3.3.23-.38.4-1,.7-1.1,1-.2,2-.82,2.86.89.64,1.31,2.29.48,3.42-.18-.14-1-1.61-.76-1.46-2.17,1.54.67,2.79.23,4.34-.46,2-.91,3.61-3.37,6.34-2.4.21-2.77,2.5-2.46,4.31-3.05s3.08-.69,4.31,1c.56.77.5,1.73.15,1.86-1.53.55-3,1.51-4.79,1.07-.29-.07-.49-.54-1.14,0,.9,2.48,2.06,4.7,5.28,4.87,3.53-.69,4.3-.31,6.31,3.13,0,.06-.27.26,0,.19s.7-.09,1.05-.17c1.33-.32,3,.22,2.69,1.36s-.24,1,.63,1a9.52,9.52,0,0,1,4.52.93,1.64,1.64,0,0,1,1.07,2,1.7,1.7,0,0,1-1.85,1.35c-1.7,0-3.24-.78-4.58-1a34.14,34.14,0,0,0,4.32,1c.92.05,1.69.26,2,1.23a2.53,2.53,0,0,1-.86,2.59c-1.79,1.72-4,1.61-6,.85-1.7-.63-3.31-1.33-4.64-.75,1.61-.32,3.15.48,4.09,2.44.75,1.54-.56,2.11-1.31,3a4.83,4.83,0,0,1-2,.84c-1.07.24-2.39-.75-2.76,1.73-.24,1.62-3.46,1.55-5.13.75-2.18-1-4.23-2-6.71-1.94a2.13,2.13,0,0,1-2.25-1.93c-.1-1.19,1.4-.6,2.09-2-3.38,2.88-6.38,6.07-10.09,1.51-2.76-.58-4.81-2.72-7.8-3.07-2.07-.25-2.93-2.63-3.1-4.79-.07-.91.53-1.23,1.38-1.12-1.28-.18-2.65,1.16-3.86-.21a.74.74,0,0,1-.07-1c.94-1.18,2.12-.21,3.35-.34C1013.45,147.05,1010.51,146.2,1008,148.26Z"/><path class="cls-48" d="M1052.58,157.61c.13-.8,2.18-1,1.22-1.5s-.72-2.57-2.4-1.86a4.46,4.46,0,0,1-4.62-.68c1.84-4.77,5-.87,7.55-1.2,1.33-.17,2.76.68,4.17.8a2.42,2.42,0,0,0,2.68-2.33c.13-1.41-1.31-1-2.14-1.21l-7-1.78c3.2-.66,5.25.52,7.41.85.89.14,1.86.12,2-.94.1-.91-.92-.92-1.58-1.09-2-.54-4.12-1-6.19-1.56.22-.94,1.38-.08,1.77-1.13l-6.92-1.14,3.68-.64c-2.65-.47-3.88-2.67-6.16-2.67-.33-.7-1.44-1-.84-2.4,1.38.47,3.24,2.13,4-.76.06-.21,1-.45,1.3-.3,3,1.27,5.86-2.09,8.8-.11,1.14-2.1,3.63,0,4.69-1.32,1.35-1.68,2-3.79.22-5.81-.52-.57-.51-1.31-.11-2.4,1.51,1.91,3.2.69,4.9.56,7.55-.53,10.37,1.46,13.92,9.64,0,.26-.05.52-.08.78a2,2,0,0,1-3.35.16,9.16,9.16,0,0,0-2.19-1.83c-.62-.34-1.26-.82-2-.25a1.32,1.32,0,0,0-.43,1.62c1.09,2.23,0,3.85-1.34,5.5s-1,3.79-.47,5.38c1.26,3.68.1,6.65-1.76,9.62-2.42.9-2.8,2.27-2.75,5,.09,4.15.93,8.26.42,12.56-.42,3.55.73,7.41.17,11.17-3.61.13-5.71-2.3-7.84-4.67a5.17,5.17,0,0,0-2.44-2.51c-1.09-.48-2.41-1.22-2-2.59.53-1.69,2.09-1.11,3.43-.88-.18-1.08-1.12-1.76-1.35-2.8-1-4.38-1-4.38-4.56-5.87a7.66,7.66,0,0,1-2.2-1.18c-.74-.63-1.52-1.39-1-2.43s1.54-1,2.52-.87a22,22,0,0,1,3.7,1.3c1.19.39,2.3,1.23,3.83,1-.53-2.64-.92-4.81-4.44-4.39C1055,160.74,1053.4,159.41,1052.58,157.61Z"/><path class="cls-49" d="M1014.51,164c0-.46,0-.93-.07-1.39,1.17-1.18,2.45-.8,3.48,0,1.91,1.54,4.09,2.71,5.81,4.5a2.94,2.94,0,0,1,1,1.08,1.57,1.57,0,0,1-.07,1c0,.43-2.15.39-.27,1.3.51.25.62,1,.67,1.6-.21,1.37.92,3.19.85,3.5-.69,3.26,3.18,3.85,3.38,6.37a2.91,2.91,0,0,1,0,1c-.18.83-.92,1.37-1.23,2.39,1.82-.57,3.33.23,4.86.82.87.34,1.54,1.16.75,1.94-2.56,2.49-.14,3.3,1.36,4.46a2.45,2.45,0,0,1,.53.78c0,.61-.44,1.5.78,1.54.73,1,.87,2.4,2.35,2.67,1.64.6,1.47,2,1.84,3.39.63,2.29.27,4-1.62,5.38,3.13,1,2.43,2.91,1.17,5a3.68,3.68,0,0,0-.74,2.57,2,2,0,0,1-1.58,2.22,4.3,4.3,0,0,1-5.2-1.14c-1.2-1.33-4-.08-4.59-2.64.79-4.31-.71-8.49-1-12.72a6,6,0,0,0-3.63-4.8c-3.24-1.28-3.45-2.33-1.14-4.88a2.72,2.72,0,0,0,.5-3.21c-.58-1.7-1.31-3.33-2-5-.19-.66-.54-1.26-.71-1.93-1.12-3.08-2-6.26-3.73-9.1A14.14,14.14,0,0,1,1014.51,164Z"/><path class="cls-26" d="M967.61,135.14c3.26-.94,6.38-.09,9.51.72,2.89-2,5.45-1.12,7.88.91,2.4,1.28,4-.3,5.72-1.62.87.7.33,1.4.09,2s-1,1.2-.17,1.82a1.52,1.52,0,0,0,1.3.14c.78-.35.69-1.09.58-1.84a5.84,5.84,0,0,1,3.36-6.72c.74-.38,1.42-1.14,2.21-.4a1.4,1.4,0,0,1-.14,2.19,3.62,3.62,0,0,0-.75,1.73c-2.87,8.15,2.35,9.59,7.94,10.3,0,1.43-2.63,1-2,2.78a19.66,19.66,0,0,0-2.24,2.32c-.77.8-2.24.42-2.7,2s-1.93,1.62-3.26,1.12c-1.59-.6-2-1.88-1.67-3.47.38-1.86,1.52-3.83-.7-5.34-3.49.44-7,.6-10.34,2-2.81,1.14-4.15-1-3.29-5-2.38.85-4.7,1.7-7.06,2.44a6.83,6.83,0,0,1-3.16.44c-1.63-.24-3.11-.9-3.5-2.62-.5-2.23,1.75-1.79,2.77-2.53.58-.42,1.34-.31,2-.53-2.43.76-4.78,1.31-6.82,3.32-3,2.93-6.54,2-8.39-1.55h0a1.21,1.21,0,0,1,1.2-1.68c2.85.2,4.35-1.56,5.73-3.6C963.85,133.27,965.74,134.13,967.61,135.14Z"/><path class="cls-50" d="M1023.23,168.29c-3.26-1.39-5.13-4.93-8.79-5.69q-3.24-7.17-6.49-14.34c0-2.81,1.55-3.1,3.88-2.38a59.93,59.93,0,0,0,8.08,1.48l-5.58.34,0,.24,4.29.39c.15.82-2.48.6-.86,2.17.43.41-.18,2.44,1.06,2.8,2.9.83,6,1.12,8.54,2.91,0,2-1.57.74-2.36,1-1.27.39-2.53-.57-3.64-.37,1.65.32,3.56.27,5.58.74-1,2.4-2.7.75-3.77,1.11,1.9-.16,2.69,1.36,2.8,2.85.1,1.33-1.3,1.3-2.41,1.18,1.2.77,2.7,1,3.59,2.24.63.84,1.63,1.65,1,2.81a2,2,0,0,1-2.83.62C1024.54,168.05,1023.92,167.8,1023.23,168.29Z"/><path class="cls-51" d="M1034.58,102.21a138.52,138.52,0,0,1,16,1.28c1.31.17,2.72.48,3.86-.27a4,4,0,0,1,4.36-.11c2.73,1.33,5.15-.24,7.53-1.17,1.5-.59,3-1.27,3.31.73.19,1.25.3,3.13-2,3.89-3.89,1.3-7.67,2-11.61.52a4.1,4.1,0,0,0-3.6.51c.72,2.11,3,1.74,4.23,2.89.59.56,1.55,1.06,1,2-.39.66-1.29.51-2,.34-3.64-.89-7.66-1.07-9.45-5.33a2.26,2.26,0,0,0-2.92-1.49c-4.27,1.7-6.62-.72-8.72-3.83Z"/><path class="cls-52" d="M985,136.77c-2.74.66-5.18-1.23-7.88-.91-1.58-2.64-.46-3.08,2.4-2.32-1.57-2.77-2.66-5.26,1.19-6.9,1.4-.59,1.92-1.43,2.64.7.89,2.63,3.1-.72,4.46.62-.2,2.22-2.86,4.54.34,6.7.42.29-.42,1-1,1C986.21,135.7,985.17,135.31,985,136.77Z"/><path class="cls-53" d="M967.61,135.14l-6.35.3a1.07,1.07,0,0,1-1.44-.16l.6-2.82c2.09-1.12,3-4.18,6-3.4.19-1.56-2.24-1.18-1.46-2.63a2.48,2.48,0,0,1,2.23-1.57,2.44,2.44,0,0,1,2.19,2.43c.14,1.22,2,2.92-1.31,3.49C965.36,131.23,967.17,133.58,967.61,135.14Z"/><path class="cls-54" d="M1010.33,158.43c1.93,1.74,1.32,5.15,4.13,6.32a27.55,27.55,0,0,1,2,5.42c-.17,1.74-.65,3.35-2.62,3.73-2.36.45-2.38-1.81-3.27-3-1.18-1.56.19-4.32-2.48-5.16,1.16-3.05-3.08-3.82-2.77-6.51C1006.64,156.66,1008.54,157.9,1010.33,158.43Z"/><path class="cls-55" d="M1010.33,158.43c-1.27,1.69-3.24-.76-4.54.77a1.65,1.65,0,0,1-.95.2c-2.84-1.49-1.47-4.73-2.85-6.83-.43-1.23-1.44-2.27-1.26-3.7-.24-1-1.58-2-.57-2.84,1.22-1.06,1.83,1,3,1.08C1006.51,150.26,1007.58,154.88,1010.33,158.43Z"/><path class="cls-56" d="M1016,170.49c0-2-2-3.55-1.5-5.74,0-.25,0-.51,0-.76a114.2,114.2,0,0,1,6.6,15.89c-1.69,1.22-2.09,1.24-3-.37C1016.55,176.72,1014.89,173.92,1016,170.49Z"/><path class="cls-13" d="M809.46,370.5l-.72,2.14c-1.55.78-2.33,2.69-4.26,2.92A21.18,21.18,0,0,1,809.46,370.5Z"/><path class="cls-10" d="M797.22,383.45c-1.26.61-2,2.12-3.63,2.11,1.45-1.71,2.75-3.6,5-4.32Z"/><path class="cls-57" d="M886.43,177.07l0-.67a1.56,1.56,0,0,1,.76-.78c9.82-.2,19.35,1,28,6a7.08,7.08,0,0,1,1,.23c2.32,1.5,4.67,0,7,.06a3,3,0,0,1,1,.24,6.55,6.55,0,0,0,4.25,1.64,11.42,11.42,0,0,1,7.25,3.42,11.73,11.73,0,0,1-4.19,8.3,2.68,2.68,0,0,1-3.25.69c-1.4-1.27-.63-2.55-.09-3.89,1.4-3.42,1.29-3.6-2.44-4.38a24.69,24.69,0,0,1-4.11-1.16c3,3.91,2.38,7.27-.06,10.49-1,1.3-.35,2.77-.5,4.16a42.44,42.44,0,0,0-.07,4.65c0,5.43-1.28,6.81-7.36,8.12-3-2.72-1.3-6.16,0-8.31,2.26-3.86,1.49-8.34,3.54-12.07a1.53,1.53,0,0,0-.07-1.38c-1.45-3.33-4.82-4.22-7.66-5.33-2.1-.83-4.2.91-5.84,2.6-3.37,3.51-3.88,8-4.67,12.5-1.34,7.71-1.84,15.49-2.54,23.26a2.8,2.8,0,0,1-.39,1.37c-4.49,6.44-2.93,14.33-5.12,21.32a5.5,5.5,0,0,0,.23,3.19c.63,2.07,1.28,4.15-.11,6.22-.43.65.34,1.05.57,1.57.87,2.15-.47,3-2.13,3.64-2.11.76-3.92.46-5.09-1.69-1.54-3.14-.17-6.29-.08-9.44.24-8.11.43-16.22.51-24.33,0-4.13.87-8.24.21-12.37a25.88,25.88,0,0,0-.74-2.71c2.38-1.69,3.66-3.31,2.07-6.68-1.4-3-1.62-6.55-2-9.9-.51-4.32-2.79-6.76-7.23-7.15,2.92-2.73,3.91-2.67,6.24.36,1.38,1.8,2.71,3.65,4.2,5.35,1.35,1.55,2.64,1.73,3.22-.7s2.34-3.28,4.62-2.58c2.59.8,4.28-.15,5.2-2.43,1.63-4.05,1-6.66-1.78-8.18a17.55,17.55,0,0,0-8.67-1.92C888.78,178.43,887.14,178.94,886.43,177.07Z"/><path class="cls-58" d="M874,315c-3.09-.64-3.42-3.67-5-5.68.17-.69,1-1.29.78-1.94-1.59-4.09.47-8.26-.37-12.35-.67-3.33,2.18-5.57,2.74-8.55.17-.86,1-1.63.84-2.65-.6-5.75,1.85-11.29.84-17.41-3.19.84-6.82,1.54-8.22-3.16.25-2.23.5-4.35-1-6.42-1.26-1.7,1.19-1.37,1.66-2.19-.15-2.15,1.09-4.28.05-6.44l2-.87c3.29-1.4,4.84-.59,4.68,2.81-.13,2.46,1.09,4.88-.11,7.57,1-.54,1.51-1.66,2.53-.77,1.38,2.24,1.05,5.37,3.88,6.93.72.4.56,2-.1,3-.22.27-.67.6-.62.82,1.12,5.59-.67,11.24.49,16.88.71,3.5.64,7.09-2.89,9.71-2.22,1.65-1.4,4.43-1,6.69s2.28,1.41,3.77,1.41c.68,0,.37.68.21,1.11-3.49,2.44-4.88,5.69-4,9.92A1.58,1.58,0,0,1,874,315Z"/><path class="cls-59" d="M865.63,263.29c2.92,4.26,7.07,1.28,10.23,1.45.31,6.74-2,12.95-.92,19.46.37,2.34-1.87,4.1-2.94,5.91-1.44,2.45-1.55,4.29-.52,6.6.37.85,1.32,2.24.55,2.58-3.88,1.74-1.35,4.57-1.44,6.94-.05,1.27.28,2.74-1.56,3.12-2-.22-2.83.6-2.78,2.63.07,2.5,0,5-.09,7.5-2-.92-1.06-2.85-1.46-4.33.06-1.54.11-3.09.18-4.64,0-1.1.21-2.61,1.22-2.79,5.92-1.06,1.56-4.59,1.49-6.81,0-1.41-1.28-3-1.72-4.59a3.07,3.07,0,0,1,1.23-3.76c2.26-1.41,2.72-3.36,3-5.94.76-6.37,1.39-12.43-3.31-17.84C865.74,267.54,866,265.15,865.63,263.29Z"/><path class="cls-60" d="M875,256.89c-1.52,1.3.06,3.88-2.32,5.14-1.27-3.67-1.2-7.49-1.06-11,.12-3.07-.6-3.81-3.26-3.63.24-.93.65-1.95-.93-2-3.49-.14-1.14-1.29-.38-2.17a4.64,4.64,0,0,1,5.65-.52c1.38.8,2.15.52,2.46-1.15s1-3.39.9-5.26c-.59-7.2-.22-14.38,0-21.59a59.06,59.06,0,0,0-1.4-13.83,7.81,7.81,0,0,1-.09-3.9c.51-1.71,1.4-3.28,3.44-3a3.18,3.18,0,0,1,3,3.48c-.37,3.65.87,6.76,2.56,9.81a9.93,9.93,0,0,1,.65,5.11l-2-1.59a5.93,5.93,0,0,1-.79-.61c-.33-.26-1-.9-1-.56A49,49,0,0,0,879,221.41c.12,2.46.55,4.8,0,7.33-.64,3,.37,6.06.86,9a21.19,21.19,0,0,1-2.4,14.4,6,6,0,0,0-.46,1.73C876.6,255,876.89,256.73,875,256.89Z"/><path class="cls-61" d="M883.53,207.22c-2-2.6-4.84-4.8-3.65-8.86.45-1.52-.13-3.48-2.13-3.41s-2.33,2.16-2,3.56c1,3.74.81,7.48,1,11.26.33,5.92-.6,11.77-.28,17.66.16,2.93-.15,5.94.45,8.77.65,3-.7,5.79-.49,8.78.1,1.4-2.3.51-3.15-.08a8,8,0,0,0-6.3-1.71,3.74,3.74,0,0,1,4.31-3.5c3.85.3,4.41-2.43,3.83-4.8-1.47-6,.34-11.84-.11-17.75-.12-1.5.05-3.06,0-4.61-.1-3-1-4.71-4.75-3.25,1.77-4.57.6-9.13,2.74-13.2,1.13-2.15,1.64-5,4.61-4.51s4.09,3.48,4.25,5.85A60.38,60.38,0,0,0,883.53,207.22Z"/><path class="cls-60" d="M866.32,248.24c.86,1,2.22.43,3.62,1.18-3.42.48-1.21,4.28-3.67,5.26-1.48-1.47.82-4.32-2-5.31C864.74,248.56,865.65,248.62,866.32,248.24Z"/><path class="cls-46" d="M862,307.94a7.19,7.19,0,0,1,2.81-4.33A4.26,4.26,0,0,1,862,307.94Z"/><path class="cls-62" d="M820.24,351.79a133,133,0,0,1-25.6,27.89c-6.88,5.6-13.94,10.9-22.35,14.07-4.1,1.55-8.19,2.78-12.43.46-3.65-5.19-2.35-10.81-1.09-16.25s3.72-10.26,5.5-15.33c3.51-10,10.14-17.4,16.66-25a65.53,65.53,0,0,1,14.54-13.18c4.2-2.65,5.9-2.21,7.23,2.48.17.59.3,1.26.88,1.48,5.76,2.17,8.63,7.79,13.4,11.18C822.46,343.47,822.78,345.56,820.24,351.79Z"/><path class="cls-6" d="M820.24,351.79c1.07-5.77-1-9.8-6.22-12.67a18.81,18.81,0,0,1-5.36-5.24,8.77,8.77,0,0,0-5.2-3.52c-2.07-.45-2.83-1.54-2.5-3.56.15-.9.89-2-.14-2.65-1.23-.82-2.22.24-3.24.82-6.2,3.53-11.28,8.41-16.14,13.53-6,6.26-11.27,13-14.88,20.91-4.07,8.91-7,18.17-7.4,28a47,47,0,0,0,.7,6.75,9.42,9.42,0,0,1-4.28-8.5c.26-7.62,1.7-14.93,6.71-21.08.68-.83,1.56-1.82,1.6-2.76.28-6.45,5.44-10.1,8.28-15.08,3.8-6.65,9.56-11.53,14.6-17,3.5-3.82,8-6.67,12.31-9.65s8.32-6.3,13-8.62c6.9-3.41,14.15-5.62,22-5,2.95.25,4.5,3,4,7.6-1.07,9.43-4.59,18-9.51,26.05C826.06,344.22,823.81,348.49,820.24,351.79Z"/><path class="cls-7" d="M1008.71,110.12c0-1.06-1.15-2.24.49-3.31.35,1.27,1.61,2.46-.5,3.31Z"/><path class="cls-63" d="M931,351.53c-.19-4,1.9-7.71,1.59-11.89a36.31,36.31,0,0,0-8.23-20.3c-4.25-5.34-8.86-10.41-15-13.83-.69-.38-1.46-.88-1.45-1.88,4.73.34,8.09,3.51,11.23,6.34,8.07,7.25,14.42,15.63,16.54,26.79,1,5.37,1.84,10.46-.29,15.64a2,2,0,0,0-.14.34C933.54,353.55,932,353.38,931,351.53Z"/><path class="cls-63" d="M908,303.64c-3.13,0-5.33-2.34-8.08-3.35-3.65-1.34-7.18-3-11.21-2.51,0-.94-.05-1.87-.08-2.8,3.08,2.41,7.26.71,10.46,2.85C902,299.8,906.29,299.75,908,303.64Z"/><path class="cls-64" d="M928.16,195.74a4.21,4.21,0,0,0,4.25-3.51c.46-2,2.36-3.2,2.92-5.15-3.11-3.37-7.44-3.48-11.5-4.32h-.71c-2.4.33-4.8,1.14-7.21,0h0c-2.43-1.8-2.22-4-.69-6.14A29.08,29.08,0,0,1,918,173c1.86-.88,3.59-.28,4.23,1.4,1.84,4.84,6.06,5.45,10.16,5.7,3.09.19,5.57.68,7.3,3.44a3.72,3.72,0,0,0,3.75,1.59,9.56,9.56,0,0,1,4.93,2.39c1.7,1.54,4,1.41,6,1.79a18.38,18.38,0,0,1,13.53,9.77c.56,2.72,2.32,5.08,2.38,8-.12,3,.19,5.92-.63,8.9a4.77,4.77,0,0,1-4.56,3.83c-2.36.27-3.8-1-4.62-3.18s-2.14-4.3-2.78-6.63c-.2-.7-.43-1.5-1.27-1.54-1.05-.05-1.41.85-1.57,1.68-.77,4.11-2.14,8.18-2.25,12.33a46.59,46.59,0,0,1-5.32,19.78,23.11,23.11,0,0,0-2.47,7.78c-.5,4.31-3.35,6.78-6.94,8.49-2,.93-3.31.3-3-2.21,2.71-3.87,3.89-8.45,5.59-12.75,2-5,4.5-9.75,5.39-15.15.43-2.61-.11-5.29.88-7.92-2.53.58-3.49,3.7-6.28,3.56a2.59,2.59,0,0,1-1.26-2.78c1.12-4.82,1-9.87,2.68-14.58a12.57,12.57,0,0,0,.48-3.53c.06-1-.48-1.75-1.51-1.5-2.63.62-4-1.18-5.44-2.72-2.19-2.29-3-2.3-5,.09a7.75,7.75,0,0,0-1.83,2.63,8.06,8.06,0,0,0-.82,1.82c-1,2.26-.26,4.73-.8,7.05-1.14,3.13-.67,6.42-.47,9.55a49.62,49.62,0,0,1-5.49,26c-2.34,4.6-3.65,8.91-2.33,13.93a2.2,2.2,0,0,1-.71,2.29c-2.09,1.73-4.63,2.77-6.73,4.5-.57.47-1.63.1-2.2-.69l-.88-1.28c-.2-1.45-1-2.82-.63-4.35a1.61,1.61,0,0,1,1.65-.37c0-.5,1.09,1.38.55-.25a6,6,0,0,1,.42-4.18c3.6-9.42,6.12-19.2,9.37-28.74,1.64-4.81,2.22-10.17,2.85-15.34a80.79,80.79,0,0,1,1.92-10.89C924.69,198.61,925.29,196.11,928.16,195.74Z"/><path class="cls-65" d="M928.16,195.74c-3.27,4.82-3.68,10.44-4.3,16-.59,5.19-2,10.24-2.79,15.39a46.26,46.26,0,0,1-3.29,10.07,44,44,0,0,0-3.6,12.54c-.22,2.14-1.71,4.14-2.61,6.22-1.15,2.64-2.08,5.19,2.9,4.8a11.57,11.57,0,0,1-7.08-.3c-.06-1.2-.12-2.41-.17-3.62-.64-2.89.47-5.62.81-8.42,1-8.59,2.11-17.18,2.86-25.8,1.22-2.87.21-6.47,2.85-8.89,1.37-.77,1.94-2.83,4.37-2.13.57.17,1.66-3,1.47-4.64-.34-2.83.8-5.71-.41-8.48-.41-.92.12-1.42.83-2.06,3.22-2.95,3.31-5.09.36-8.34-.85-.95-1.84-1.67-.57-2.93s2.08-.71,3,.35c1.08,1.22,2.66,1,4,1.13,4.38.52,5.26,2.19,3,6.08C929.3,193.69,928.23,194.43,928.16,195.74Z"/><path class="cls-66" d="M911.57,212.3a66.24,66.24,0,0,1,1.22-13.54,23.71,23.71,0,0,0,.16-5.71,3.08,3.08,0,0,0-3.2-2.82c-1.82,0-1.12,1.61-1.37,2.7-1,4.27.3,8.49.09,12.77-.46,9.19,1.16,18.43-.45,27.63a19.13,19.13,0,0,1-2,5.72c-2.59,4.75-2.76,10-4,15.09-1,4-1.62,9.11-5.87,10.89-1.83.76-5,1.46-7.55.42.37-3.08,3.14-3.67,5.25-4.57a5.68,5.68,0,0,0,3.46-4.05c2.57-7.89,2.62-16.61,6.45-23.93,4.2-8,0-14.48-1.88-21.51-5.06-3.84-2.26-9.1-2.48-13.81.63-3.87,2.9-6.83,5.71-9.22,3.11-2.65,4.28-2.2,9.92,1.34,2.27,1.43,1.72,3.78,1.47,6.35-.57,6.08-4.66,11.36-3.72,17.7.13.86-.06,1.77-1.37,1.32A2.12,2.12,0,0,1,911.57,212.3Z"/><path class="cls-67" d="M900.07,197.9c0,2.64,0,5.27,0,7.9.06,4.11.59,4.43,5.39,2-3.55,3.39-1,5.49-.32,8,1.36,5.43,3.92,10.59.37,16.75a29.11,29.11,0,0,0-3.47,10.93c-.6,5.49-2.39,10.87-3.94,16.22a3.31,3.31,0,0,1-3.77,2.6c-2.52-.3-3.57,2.56-5.77,3.11l-2.16,0a6.42,6.42,0,0,1-2-4.38c1.88,1.29,3.77.52,5.67.05,1.38-.34,1.09-1.22.69-2.14-.73-2.56,1.44-3.55,2.83-4.76a5.27,5.27,0,0,0,2.2-3.85c.31-5.65,2.52-10.9,3.55-16.39,1-5.31,2.47-10.76-.67-15.93-1.32-2.19-.81-4.61-1-7-.31-3.83.83-7.51,1-11.28C898.72,199.09,898.55,197.79,900.07,197.9Z"/><path class="cls-68" d="M911.57,212.3l.21,2.89c.6,2.39,1.62,4.78,0,7.16q-1.51,17.33-4.55,34.45c-1.15-1.64-.64-3.43-.42-5.18,1.75-13.53,3.87-27,2.92-40.77,0-.19.21-.39.36-.66C911.26,210.42,910.71,211.88,911.57,212.3Z"/><path class="cls-69" d="M931,351.53c1.46.3,3.07.06,4.29,1.21l.09,1.26c-.66,3.45-5.7,6.9-10.32,7.07Z"/><path class="cls-70" d="M874,315c-.16-1.41-.38-2.83-.49-4.25-.45-6-.44-6,5.65-7.29,2.1.87,4.68-1.55,6.52.9,1.42,1.89,0,4.47,1.47,6.38-.44,2.69-.82,5.39-1.35,8.06-.38,2-1.29,3.69-3.54,4s-3.85-.82-5.09-2.65C876,318.47,875.72,316.3,874,315Z"/><path class="cls-71" d="M882.13,210.09c0,.21,0,.43.06.65-1.77,2.58-.33,5.24.32,7.56,1.83,6.52.83,13,.73,19.56,0,.95-.45,1.91-.37,2.83.75,9.41-1.1,18.53-3,27.65l-.69-1.47c0-.81.14-2.17-.53-2.26-5.35-.68-3.49-4.68-3.71-7.72,1-.82-.45-2.15.64-2.95.45-.47.16-1.35.5-1.63,5.77-4.78,3.4-11.13,3.16-16.94s-.23-11.57,0-17.35a35.79,35.79,0,0,1,.72-7.38C880.38,209.26,881,208.69,882.13,210.09Z"/><path class="cls-72" d="M954.76,139.61c2.56,2.64,5.32,2.36,8,.27A13.88,13.88,0,0,1,973.09,137c-1.39,1.63-3.17,1.2-4.38,2-.86.56-3,.08-2.33,1.83a2.85,2.85,0,0,0,3.68,1.45c3.14-1.08,6.29-2.14,9.41-3.29.88-.33,1.85-1.17,2.5-.06.53.91-.56,1.57-1.22,1.89-1.82.87-1.17,2.26-.66,3.35.81,1.75,1.65.17,2.49-.2,3.27-1.46,6.8-1.13,10.24-1.39.45.32.68,1,.35,1.21-2.75,1.6-4.45,4.58-7.56,5.69a15.76,15.76,0,0,1-4.65-.82c.41,1.45,1.61,2.53,1.34,4.06-1.48,3.13-4.47,4.35-8.31,3-2.9-1.06-5.12-2-5.88,2.43a7.17,7.17,0,0,1-3.78,4.62c-1.81,1-3.13,2.73-6.16.63-2.54-1.77-7-1-9.94,1.56a6.48,6.48,0,0,1-7.94.69c-1.7-1-2.32-.11-3.34.53-2.67.68-5.12-.56-7.66-1-1.88-.29-1.67-2.24-2.06-3.9-5.21,4.18-10,.91-14.89-.14.55-2.8,4.16-5.29,8.48-5.37,1.66,0,2.77,0,3.11-1.9a2,2,0,0,1,1.7-1.66c4.67-.37,7.82-4.32,12.34-5.1,1.66-.29,2.75-1.78,3.82-3.06,1.42-2,3.65-1.44,5.46-1.36a3.84,3.84,0,0,0,3.91-2.21c.52-1,.92-1,1.71-.1C953.86,141.51,954.41,140.63,954.76,139.61Z"/><path class="cls-73" d="M912.34,161.07c1.6-1,4,1.26,5.33-1.4.17-.36.93.48,1.28.93,2,2.49,4,2,6.13.22.71-.59,1.26-1.55,2.41-1.12s2.65.27,3,1.56-1.73.78-2.34,2.28c3,.6,6,.65,8.62,1.9,3.84.68,8.22.05,10.63,4.27.13.22.26.44.5.45,3.91.23,6.33,3.15,9.27,5.12,3.14,5.05,7.91,8.9,10.53,14.37a17.36,17.36,0,0,0,2.24,4,4.11,4.11,0,0,1,.3,4c-1.08,1.26-2.25.76-3.43.18-3.21-4.18-6.39-8.38-9.34-12.75-2.13-2-3.75-4.4-6.15-6.08-13.1-7.19-26.87-12-42-12-1.74,0-3.66.33-4.85-1.53,1.82-1.69,4-1.18,6.1-1a11.08,11.08,0,0,0,4.12-.36c-3.83-2.56-7.7-3.17-12.14.62.64-3,3.43-3,3.39-5.06C908.4,158.57,910,161.69,912.34,161.07Z"/><path class="cls-74" d="M951.16,140.41c1.42,3.41.86,4.11-3,3.84-2.13-.15-4.27-.19-6.4-.27l-5.06-.31C941.65,140.48,946.71,141.78,951.16,140.41Z"/><path class="cls-72" d="M959.82,135.28l1.45.16c.48,1.64-.33,2.37-1.82,2.76s-3.13.94-4.69,1.42c-2.33-2.6.52-2.74,1.71-3.05S959.1,136.84,959.82,135.28Z"/><path class="cls-75" d="M961.33,251.19c-2.39,3.15-4,7-8.16,8.49A2.58,2.58,0,0,1,953,257c2.42-6.78,3.3-14,5.48-20.78,1.17-3.67,1.81-7.75,5.19-10.38,2.41-.18,4.53-.81,6.14-2.89a2.5,2.5,0,0,1,3.74-.6c.12,3.59,1,7.13.67,10.74C971.75,240.42,966.82,246,961.33,251.19Z"/><path class="cls-76" d="M975.68,247.67a15.7,15.7,0,0,0-.79-2.31c-.4-.77-1-1.57-.24-2.26,1.07-1,1.14,1.15,2.23,1,.09-2.31-1.91-4-1.28-6.25.25-.89,0-2,.46-2.76.74-1.42,2.15-2.67-.11-4a6,6,0,0,1,.4-1.27c.21-1.3-.31-2.6,0-3.91v0c.61-1.92-.68-3.69-.4-5.59.18-1.25-.24-2.72,1.47-3.26a3.14,3.14,0,0,1,3,.7,2.52,2.52,0,0,1,.42,3c-.93,1.66-.44,3.23,0,4.84-.08,2.66,1.63,2.67,3.54,2.39a2.49,2.49,0,0,1,2.3,1.65,1,1,0,0,1-.23.77c0,1.35.29,3.09-2.12,2.2a1.79,1.79,0,0,0-2.18.45c-.29.5,0,.82.36,1.1-.58-.41-.67-.86-.12-1.38,1.66-.8,3.07.4,4.61.56.94.79,2.32,1.09,2.79,2.43-.92,3.44-2.5,4.05-6.86,2.82,1.67,1.82,5.46-1.17,6.7,2.56a1.42,1.42,0,0,1-.37.92c-4.06,1-7.13,4.09-11.17,5.14C977.26,247.45,976.56,248,975.68,247.67Z"/><path class="cls-77" d="M975.68,247.67c1.41-1.35,2.33-3.39,5-2.76.7.17,2-.81,2.55-1.6,1.61-2.56,3.68-2.53,6.09-1.56a3.18,3.18,0,0,1,.21,4c-2.25,3.71-.56,6.16,2.1,8.52a2.24,2.24,0,0,1,.59,1.26c-1.25,1.6-1.22,4.42-4.19,4.36-.74-.77-1.47-1.45-1.13-2.76.66-2.53-.22-4.94-.86-8-2.4,5.12-5.35,8.23-11.12,4.13,1.46,2.74,4,2.32,5.45,3.79-2.4-1-5.88.16-6.86-3.66C975,251.72,974.75,249.47,975.68,247.67Z"/><path class="cls-78" d="M961.33,251.19c3.73-6.43,8.43-12.18,12.85-18.12.9,3.32-1,6.16-1.63,9.22-.92,4.82-3.67,9.28-2.77,14.44l-7.25,3.48c-3.24-1.17-3.56-2.6-.45-4.77a6.48,6.48,0,0,0,3.14-5.83C963.16,248.3,963.79,253.53,961.33,251.19Z"/><path class="cls-79" d="M977.11,217.72c-1,1.76-.35,3.54.06,5.26.29,1.22.51,2.27-.84,3-2-3.44-1-7.48-2.22-11.06-.39-1.13.19-2.74-1.47-3.32-2.25-.37-2.14-2.21-2.4-3.82a12,12,0,0,0-2.3-7.53c-.26-.42-.5-.86-.75-1.28-.31-.58-.69-1.15-.11-1.78.92,0,1.84,1,2.75,0,1.08-1.66,1.95-.83,2.66.29s.49,2.33,1.41,3.22a3.33,3.33,0,0,1,.52,1.35c0,2.44.58,4,3.68,3.22a4.19,4.19,0,0,1,4.77,1.58c.86,3.14-1.39,2-2.59,2.17.92.58,3.4-.8,3.14,2.05-1.5,1.38-3,.07-4.55.08a17,17,0,0,1-2.26-.92,8.08,8.08,0,0,0,.44,1.34c.22,1.63.52,3.24.75,4.87A1.76,1.76,0,0,1,977.11,217.72Z"/><path class="cls-80" d="M971.25,207.33c.47,1.41.93,2.83,1.39,4.24,0,3.61,1.38,7.1.87,10.75a2.91,2.91,0,0,0-2.47,1.24c-1.47,3-4,3.38-6.92,3.13-.82-1.62.19-2.78,1.18-3.74,4.57-4.43,5.06-9.81,3.88-15.63-.21-2.83-1.79-5.24-2.42-7.94,0-.68.23-1,.93-.66l.52.65A18.5,18.5,0,0,1,971.25,207.33Z"/><path class="cls-79" d="M976.34,225.9c1.37,1.3,1.47,2.61,0,3.91C975.53,228.51,975.2,227.21,976.34,225.9Z"/><path class="cls-81" d="M969.18,207.32c2.71,7.6.83,14-5.06,19.37-3.81,6.84-5.44,14.4-7.11,21.93-.86,3.85-1.53,7.74-3.84,11.06L951.85,261l-2.14-.63c-3-2.46-4.29-2.53-7.1-.4-3,2.31-5.27,2.25-8.63-.2-1.26-3.46-2.48-6.91.29-10.25,2.48,1.59,1.14,4,1.24,6l-.15.58c.1,1.11.12,2.58,1.77,1.34,3-2.24,6.5-4,6.27-8.74-.11-2.35,1.05-4.48,2.09-6.68,3-6.21,5.45-12.5,5.36-19.74-.06-4.6,1.65-9.25,2.7-13.84a2.88,2.88,0,0,1,3.13-2.43c1.52.13,2.22,1.31,2.34,2.75.28,3.07,2.59,5.36,3.13,8.35a1.88,1.88,0,0,0,2.51,1.43c1.6-.37,3.19-.65,3.82-2.7C969.34,213,968.9,210.16,969.18,207.32Z"/><path class="cls-82" d="M913.85,269l-.07-1.28a6.34,6.34,0,0,1,5.33-4.42c7.25-.93,10-5.35,11.07-11.83.23-1.43,0-3.55,2.65-3.05a2.86,2.86,0,0,1,.37,2c-.06,3.71-.7,7.47,1.11,11a1.53,1.53,0,0,1-.49,1.89c-2.8-.41-4.44,1.93-6.08,3.27-3.78,3.08-7.71,3.41-12.11,2.53A13.08,13.08,0,0,0,913.85,269Z"/><path class="cls-83" d="M933.82,263.29c-3.07-4.79-1.2-10-1.29-15.05-1.34-5,.63-9.84,1.05-14.75.24-2.93,1.49-5.73,1.2-8.76a4.57,4.57,0,0,1,.67-2c.42-1,1.1-2,2.31-1.86,1.37.15,1.37,1.42,1.48,2.47a24.47,24.47,0,0,1,0,2.84c0,.41,0,.82-.09,1.22-.85,4.24-1.89,8.45-1.89,12.82-.44,2.7-.42,5.5-1.55,8.08a2.16,2.16,0,0,1-1.23,1.25c-1.08,3.5-1.06,6.9.89,10.14.72,1.61,2.5,3.09.63,5C934.9,264.85,934.48,263.89,933.82,263.29Z"/><path class="cls-35" d="M936,264.7l-.63-5c2.47.44,4.78,1.4,6.83-1.54,1.52-2.17,4.31-1.46,6.64-.68,1.66.55,1.3,1.71.83,2.89-1.54.83-3,1.81-4.92,1.59-.53-.06-1.43.11-1.61.45C941.53,265.55,938.66,264.71,936,264.7Z"/><path class="cls-84" d="M1056.56,246c-2-2.11-3.85-2.92-6.58-.66-1.46,1.21-3.93.33-6,1-4.76,1.62-9.83,2.31-14.7,3.73-2.55.74-3.74,3.32-6.27,3.86-1.64.2-2.64-.22-2.07-2.15a1.49,1.49,0,0,1,.31-2.21,7.78,7.78,0,0,0,2.71-7.32,5,5,0,0,1,.82-2.71,11.55,11.55,0,0,0,2.06-7.78,7.61,7.61,0,0,1,0-1.78c.22-1.17.36-2.71,1.86-2.63,1.32.07,1.42,1.53,1.29,2.59-.56,4.43,2.77,8.41,1.11,13.17,1.37-2.27,3-1.85,4.87-1.7,1.28.1,4.25,1.83,3.7-2.15-.16-1.13,1.3-1.16,2.26-.81a9.53,9.53,0,0,0,3.84.71,9.6,9.6,0,0,1,3.81,1.53c4.51,1.4,7.89-1.41,11.53-3.14,1.58-.76,3.08-1.75,4.62-2.64a3.59,3.59,0,0,1,4,.08c1.26,1.46,2.3,3,1.51,5-.56.76-1.47,1-2.16,1.63C1064.5,242,1060.78,244.72,1056.56,246Z"/><path class="cls-84" d="M1019.5,251.83c-4.31,2.61-9.7,1.59-14,4.18-1,.56-2,.17-1.22-1.33-1.75-1.68-.23-4.16-1.48-6,.11-2.17.34-4.3,2.07-5.9.81-.64,1.35-1.58,2.3-2.06,1.89,1,.87-1,1.41-1.37,2.82-.56,3.39-4.5,6.63-4.45a12.08,12.08,0,0,1,7.12,2.84c.76.57,1.42,1.52.75,2.47s-1.69.54-2.49-.1a10.91,10.91,0,0,0-2.41-1.41c.34.84,3,.19,1.72,2.68-.25.46,1.26.22,1.85.71s1.42,1,1.45,1.91-.67,1.12-1.47,1c.05.09-.31-.36-.11.1.78,1.85,2.07,3.86-1.16,4.83C1019.7,250.19,1019.94,251.27,1019.5,251.83Z"/><path class="cls-85" d="M1007.36,240.9a3.51,3.51,0,0,1-1.6,2.48c-2.21-.65-1.12-2.51-1.41-3.86-.23-1.11-.58-2.07-1.93-2.16s-2.41.17-2.13,1.91a2.92,2.92,0,0,1-.22,1c-.53,1.7-2,3.46,1.26,4.32,1.45.38,1.44,2.24.33,3.28a5.17,5.17,0,0,1-5.36.91c-1.64-.54-1.79-2.07-1.83-3.55,0-1.19.33-2.36.29-3.73a7,7,0,0,0-2,2.91c-1.5,4-.86,4.38,3.22,4.75,2.46.23,4.72-1.73,7.12-.27-.34,3.65-1.91,5.09-5.8,5.27-1.61.74-3.54.32-5.07,1.36-4.76-1.43-6.22-4.48-4.42-9.07.6-1.52,1-3.11,1.52-4.67l0,0c.08-4.07,2.94-6.22,5.78-8.4,1.44-.77,2.88-1.28,3.49-3.24.69-2.21,2.43-2.42,4.24-.88C1008.81,232.33,1009.77,234.77,1007.36,240.9Z"/><path class="cls-86" d="M1019.5,251.83a2.37,2.37,0,0,1-.69-3.3c.87-1.48,1.81.53,2.86-.06-.33-1.54-2.44-1.18-2.9-2.57,1.07-.68,1.84,1.08,3.15.18l-4.64-2.91.24-.41,5.07,2.1c-1.54-2.34-4.15-2.24-5.11-4.15.63-.72,1.32.3,2.16-.18-1.11-1.64-3.23-1.75-4.29-3.53l6.73,3a12.53,12.53,0,0,0-6.86-4,.85.85,0,0,1-.22-.94c2-2.13,4.71-2.76,7.31-3.51,3.4-1,4.67.32,4.48,3.91a33,33,0,0,1-.89,4.16,11.17,11.17,0,0,0-.6,2.78,10.93,10.93,0,0,1-4.41,9.37Z"/><path class="cls-87" d="M997.3,254.13c1.92-1.75,4.33-3,5.8-5.2l.47-.08c3.72,1.54,0,3.93.66,5.83-.83.12-1.72.16-1.86,1.28s.51,3.36-1.91,2.58c-1.2-.39-4.06-.36-2.4-3.25C998.16,255.11,997.57,254.53,997.3,254.13Z"/><path class="cls-88" d="M904.46,165.5c17.31-.38,33.5,3.34,48.08,13-.16,2.1-2,1.48-3.17,2a3.76,3.76,0,0,1-2.76-.46c-3.26-2.6-7.23-2.74-11.05-3.42a7.39,7.39,0,0,1-4.11-2,6.8,6.8,0,0,0-4.45-2,4.7,4.7,0,0,1-1.1-.29,16.22,16.22,0,0,0-10.24-1.63c-3.88-.27-7.77-.67-11.42,1.2-3,.48-5.81,2.11-9,1.87-2.12-.71-2.39-1.71-.63-3.25a48.25,48.25,0,0,1,4-2.94C900.29,166.06,902.66,166.56,904.46,165.5Z"/><path class="cls-89" d="M898.65,167.6c-1.24,1.34-2.42,2.74-3.74,4-.66.64-.51.87.21,1.14-.13,2.33-2,2.44-3.64,3-1.47.46-3-.18-4.43.57a.82.82,0,0,0-.59.13c-.56-.11-1.21-.05-1.41-.79C889.57,172.92,893.29,168.86,898.65,167.6Z"/><path class="cls-90" d="M908.9,266.05c3.38-.71,5.54-3.55,8.53-4.94a1.22,1.22,0,0,0,0-.9c-3-1.14-.75-3.22-.84-4.84-.16-3.18.86-5.77,2.36-8.8,3.87-7.8,6.61-16.22,5.89-25.3A28,28,0,0,1,926,210.06c.47-.5.61-1.27,1.3-1.58a1.38,1.38,0,0,1,1,.17,11.14,11.14,0,0,0,5.35,9.42c1.15.75,1.34,2.53,1.34,4,0,4.61.08,9.24-.82,13.79q-1,4.89-1.69,9.84c-.28,1.94-1.17,3.65-3.39,3.34-3.87-.54-4.11,2.16-4.3,4.63s-.08,5-.83,7.43c-.29.95-.7,2.4-1.48,2.2-4.38-1.14-6.39,3.12-9.82,4a1.37,1.37,0,0,0-.3.19C911,267.54,909.52,267.77,908.9,266.05Z"/><path class="cls-91" d="M912.32,267.49c3-1.82,4.76-6.22,9.47-4.71.48.15,1.15-.48,1-.77-1.82-2.59,1.45-4.7.51-7.41-.73-2.09.15-4.47,1.65-6.37,1-1.29,1.86-2.52,3.66-.81,1.38,1.31,2.63.45,2.88-1.09,1.09-6.71,4.2-13.24,2-20.3-.3-1,.11-2.11.1-3.18,0-2.48-.37-5.17-3.2-5.75-3.48-.72-3.8-2.49-2.94-5.38.28-.94.9-2.05.06-3.08-1.71-2.76.25-5.12.81-7.63a24.38,24.38,0,0,1,1.87-2.62c1.64-2.32,3-2.38,4.76-.22,1.32,1.61,2.72,3.05,4.91,3.29s2.39,1.63,2.37,3.34a16.44,16.44,0,0,1-1,4.16c-1.4,5-1.34,10.18-1.35,15.32,0,1.12.15,2.22-1.42,2.34l-.24-5.09c-3.29,8.71-4,17.8-5.61,26.71-1.34,2.2-1.28,4.83-1.73,7.21-.93,4.95-3.72,7.8-8.39,8.26-3.52.34-5.57,3.09-8.63,4Z"/><path class="cls-92" d="M1062,181.33l7.12,5.06-.09,1.44c-1.26.68-1.22,1.38,0,2.1,1.32,5,3.33,9.95,3.46,15.27,0,1.1-1.11,2.52.46,3.13s3-.35,3.94-1.71c.4-.57.54-1.31.92-1.9a1,1,0,0,1,1-.17.87.87,0,0,1,.39.78c-1.32,3.77.58,1.83,2.28,1.54a23.16,23.16,0,0,1,9.14.51c1.44.33,1.63,1.63,1.82,2.8.23,1.37-1,1.51-1.83,1.76-3.22,1-6.39,1.35-9-1.75-1,4.44-1.19,4.59-4.9,2.25-1.29-.82-1.93-.52-2.58.58a.83.83,0,0,1-.94,0c-2.22-2.66-2.21-2.65-4,.06-1,1.47-2.12,2.81-3.18,4.21-1.89,2.49-3.47,2.56-6.25.61-.34-2.23-.22-4.51-2-6.39-1-1.06.34-2.11,1.26-3.17a4.82,4.82,0,0,1-3.65-2.94c-.06-3.39,1-4.15,3.92-2.8,1.83.85,3.26,2.29,4.84,3.19-5.31-4.12-11.62-6.56-18-8.81-1.55-.54-3.26-1-3.78-2.95a1.34,1.34,0,0,1,.4-.9c4.4-.61,8,1.41,11.52,3.62.67.42,1.37.89,1.88,1.25-1.72-.36-1.46-1.62-1-3-.13-1.66-3.4-1.7-2.36-3.45,1.15-1.91,3.61-1.2,5.58-1.15-3.84-.08-7.63-.91-11.53-.19-3.11.56-7.24-2.1-8.45-4.87-.58-1.33.31-2,1.25-1.91,2.55.35,4.94-.27,7.38-.68a1.54,1.54,0,0,1,1.36.34c1.23,1.39,2.18,1.85,3.5-.09.58-.85,2-.35,3,.13,1.58.73,3.32,1.18,4.53,2.59-.48-1.63-2.09-1.49-3.2-2.12-.84-.48-1.75-1-1.39-2.2a1.85,1.85,0,0,1,2.07-1.09C1058.57,180.48,1060.4,180.41,1062,181.33Z"/><path class="cls-93" d="M1071.3,157.61c-.17-.93-2.54-2,.23-2.74.74-.19.84-.81.3-1.36-1.87-1.93.26-2.42,1.12-3.29-.14-1.62-5.89-2.07-.87-4.68-.25-.38-.48-.78-.74-1.16-1.2-1.8-1.21-1.83.91-2.24,1.22-.24.29-.85.24-1.27-.2-1.68,1.11-1.28,2-1.42-.12-1.49-3.39-1.52-1.49-4,2.14-2.78,4.38-2.91,7.06.57a3.5,3.5,0,0,0,2.76,1.39c2.67,1.49,3.17,4.91,5.77,6.46-.14.57-.58,1.43-.36,1.66,1.92,2,2.72,3.63.23,6.18-.82.84,2,3.25,2.32,5.43.16,1.18,1.09,2.28-.56,2.91-1.26.5-2.58,2.59-4,.57s-3.51-.73-5.13-1.8c-1.14-.75.57,1.88-1.08,1.57-2.63-.9-5.61-.44-8-2.09Z"/><path class="cls-94" d="M1073.61,212.87c.17,0,.34.11.52.15.31,2.28-.12,4.75,1.68,6.69,1.42-.68.65-2.34,1.7-3,1,2.33,1,2.33-1.26,5.15,1.29.85,2.82.21,4.14.68s2.08,1.07.28,2c-1.07.87-2.44,1.52-2.29,3.25-1.44,2-2.41,4.24-4.25,6-1.51,1.43-3,2.18-5,1.56-4.82.8-8.25,4.69-12.85,5.87-2.35.6-4.68,3.38-7.34.57a4.25,4.25,0,0,1,2.58-2.35c6.24-2.25,11.31-6.52,17-9.8,2.28-1.32,2.53-3.91,3.4-6.36-1.95-.46-4-.28-5.85-1-2-1.37-1.91-2.86-.15-4.32,1.55-1.29,2.8-2.88,4.29-4.23C1071.15,212.73,1072.2,212,1073.61,212.87Z"/><path class="cls-95" d="M1077.69,227.34c-1.58-3.65,2-1.87,3-2.83l1.41.71-2.16,1.13c4.64,1,4.59.93,2.78,5.38-2.51,6.18-8.23,7.85-13.68,9.94a2,2,0,0,1,1.53-1.45c.92-1.34,1.59-2.83,3.2-3.63,2.64-1.31,4.24-3.29,3.51-6.5C1077.05,229.16,1077.92,228.32,1077.69,227.34Z"/><path class="cls-48" d="M1072,158.3a9.26,9.26,0,0,1,3.94.23c2.35.5,2.44.06,4.11,1.86l-.18,1.82C1077.26,160.86,1073.36,162.13,1072,158.3Z"/><path class="cls-96" d="M1092.12,213c.82,4-2.57,7-2.89,10.75-.08,1-1.77.85-2.84.72,1.59-2.31,1.65-5.34,3.7-7.48,1-1.07-.85-1.72-.9-3C1090.71,215,1091.4,214,1092.12,213Z"/><path class="cls-48" d="M1069,189.93a1.89,1.89,0,0,1-2.75-.71,2.07,2.07,0,0,1,.34-1.95c.92-.91,1.62.32,2.44.56Z"/><path class="cls-7" d="M1076.21,108.92c-.49,1.4-.76,2.92-2.74,2.44-.75-.18-1.37-.81-1-1.54C1073.3,108.22,1074.74,108.59,1076.21,108.92Z"/><path class="cls-7" d="M1076.68,114.23c2.18-.43,4.1-1,6.6.81Z"/><path class="cls-97" d="M1062,181.33c-2,2.15-4.3-.23-6.87.28,2.51,1.71,6.33,1.12,5.94,5.42-3.39.94-5.54-3.45-9.08-3.4a3.9,3.9,0,0,0,.31,3.3c-1.35-.93-4,.23-4.07-2.72,0-.56-.88-.78-1.48-.39-2.44,1.55-5,1.56-7.87.42.79,1.86,3.79.79,3.46,3.69-.08.65,2.72,1.67,4.49.93a9.26,9.26,0,0,1,8.27.41c2.2,1.18,5.2-2,6.8,1.6-2.59,1.33-5.66-.37-8.44,1.29,1,.48,2.27,1,3.46,1.59.38.18,1,.46.5,1-.26.27-.89.16-1.35.22-1.8,1.59-3.62.84-5.26-.16-2.61-1.6-5.45-1.2-8.25-1.28l-.11.07c-2.24,2.14-3.94.35-5.73-.78.17-1.11.16-1.78-1.4-2-2-.31-1.89-.66-.9-2.76.34-.72,0-1.28-.93-1.72a15.2,15.2,0,0,1-4.76-3.52,1.83,1.83,0,0,0,0-.7c1.32-1.23,1.32-1.23,3.82-.16-4-1.75-4.4-2.88-4.77-4.59-.41-1.94-3.09-2.89-3.39-5.21a4.72,4.72,0,0,0-.74-1.21c-1.74-1.52-.91-1.87.81-1.86,1.77-.81,3.4,1.07,5,.33-1.7.37-3.33-.44-5-1l-1.26-.12c.92-1.93,2.75.28,3.81-1-.56-2.62-4.54-2-4.84-5.24l2.58-.36c.29-1.14-4.47.47-1-2.56l-4.55-.22v-.56h6.21c-2.49-1.18-5.34-.06-8.59-2.28,2.83.43,4.67-.59,6.74.54a3.21,3.21,0,0,0,3.7-.4,3.75,3.75,0,0,1,1.14.68c1.35,1.73,2.26,3.62,4.44.37a4.31,4.31,0,0,1,6-.79c-1,.88-2.61.43-3.54,2.06,4.87-1.92,8.23,3.47,13,2.22-.47-1.48-2.34-.76-2.82-2,2-2.37,4.9.6,7-1.13,2.2.14,4.55,3,5.87,1.87,2.48-2.11,2.69.11,3.28,1.11s.1,2.54,1.63,3.08c-1.28.72-.62,3.77-3.31,2.78s-5.28-2-7.92-3l-.38.86,10.8,4.18c-1,1-1.84-.68-2.9.29,1.07.62,1.95,1.62,1,2.7-1.61,1.76,1.89,2.19.79,3.69,1.16.29,1.62.87.81,2s-1.47.12-2.21,0-1.38-1-2.57-.45C1058.77,178.54,1062.83,177.71,1062,181.33Z"/><path class="cls-7" d="M1032.49,137.61c1.85,0,3.82-.46,5.14,1.32Z"/><path class="cls-47" d="M1057.62,143.21a4.66,4.66,0,0,0,1.06-.12c.75-.27,1.16-1.74,2.3-.6a1,1,0,0,1-.06,1.58,2.82,2.82,0,0,1-2.84,1.14c-1.35-.32-.67-1.25-.46-2Z"/><path class="cls-47" d="M1057.62,143.21c-2.74-.91-2.74-.91-1-3.49,1.05,1,.87,2.29,1,3.49Z"/><path class="cls-98" d="M1025.9,239.64c-.06-1.62-.54-3.37-.1-4.84,1-3.22-1-2.62-2.57-2.13-2.69.81-5.17,2.27-8,2.67-2.77-1.51-2.28-3.45-.69-5.51,2.43-3.15,2.67-6.63,1.58-10.32a2.68,2.68,0,0,1,1.15-2.78c2.74-2.17,5.07-4.84,8-6.79,2.35-1.07,3.29.08,3.56,2.28.45.82,1,1.27,2,.77,1.36-.7,2.29-.92,2.74,1.16.62,2.82,2.69.19,4,.78,2.21,1.34,4.8,1.59,7.17,2.5,1.19.46,2.07-.72,2.87-1.67,2.71-3.22,5.75-3.2,8.77-.2,1.47,1.47.29,2.58-.23,3.83-3.06,4-5.62,8.46-10.66,10.4a4.63,4.63,0,0,1-.71.69c-.28.22-.77.39-.82.64-.08.48.28.07.36,0,1.47-.57,2.8.11,4.18.4,1.84,2.24,1.69,3.69-.94,4.27-3.1.68-3.06,2.33-2.31,4.63-2,.85-3.08-1.59-5-1.22,0,2.08,2.48,1.71,3.32,3.44-3.53-.32-6.94,2.47-10.54-.71,2.16,2.15-1.06,2.52-.83,3.92a2.31,2.31,0,0,1-2.44-2.13c-.23-1.88.51-5.08.26-5.45-2.09-3.15-.38-6.61-1.49-10.1C1027.31,232.17,1029,236.51,1025.9,239.64Z"/><path class="cls-99" d="M1055.39,218.57c1.38-2.46-.78-2.63-2.14-3.5-2-1.27-3-.55-4.23,1.26-2.6,4-9.36,3.07-11.46-1.4,1.48.13.59-.74.53-1.26.32-1,1.21-1.74.9-2.89,1.28-2.75,1.28-2.75-3.54-6.07,1.26-1.07,2.9,1.43,3.35.26.58-1.55,2.3-4.17-1.23-5.19l2-.14-1.43-1c0-3.11,2-3.62,4.27-2.94,3.29,1,6.46,2.34,9.7,3.48,2.27.8,2,3,2.57,4.7.33,1-1,1.12-1.8.83-1.77-.62-3.66-.88-5.38-1.59,2.81.69,5.47,2,8.46,1.93.61,1.13,1.79,1.49,2.82,2,2.6,1.41,2.74,1.6.19,3.34-.86.58-.69.67-.19,1,2.53,1.45,3.6,3.25,1.67,5.93C1059.48,220.42,1057.6,220.17,1055.39,218.57Z"/><path class="cls-100" d="M1016,170.49q1.77,4.5,3.52,9c.36.91.77,1.57,1.63.38.17.5.35,1,.52,1.49.58,4.66-.48,6.24-5.06,8-1.35.53-1.52,1.81-1.15,3.14.13,1.31-.71,1.82-1.78,2.13a7.22,7.22,0,0,1-4.52.73c-1.59-.22-2.84-.81-2.56-3,.38-2.91-1.12-5-3.94-6-1-.81-2-1.61-.46-2.83.48-.31,1.12-.38,1.4-1a26.55,26.55,0,0,1,.69-6.53c1-1.4,2.54-2.34,2.91-4.35s2.72-1.29,4.16-1.83c.33.08.87.07,1,.27C1013.76,173.18,1013.74,173.19,1016,170.49Z"/><path class="cls-101" d="M1014.53,192.78a2.3,2.3,0,0,1,.82-4.14c4.72-.17,4.78-3.41,5.18-6.64.08-.6.62-.62,1.1-.63a39.12,39.12,0,0,1,3.07,6.39c.79,2,.85,3.06-1.62,3.18a1.2,1.2,0,0,0-1.15,1.82c.13.28,1.19,1.72,1.88.55,1.53-2.63,1.67.14,2,.56,1,1.19-.09,3.83,2.81,3.77.58,0,.58,1,.27,1.51-1.22,2.11-.65,4.25.17,6.2,1,2.42.49,4.61-.26,6.87-.81-.82-1.17-2.54-2.92-1.47a4.08,4.08,0,0,1-1.64-1.3c-.91-1.6-2-2.51-4-1.35-.81.48-1.83,0-2.65-.52-.94-1.24-3.71-1.58-2.1-4.07,1.27-2,3.81-2,6.68-.17-.56-2.59,2.14-6.64-2.86-7.68a2.38,2.38,0,0,1-1-1c-.44-.85,0-1.82-.37-2.86C1016.81,192.09,1015.79,193,1014.53,192.78Z"/><path class="cls-102" d="M1056,205c-.1.07-.22.2-.3.18-3.67-.62-7.65,1.11-11.18-1.46.66-1,1.34-1.89,1.88-2.86a1.32,1.32,0,0,1,2.29-.11c.13,3.4,3.16,2.45,5.15,3.86.12-1.36-3.28-1.91-.53-3.06a8.35,8.35,0,0,0-1.71-1.19c-2.45-1-4.95-1.76-7.4-2.71-2.22-.86-4.43-2-6,.94-2.74,0-2.83-1.55-2-3.58-.16-.62-.76-.88-1.1-1.35a2.78,2.78,0,0,1-.5-.11c-.13-1.74,1-1.57,2.14-1.44,1.85.74,3.64,1.66,5.72,1.46,2.84,2.38,6.57,2.72,9.79,4.25,5,2.37,10.23,4.17,14,8.46.46.53,1.76,1,.82,1.9a1.67,1.67,0,0,1-2.48-.11c-1.86-1.65-4-3-6-4.51S1056.37,203.63,1056,205Z"/><path class="cls-103" d="M1036.75,192.12l-2.14,1.44-.65-.29c-4.84-1.9-4.94-2.41-.73-6.17-2.13.25-3.91-1.89-5.73.36-.43.53-1.11.21-1.57-.23a1.28,1.28,0,0,1-.17-1.63,5,5,0,0,1,3-2.82c3.63-1,4.68,3.42,7.71,3.66-.9.67-.37,2.78-2.41,2.46,1,.43,2,.84,3,1.29C1039.57,191.29,1036.58,191.42,1036.75,192.12Z"/><path class="cls-103" d="M1024.42,172.12c.51.73,3.55-.39,1.58,2.16,2.5-.41,2.43,3.2,4.81,3.27l-2.22.39,0,.23c2.87.37,3.13,4.76,7.5,3.73-3.13,1.86-5-1.77-7.28.18-1.71-.16-1.64-3.34-4-2.37.34-.89-1.49-2,.2-2.72.47-.21,1.53-.12.14-.65C1022.37,175.31,1022.86,173.81,1024.42,172.12Z"/><path class="cls-103" d="M1035.11,193.67c.54.18,1.09.35,1.62.54s1.06.22.7.84-.81.16-1.22,0a3.26,3.26,0,0,1-2.93-.24Z"/><path class="cls-50" d="M1024.49,168.41a9.88,9.88,0,0,1,4.91,1.08c-1.81.86-3.33-.12-4.91-.44C1024.5,168.84,1024.5,168.63,1024.49,168.41Z"/><path class="cls-98" d="M1039,210.78c2.59,1.87.11,2.15-.9,2.89C1037.45,212.41,1038.16,211.58,1039,210.78Z"/><path class="cls-104" d="M957.16,175.66c-1.81.48-3.88,1.46-3.64-1.94,0-.26-.27-.53-.42-.8-2.85,2.65-3.82-2.71-6.45-1.54-.45.2-1.38-.69-2-1,0-1.35,1.74-.22,1.56-1.76-3.5.08-6.43-1.72-9.48-3.17a21.36,21.36,0,0,1,1.15-3,2.09,2.09,0,0,1,1.47-.83c.79-.09.7.64.87,1.23.61,2.2,4.91,3.63,5.93,1.77,1.73-3.16,5.78-1.47,7.38-4.28a.69.69,0,0,1,.61,0c2.26,3.46,4.25.54,6.21-.52,1.21,1.85-1.7,2-1,3.5,3.94-.05,5.21-3.87,7.91-5.68.11-.07,0-.45,0-.67.26-1.28-1.46-3,.43-3.82s3.94-.28,5.81.72c2.44,1.3,6.43.56,7.85-1.37,1-1.4,2.48-1.12,3.86-1.25-1.67-1.26-.46-2.11.43-3,.62.17,1.25.2,1.32-.62.21-2.62,1.5-3.78,4.19-3.49.91.1,1.46-.66,1.58-1.59,2.57.15,3.63,3,2.14,6.11-.62,1.33-1.38,2.42.67,3,.87.24.87.3.87-1,0-2.71,2.72-1.28,4.23-1.77a7.36,7.36,0,0,1,2.18,2.88c-1.23,1.26-1.88,2.39-.88,4.34.46.9,1.35,3.76-1.74,3.38,1,.61,2.84-.53,3.65,1.27a1.27,1.27,0,0,1-.44,1c-1.56,1-3.29.38-4.94.53a10.6,10.6,0,0,1-3.8-.84c-2.17-.86-2.16-.84-1-2.82.12-.2-.2-.66-.31-1-.44-1.19-1.58-2-1.73-3.75-1.87,2,2.67,6.92-3.27,6-2.39-.82-4.93-.8-7.38-1.22-2.21-.38-3,.34-4,2.89-.18.49-.43,1-.86,1-4.3.37-7.46,4.55-12.26,3.51-1.8-.39-.21.47-.06.73.44.78-.13,1.3-.66,1.23-1.5-.18,0,1.22-.8,1.34.34.69.94,1.21,1.29,1.89a1.53,1.53,0,0,1,.68-.2,3.28,3.28,0,0,1,3.13,1.34,1,1,0,0,1-.41,1.51,2.48,2.48,0,0,1-3.28-.22c-1.36-1.31-3-.27-4-.66a10.15,10.15,0,0,1,4,.46C961.87,175.83,959.55,175.86,957.16,175.66Z"/><path class="cls-105" d="M988.6,159.06l2.12-.1c-.26-.81-.27-2-.81-2.35a1.72,1.72,0,0,1-.06-3.15c1.13-.63,2.82-1,3.44,1.28a4.71,4.71,0,0,0,.81,1.78c.35.39,1.31.74,1.26.88a4.54,4.54,0,0,1-2.43,2.09c1.84.34,3.64.42,4.94,1.83,2,.54,3.91,1.29,5.84-.09v-.84a1.57,1.57,0,0,1,1.41-1.37,3.57,3.57,0,0,1,.66.18c1.3,1.88,3.79,3.2,2.89,6.13-.87,3.13-2.83,2.13-4.75,1.25-1.14-.67-1.31-2.85-3-2.2,1-.26,1.47.62,1.82,1.64,1.71,1.23,3.6,6.74,2.68,8.38-1.34,2.36-3.19,1.35-4.94.43-2.15-2.84-5.62-1.24-8.27-2.42a2.64,2.64,0,0,0-1.06-.07c-1.59,0-3.36-.2-4-1.79s1.35-2.3,2-3.5,2-1.14,2.69-2c-1.94-.55-4-1.23-3.09-4.24,1.62-.91-1.19-.66-.36-1.36C988.5,159.34,988.55,159.2,988.6,159.06Z"/><path class="cls-106" d="M1003.84,166.06c1.71.43,3.38.52,4.84-.73,4.45,1.14,4.47,1.19,2.13,4.2,0,0,.1.18.19.24a1.09,1.09,0,0,0,.32.1c-2.32,1.37-3.31,3.92-5.09,5.78-.6.63-1.18.55-1.82.67-.89-.48-2-.16-2.84-.71-.83-.73-1.84-.18-2.33-.35.51.07,1.51-.33,2.35.36.58.62,1.9-.11,2.1.93s-.83,1.33-1.49,1.79c-2.07,1.44-9.32,1.24-11.29-.28-1.11-.86-1-1.13.45-1.94-1.59-1-2.77.49-4.13.62a4.6,4.6,0,0,1-4-1.07c-1-1-.53-1.92.31-2.77,1.89-2.49,4.17-2.28,6.61-1,3,.08,5.8.92,8.74,1.16a4.2,4.2,0,0,1,2,.91c1.11.21,2.57,1.45,3.23.35.53-.89-.14-2.53-.35-3.82-.18-1.06-3-1.75-.44-3.2l-1.86-.44C1001.84,165.35,1002.78,165.55,1003.84,166.06Z"/><path class="cls-54" d="M1005.13,159a2.33,2.33,0,0,1-1.41,1.37c-1.93.4-3.58-.7-5.39-1.22l3.12-.2c-.4-1.06-1.45-.35-1.88-1-.63-1,3.08.31.88-1.71a4.61,4.61,0,0,1-1-2.18c-.47-3.14,1.16-3.22,3.44-2.34.86.31,2.21.63,1.58,1.77C1003.31,155.64,1004.76,157.22,1005.13,159Z"/><path class="cls-107" d="M911.77,222.35c.86-2.38-.36-4.77,0-7.16.17-.44.55-.9.49-1.3-.88-6.23,2-11.83,2.94-17.74.78-4.69-1.8-8.22-6.56-8.3a2.83,2.83,0,0,0-2,.53c-2.45,3-5.73,5.43-6.59,9.52-1.39,7.31-3.29,14.66,1.36,21.57a5.93,5.93,0,0,1,.73,3.79c-.35,5.63-.85,11.23-2.57,16.68-1.17,3.72-2.57,7.41-2.08,11.51.21,1.71-1.19,2.93-2.63,4s-3.73,1.32-4.15,3.61c-1.32-.22-2.92.47-4-1.51,5.19-.07,4-2.7,2.85-5.91-1.4-3.74,1-7.4,1-11.21,0-2.71,1.72-5.27,1-8.16a3.36,3.36,0,0,1,1.28-3.21c2.21-2,2-4.55,2.32-7.17,1.21-9.23,1.81-18.59,4.27-27.62a10.76,10.76,0,0,1,4.64-6.59c4.16-2.58,12.83,0,15.07,4.43a2.19,2.19,0,0,1,.07,1.7c-2.8,5.09-3.28,11-5.59,16.22-.56,1.28-.79,2.5.14,3.7C912.54,216.46,914.28,219.89,911.77,222.35Z"/><path class="cls-38" d="M887.05,176.27l8.07-3.53,8.5-2.24c3.73-.39,7.44.06,11.15.24a3.27,3.27,0,0,1,3.29,2.69c.6,1.06.67,2.13-.42,2.83-2.61,1.68-2.68,3.94-1.73,6.52-2.32-.07-4.28-2.29-6.83-1.08a.83.83,0,0,1-1.14-.56c-.29-3.67-3.09-2.41-5.11-2.69Z"/><path class="cls-38" d="M923.83,182.76c5.15-1.74,9-.31,11.5,4.32C931.77,184.91,926.66,186.87,923.83,182.76Z"/><path class="cls-38" d="M915.91,182.78h7.21C920.72,183.25,918.32,185.3,915.91,182.78Z"/><path class="cls-108" d="M882.13,210.09c-2.28-.3-1.44,1.5-1.46,2.41-.2,8.23-1.24,16.42-.35,24.71a42.88,42.88,0,0,1,.25,8.86c-.24,2.23-.08,4.85-3.16,5.75-.74.22-1.21,1.39-1.8,2.12.08-.71-.09-1.62.29-2.09,4.5-5.61,2.59-11.85,2.43-18.14-.19-7.25-1.65-14.64.54-21.87a3,3,0,0,0,0-1.4c-.32-1.55-.92-3.49,1.39-3.63C882.3,206.69,882.05,208.68,882.13,210.09Z"/><path class="cls-109" d="M934.74,248.22a36.16,36.16,0,0,1,1.18-8.07c.8-3.47,1-7.07,2-10.49,1.13-1.85.6-4.38,2.42-5.94,2.51-3.05,5.38-5.5,10.41-6.3-5.18,4.69-2.31,10.64-4.47,15.5-3.27,7.34-6.14,14.87-9.15,22.32-.35.87-1,.84-1.76.88h0C934.4,253.54,935.48,250.81,934.74,248.22Z"/><path class="cls-110" d="M941.33,192.07c4.62,1.72,10.14-.87,14.75,2.44a2.1,2.1,0,0,0,1.38.28c1.92-.26,3.85-.5,3.57,2.37-.34,3.43-2.28,5.05-5.2,4.21-2.62-.75-4-.27-3.75,2.72a1.59,1.59,0,0,1-1.23,1.91c-1,.21-.85-.94-1.3-1.36-2.59-2.38-4.2-6.08-8.87-5.55-2.3.26-3.63-1.88-3.52-4.14S939.21,192.3,941.33,192.07Z"/><path class="cls-111" d="M918.06,173.43a12.37,12.37,0,0,0-7.23-1.44c-2.65.4-4.72-1.46-7.21-1.49,4-1.75,8.14-1.47,12.3-1.38a43.93,43.93,0,0,1,10.76,2.17h0l.31.19c1.23.71,3.6.17,3.57,2.15s-2.32,1.67-3.86,2.32c1.39,3,3.76,2.25,5.76,1.5a14,14,0,0,1,8.08-.49c2.8.58,3.37,1.46,1.87,3.78-.83,1.29-1.44,2.21.09,3.27.65.65,1.2,1.32.75,2.32-2.19.88-3.35-.69-4.44-2a7.9,7.9,0,0,0-6.16-3c-4.86-.26-9.42-1.14-11.57-6.43C920.6,173.69,919.34,173.38,918.06,173.43Z"/><path class="cls-112" d="M940.33,223.72c-1.15,1.79-.64,4.16-2.07,5.85a2,2,0,0,1-.12-2.28,1.32,1.32,0,0,1,.24-.67c.71-3.34,1.4-6.65.47-10.1-1-3.87,1.3-7.27,1.93-10.91.35-2,.19-3.11-2-3.65a6.16,6.16,0,0,1-3.9-2.33c-2-3.21-3.53-2.53-4.89.51a6,6,0,0,1-1.17,1.33.94.94,0,0,1-1.4,0c.16-1.66,1.48-2.7,2.31-3.95,1.57-2.36,4.22-2.13,6,.16,1.29,1.68,2.43,3.37,5.22,2.72,2.14-.49,3.07,1.4,2.57,3.19-1,3.57-.86,7.28-2,10.85C940.53,217.33,940.67,220.6,940.33,223.72Z"/><path class="cls-113" d="M967.69,198.72l-.93.66c-3.19-6.51-9.56-7.69-15.65-9.31-1.26-.34-2.64-.39-3.48-1.61,1.93-3.68,5.7-3.4,9-4.07.51-.1,1.13.22,1.69-.08,3.57,3.84,6.2,8.32,8.77,12.85C967.28,197.68,967.48,198.2,967.69,198.72Z"/><path class="cls-114" d="M958.31,184.31c-1.78,1.72-4.21,2-6.4,2.63a30.65,30.65,0,0,0-4.28,1.52l-4.37-2.12L941.78,185c-1-3.27,1.52-3.3,3.52-3.61,1.56-.23,3.41.24,3.7-2.12,1.19-.19,2.52.34,3.54-.7A21.34,21.34,0,0,1,958.31,184.31Z"/><path class="cls-90" d="M927.43,201.44l1.4,0-1.38,7.17-.06,0c-2.14-1.69-.8-3.79-.71-5.75Z"/><path class="cls-112" d="M926.68,202.93c.27,1.91-.51,3.95.71,5.75L926,210.06C925.73,207.64,925.61,205.22,926.68,202.93Z"/><path class="cls-115" d="M985.73,148.22c.19,3.06-.6,5.12-4.29,4.26-.44-2.42-3.07-3.19-4-5.48C980.46,145.67,982.94,148.17,985.73,148.22Z"/><path class="cls-116" d="M989.46,172.6c-2.38-2.15-3.5-.41-4.57,1.49-1.77-.88-3.16.44-4.76.5-.08,1.74,2.8,1.53,1.8,3.1-.86,1.35-2.4,0-3.34.28.46.28,1.35,0,2.13.29,1,.34,2.4-.26,2.8,1.08s-2.09.62-1.57,2c4.15,3.12,9.39,2.59,14.18,3.83,1.19.31,2.3.8,2.27,2.34a9.41,9.41,0,0,1-.64,1.62,3.37,3.37,0,0,0,.15.83c.49,2.51-1.18,2.59-2.79,2.26s-3.28-.37-4.93-.73c-.11,1.1.39,2.13.14,3.19-.63,1.29-2,1.79-2.9,1.08-2.3-1.89-5.56-1.82-7.62-4,.78-4.7,2.69-6.15,7.05-5.18,1.06.23,2.13,0,3,.31-2.7.12-5.39-1-8.37-.72-2.58.27-4.09.64-4,3.51a2.09,2.09,0,0,1-.88,1.5c-1.81,1.06-3.35.34-5.07-.94,1.43,3,0,4-2.57,4.19-3.41-5.56-6.72-11.21-11.6-15.64-1.34-1.22-.59-2-.25-3.07a7.24,7.24,0,0,1,5-2l-6.24-.34a23.21,23.21,0,0,1,10.94.2c-2.26-1.68-4.5-1.29-7.42-1.68l3.33-1-3.51-1.09c1.83-.51,2.13-2.37,4-2.26-.57-1.1-1.84,0-2.41-.88a18.71,18.71,0,0,1,8.46-2.44c1.48,0,2-1.18,2.76-1.92.33-.31.22-.89,1-.86,1.47,0,1.1-.46,2.93-2.08,1.41-1.25,2.92-3.61,5.82-2.25a46.31,46.31,0,0,0,6.79,2v0c-1.49,1.29,1.42,1,.71,1.94,1.46,1.82,2.26,4.49,5.5,4-3.07.55-4.5,2.83-6.1,4.91-.45.58-.44.75.51.89,2.8.43,5.55,1.19,8.42,1.13,1.47,0,3.3-.35,3.3,2.08l-2.42,0A17.55,17.55,0,0,0,989.46,172.6Z"/><path class="cls-117" d="M979.94,191.4c2.31.84,5.28-.08,6.84,2.92.47.9,2.09.89,3.18.05,1.23-2.88,3.25-3.34,5.07-1.09a6,6,0,0,1,1.57,4.79,6.82,6.82,0,0,1,.52,1.88c-1.15,4.3,2.1,5.13,5,6.27,2.36,2.16,0,2.74-1.28,3.41-1.55.81-3.5.36-5.07,1.31-2.88-.37-4.67-3.15-7.32-3.39,1.19.57,3.27.57,3.66,2.36.21,1-1.27,1.12-2.27.91-2.65-1-5.6-1.39-7.71-3.57-3-2-6.06.05-9.56-.14,1.53-1.64-.11-3.41.93-4.93.72-.51.68-1.09.15-1.71-2.34.61-1.65-1.67-2.36-2.59-.11-.13.27-.86-.38-1a2.83,2.83,0,0,0-1,.23c-.28-.92-.55-1.85-.83-2.77,2.4-2.24,2.2-3.76-1-5.31,3.19-.78,5.47,1.68,8.22,1.56C977.57,190.44,978.92,190.1,979.94,191.4Z"/><path class="cls-118" d="M990.05,210c.42-.21,2.5.28.63-.94s-4.12-1.77-6.09-3c3.79,1.21,7.76,1.85,11.23,4a2.31,2.31,0,0,0,1.31.46c5.46.35,6.26,1.94,3.6,7.05a8.6,8.6,0,0,0-1.1,2.82c0,2.92-1.73,3.56-4.14,3.49a6.3,6.3,0,0,1-3.88-2.16c2,2.22.68,5.53,2.69,7.85.73.84-1.08,1.48-2.15,1.45-1.43,0-2.63-1-4-1.23a7.24,7.24,0,0,1-3-1.4c-1.67-1-4.06-.52-5.17-2.59-3-2.45-.47-4.86.06-7.28-.27-.44,1.88-1.47-.32-1.42a3.32,3.32,0,0,1-2.57-.51c-1.07-1.6-2.33-3.18-.7-5.15.09-.14.19-.27.29-.41,3.63-.68,6.64.86,9.57,2.68,0,0,0,0,0,0-2.53-1.46-1.27-2.27.59-2.26,2.16,0,4.07,1.32,6.08,2.07a9,9,0,0,0,4.33,2.26c-.93-.49-2.46-.3-3-1.77-.91-1.86-4.11-1-4.38-3.61Z"/><path class="cls-77" d="M995.88,223c1.93-.4,2.52-1.54,1.71-3.31a2.59,2.59,0,0,0-.44-.51c2,.94,1.37-2.11,2.89-1.85a9.41,9.41,0,0,1,3-1.55c2.77,1.17,2.84,1.51.79,3.71-1.65,5.58-4.87,10.31-8.16,15a21.63,21.63,0,0,0-6.38,7.33c-.78-1.84-2.52-2.13-4.14-2.2-2.23-.11-4-1.3-6-2.3,3.59.74,7.3,2.94,10.22-1.13,1.18-2,1.86-4.41,4.44-5.35,1.09-.4.28-1.36.25-2.14C994,226.59,992.86,224.08,995.88,223Z"/><path class="cls-119" d="M995.88,223l.77.7c-3,1-1.25,3.6-1.32,5.25-.14,3.33-4,4.46-3.89,7.67l-2-.43-3-1.57c1.94-1.44.12-2.9,0-4.34h0c.39-.55,1.42-.52,1.34-1.49l6.72,1.48L990,227.62c1.36-1.05,3.86-1.6,1.06-3.82-.6-.48.34-2.39-1.63-2.55C991.92,220.92,993.75,222.51,995.88,223Z"/><path class="cls-77" d="M986.41,230.24c.74,1.36,2.51,1.25,3.63,2.66-1.7-.21-2.13,1.68-3.64,1.68a5.24,5.24,0,0,0-4.32-1.47l0,0c.29-.53-2-1-.13-1.41,1.13-.23,2.43.34,3.69.55.05-1.6-1.61-.84-2-1.9Z"/><path class="cls-120" d="M977.07,216.67c2.12-.23,4.26-3,6.32.32-1.48-.29-1.69,2.07-3.43,1.61l-2.85-.88C977.1,217.37,977.08,217,977.07,216.67Z"/><path class="cls-79" d="M979.9,225.88c2.06.3,4.13.57,5.68,2.18-.22.63-1.1.13-1.31.77-2,1.5-3.59.06-5-1C978.21,227.1,979.64,226.54,979.9,225.88Z"/><path class="cls-77" d="M984.27,228.83l-1.52-.62.07-.39,2.76.24c.48,1,1.54.17,2.17.7l2.21,2-3.55-.46A3.7,3.7,0,0,0,984.27,228.83Z"/><path class="cls-77" d="M982.08,233.11c.67,1,2.26.61,2.81,1.92a3.64,3.64,0,0,1-3.83-1.18c-.8-1,.68-.43,1-.72Z"/><path class="cls-118" d="M982.09,207.25c2.76.65,5.53,1.22,8,2.78l-.17.27c-1,1.33-2.73-.17-3.77,1a2.31,2.31,0,0,1-2.33-.11c-.1-.13-.19-.27-.28-.41-1.17-1.62-3.41-1-4.76-2.25C979.37,206.78,982.08,210.58,982.09,207.25Z"/><path class="cls-113" d="M971.25,207.33c-1-2.65-2-5.3-3-8C970.76,201.44,971.31,204.27,971.25,207.33Z"/><path class="cls-116" d="M973.61,200.47c.95-.72,1.75-.25,2.54.33-1.41.45-1.46,1.2-.5,2.18a2.37,2.37,0,0,1-2.19-.8Z"/><path class="cls-118" d="M976.37,211.52c-.79-.93-1.21-2.13-3.24-3.06,2.82-.27,4,1,5.41,1.6-.08.13-.15.26-.22.4-.59.46-1.48.38-2,1Z"/><path class="cls-118" d="M978.54,210.06l5,.72v0c.67.54,1.52,1.53.14,1.65-1.94.16-4.2.07-5.14-2.36Z"/><path class="cls-64" d="M934.74,248.22c1.17,2.56.33,5.27.61,7.9-1.41-2.05-.33-4.42-.83-6.58C934.59,249.1,934.67,248.66,934.74,248.22Z"/><path class="cls-91" d="M938.14,227.29l.12,2.28c-1.08,3.46-.82,7.22-2.34,10.58A44,44,0,0,1,938.14,227.29Z"/><path class="cls-121" d="M1044.7,229.5c0-.2.07-.4.11-.6,4.17-.09,8.44-1.5,12.41,1a66.27,66.27,0,0,1,7-2.77c0-.84-1.25-.89-1.42-1.7-.18-4.21.09-4.51,3.43-3.79,1.22.26,2.76-2.09,3.69.46.3-.12.81-.19.84-.37.25-1.12.77-1.91,2-1.2a2.34,2.34,0,0,1,1,2.83c-1.57,3.42-2.31,7.11-6.73,8.92-3,1.24-5.93,3.49-8.73,5.48a28.5,28.5,0,0,1-9.36,4l-3.67-1.28-3.64-2.12c-.07-1.36,4,.82,1.58-2.11,1.27.05.58-3.27,2.76-1.63,1.39,1.05,2-.47,2.79-.95s-.47-.73-.57-1.2C1047.11,231.34,1044.7,231.83,1044.7,229.5Z"/><path class="cls-122" d="M1077.69,227.34c2.6,3.56,1.67,7.77-2.26,10.11-1.61,1-3.25,1.85-4.88,2.77-.48-1.64-1-3.28-1.45-4.92C1072.89,233.65,1075.15,230.34,1077.69,227.34Z"/><path class="cls-123" d="M1003.57,248.85a1.09,1.09,0,0,1-.47.08c-1.07,0-2.16-.09-3,.78s-1.76,1.79-3.14.41c-.65-.64-1.6.06-2.23.62-.86.75-1.93,1.54-2.79.55s-1.9-1.74-1.6-3.6a16.63,16.63,0,0,1,4.7-9.06c.35-.38.61-.72,1.13-.47s.39.68.25,1.17c-.58,1.94.14,4-.52,6-.26.79-.14,2.7.57,2.38,1.62-.75,3.29,1.49,4.56-.31.43-.61,1.05-1.6-.26-2-3-.86-3.37-1.74-2-4.91a6.84,6.84,0,0,1,.57-.87l.91.38-.9-.39c-.73-2-.54-3.71,1.9-4,2-.25,3.9-.29,4.58,2.56.44,1.86-1,3.5-.08,5.24Z"/><path class="cls-124" d="M1016.53,219.39c1.12.45,1.4.73,1.46,2.4.13,3.53-.43,6.51-2.67,9.06-1.44,1.65-.35,3-.1,4.49a1.94,1.94,0,0,0,0,.68c-1.67-.68-2.2,1.21-2.35,1.71-.68,2.41-2.42,2.07-4.12,2.07-1.41-1.53-.48-3.46-.87-5.16.36-1.34,2-1.6,2.4-2.92a14.49,14.49,0,0,1,.43-2.35,6.61,6.61,0,0,0,.88-4c-.09-2.89.76-5.42,4-6.3A1.72,1.72,0,0,1,1016.53,219.39Z"/><path class="cls-125" d="M1011.58,229.89l-.06,2.18c-.06,1.7-3,.21-2.64,2.38-.62,1.77-.07,3.57-.13,5.35.27,1.67,2.23,2,2.91,3.94a14.49,14.49,0,0,1-4.3-2.84c0-1.31-.2-2.62-.11-3.92.21-3-.43-5.25-4-5.33-1.48,0-1.68-1-1.52-2.24-.33-2.61-.81-5.26,2.13-6.86.73-.19,1.76-.16,2,.39C1006.94,225.94,1009.65,227.58,1011.58,229.89Z"/><path class="cls-126" d="M1004.42,222.87c-2.37,1.58-.56,4.89-2.73,6.54-.69-.33-1.87-.38-1.83.22.23,3.14-2.4,3.57-4.19,4.82.24-3,2.05-5.35,3.36-7.83,1.18-2.22,2.89-4,2.3-6.84-.24-1.19,1-1.1,1.73-1.36C1006.25,219.07,1006,220.76,1004.42,222.87Z"/><path class="cls-127" d="M949,179.22c.62,1,2.81.31,2.51,1.91s-2.11,1.44-3.48,1.72c-2.15.44-5.14-1.45-6.25,2.1-2.08-1.55-4.22-3-.4-5.11,1.53-.84,1-1.62-.38-2.13-2.43-.89-4.63-.24-6.86.8-4.8,2.22-6.67,1.81-9.67-1.9-.43-.54-1.17-1-.8-1.82s1.21-.55,1.89-.64c1.36-.19,2.84.45,4.16-.57-.59-1.41-2.4-1.08-3-2.28.59,0,1.36-.13,1.73.17,5.49,4.52,13.06,3.68,18.86,7.37A5.42,5.42,0,0,0,949,179.22Z"/><path class="cls-127" d="M926.68,171.29l-10.76-2.17A18.16,18.16,0,0,1,926.68,171.29Z"/><path class="cls-128" d="M1066.21,221.61c-2.38.11-2.36,2.12-2.89,3.68-1.14,1.55-2.6,3.11-4.37,3.39-2,.32-.54,1.66-1.16,2.24-1.69,2.15-1.62,2.11-2.92-.48-.65-1.3-1.73-1.88-3.21-.91-2.42,1.58-4.68.77-6.85-.63,3.61-1.08,4.7-5.05,7.76-6.76,1.41-.79.58-3.4,2.82-3.57,1.53-1.1,3.82.77,5.11-1.29,1.37,1.12,3.16,1.63,3.92-.14,1-2.3,3.21-3.66,3.82-6.21.67-2.78,3-1.7,4.77-1.4,2.77.5.23,2.24.6,3.34-2.28.25-2.89,2.58-4.3,3.83-.92.8-1.48,2-2.9,2.42C1064.61,219.68,1065.86,220.74,1066.21,221.61Z"/><path class="cls-102" d="M1042.58,193.51c1.08-1.25,2.44,0,3.67-.34l-.79-1.69c3.82.73,6.85,3.27,10.63,3.47L1057,196c-3,1.48-.16,1.61.54,2.08a13,13,0,0,1,2.1,1.28C1053.74,198,1048.51,194.7,1042.58,193.51Z"/><path class="cls-129" d="M1029.63,217.18c2.37-1.79,4.69-1.15,7,.12,2.49,3.23,2.47,3.88-.27,6.5-.16,1.28.08,2.65-1.48,4.22,1.94-1.08,2.76-2.58,4.36-2.76l.49,0c2.27,2.43-.06,4.38-1.43,5-2.12.94-4,2.28-6,3.32s-2.82.43-2.78-1.78c0-1.77-.11-3.55-.17-5.33A17.42,17.42,0,0,1,1029.63,217.18Z"/><path class="cls-130" d="M1016.53,219.39a1.44,1.44,0,0,1-.58.13,1.38,1.38,0,0,1-1.72-.67c-.22-2.87,3.22-4.37,2.75-7.32-1.4-2-4-1.5-5.75-2.65-2.14-1.1-4.49-1.67-6.66-2.7a2.52,2.52,0,0,1-1.91-1.63c1.12-3.78,2.75-4.21,7.32-2,1.77.28,1.62,2.28,2.93,3.19,1.74,1.23,3.55-.16,5.11.81.53.2,1.08.62,1.59.58,5.06-.36,5.06-.38,6.29,3.58Z"/><path class="cls-131" d="M1035.33,223.05c3-1.34,1.86-3.61,1.3-5.75,3.18.44,3.74,4.17,6.84,5.25-2.83-.75-3.94.2-3.74,2.73l0,0C1037.49,226,1036.28,224.77,1035.33,223.05Z"/><path class="cls-132" d="M1019.78,222.69c3.09-.44,3.88-3.74,6.77-3.05.46,1-.63,1.27-.68,2-.3,4-.75,4.23-4.49,2Z"/><path class="cls-128" d="M1044.7,229.5l3.46,2.95c-2.59-1-5.92,1.84-8.14-1.9C1041.87,231.12,1043.05,229.56,1044.7,229.5Z"/><path class="cls-133" d="M1029.63,217.18a44.56,44.56,0,0,1-.25,9.31C1027.55,224.62,1027.7,219.25,1029.63,217.18Z"/><path class="cls-98" d="M1058.3,216.79l-3.71-2.32A3.58,3.58,0,0,1,1058.3,216.79Z"/><path class="cls-134" d="M997.87,187.72c-1.73-2.05-4.35-1.7-6.46-1.83-4-.24-7.24-2.1-10.63-3.77-.25-.12-.85-.47-.54-.51,1.32-.18.09-3.09,2.58-1.84-2.63-1.49-5.54-1.3-8-3.13,2.34-.2,4.06,1.51,6.68.84L978,176.12c1.11-4.94,4.1-3.2,6.94-2-.36,0-1,.06-1,.15-.18,1.5,1.26,1.3,1.78,1.16a14.31,14.31,0,0,1,7.73.39c-.5,1.15-1.79.14-2.45.82,2.74,1.81,5.93.51,8.74,1.63,1.42.57,1.59-2.05,3.16-1.57l-1.32-1.14,0,.05c1.07-.08,2.17-.29,2.95.74,1.76,2.24-.28,4.86.72,7.18a1.13,1.13,0,0,1-1.58.16,7.73,7.73,0,0,0-1.36-.73c.43.32,1.15.46.76,1.27-2,.53.31,1,0,1.44.19.9,1.92.87,1.39,2.11a2.1,2.1,0,0,1-2.38,1.1C1000.57,188.69,998.64,190.25,997.87,187.72Z"/><path class="cls-135" d="M997.87,187.72c2,1.16,3.76-1.19,5.51,0,1-1.16-2.6-.68-.4-2.08,1.08.48,2.75-1.07,3.35,1.41.5,2.11,3.76,3.65,1.28,6.54,1.63,1.29,3.54.5,5.44,0,1.68,1.8,4-1,5.68.8l.81.67c.75.55-.44,1.88,1,2.27a1.42,1.42,0,0,1,1.07,1.95c-.48,1-1.54,1-2.52.93-2.19-.18-4-1.63-6.13-2a3.77,3.77,0,0,0-3.41,1.18,2.37,2.37,0,0,1-2.61.79c-2.35-1.15-4.54-.11-6.79.17-1.9,0-3.33-1.35-5.08-1.76.72-1.74-.15-3.42-.87-4.7-1.4-2.5-2.84-.08-4.25.46-2-.86.27-3.48-1.75-4.55,2.66.46,5.31,1,8,1.35,2.22.29.38-.72.3-1.17,2.64-1.26,4.69.33,6.73,1.09-2.26-1.76-5.59-1.11-8.19-2.56C995.79,187.58,996.89,187.87,997.87,187.72Z"/><path class="cls-136" d="M1013.78,179c1.73-.67,3.37.42,3.08,1.86s-2.18,2.67-4,2.63-3.42-1.09-2.94-2.85A2.78,2.78,0,0,1,1013.78,179Z"/><path class="cls-137" d="M1018.73,194.36c-2.17,1.7-4,1.24-5.69-.8.59-.08,1.56.56,1.49-.78a3.86,3.86,0,0,1,.49-.5c1.49-1.1,2.61-3.94,4.88-2.14C1021.76,191.62,1018.67,192.78,1018.73,194.36Z"/><path class="cls-135" d="M1003,184.2a9.11,9.11,0,0,0-2.11-1.24c-1.19-.33-1-1.14-1-2a1.38,1.38,0,0,1,1.25-1.49c1.08-.09,1.25,1.17,1.29,1.73.14,1.84,1.45,1.95,2.72,2.26C1005.16,186.12,1003.83,184.45,1003,184.2Z"/><path class="cls-138" d="M1012.87,197.32c1.68-1.37,2.8.41,4.16.77s2.4.77,4.42,1.43c-1.5-1.72-4.61-2.26-1.91-4.49,1.43-1.14,1.58-1.18,1.93.17s1.39,1,2.23,1.16a1.92,1.92,0,0,1,1.85,1.77c.42,2.18-1.38.74-1.43.87-.77,1.9-1.23,3.87.24,5.89-1.47-.42-2.9-.82-4.33-1.25s-2.61-1.12-3.53.71,2,.86,1.52,2.24c-.46,0-1.21-.17-1.34,0-.74,1.22,1.57.52.93,1.73a31,31,0,0,1-4.85-1.21c-1.85-.66-2.59-2-3.29-3.56s.82-2.36.91-3.62A4.89,4.89,0,0,1,1012.87,197.32Z"/><path class="cls-138" d="M1025.93,201a3.54,3.54,0,0,1,.81,2.8c-.24,0-.52.09-.63,0C1025.28,203.09,1024.72,202.28,1025.93,201Z"/><path class="cls-54" d="M1003.71,161.23c.65.09,1.61-.16,1.59.85a1.32,1.32,0,0,1-1.76,1.2c-1.87-.75-4.18-.2-5.67-2Z"/><path class="cls-54" d="M1003.84,166.06c-.82.16-1.74,0-2.31.84a5.66,5.66,0,0,0-4-3.4c1.83.19,3.65.35,5.47.56C1004.39,164.23,1005.07,164.75,1003.84,166.06Z"/><path class="cls-104" d="M989.32,161c-1-.82-2.62-.22-3.63-1.73l2.92-.21c.7,1.43,2.73.47,3.44,2.09Z"/><path class="cls-105" d="M989.46,172.6c3.22-.77,6.31-.71,9.07,1.43Z"/><path class="cls-105" d="M1001.51,175.53c-1.85-.6-4,.79-5.62-1.14l5.57,1.19Z"/><path class="cls-134" d="M979.94,191.4a3.89,3.89,0,0,1-3.7-.78c.75-.81,0-1.53-.1-2.3-.24-3.14,1.14-4.23,4.25-3.61,4.31.85,8.62,1.63,13.42,2.54-2.32,1.18-4.14.35-5.64-.2-3.48-1.28-5.33.33-6.7,3C981.08,190.87,980.17,190.67,979.94,191.4Z"/><path class="cls-139" d="M995,188.53a22,22,0,0,1,9.82,2.72c-3.25.35-5.6-1.86-8.36-1.25A1.58,1.58,0,0,1,995,188.53Z"/><path class="cls-135" d="M991.73,188.64c-1.92.57-4,1-6.33-.95Z"/><path class="cls-140" d="M1011.5,207.78c2,.68,4,1.37,6,2,2.61.89-.53,1.11-.2,1.73-2.65,1.57-5.68,2-8.55,3-2.13,0-3.37,2.48-5.65,2l-3.07.78c1.81-2.12.12-2.92-1.73-3.6,1.21-.84,2.06.69,3-.34-1.15-2.11-4.51-.8-5.53-3.21,1.88-.58-.55-1.17.2-1.94,2.09,2.12,4-.29,6.07-.42,0,0,.09-.27,0-.3a3.82,3.82,0,0,0-.58-.37.7.7,0,0,1,0-.9c1.83-1.22,3.32.19,5,.61S1009.53,209.05,1011.5,207.78Z"/><path class="cls-141" d="M1001.53,206.47c0,.21,0,.42,0,.64-1.33-.47-2.69-.85-4-1.41-2.66-1.15-2.94-2.76-1.08-5.65l.5-.11c2.73.46,5.56.79,6,4.4l2,.81c.2,1.45-.76,1.16-1.56,1S1002,205.66,1001.53,206.47Z"/><path class="cls-116" d="M980.27,195c1.1.41,2.2.81,3.3,1.24.39.15.77.36,1.16.54a2.07,2.07,0,0,1-.58.32c-.73.16.24,2.13-1.59,1.31C981,197.76,981.41,196,980.27,195Z"/><path class="cls-116" d="M981.37,199.31l1.86.09c-2.22,2.14-2.22,2.14-6.26.33,1.6-.58,3.21,1.06,4.41-.42Z"/><path class="cls-141" d="M995.08,198.61c1.86-.57,3.53.19,5.22.76.44.34,1.27.34,1.23,1.07a.94.94,0,0,1-1,.77,10.26,10.26,0,0,1-4-1.19l0,0Z"/><path class="cls-116" d="M975.61,196.43c-1.25-1.14-3-1.22-4.32-2.48,1.73.43,3.72.46,5.11,1.39,1.64,1.1-.36.79-.77,1.1Z"/><path class="cls-116" d="M975.63,196.44c1.62,1.55,4.26,1.05,5.74,2.87h0a14.13,14.13,0,0,1-6.34-1.9c-1.91-1,.23-.7.57-1Z"/><path class="cls-142" d="M978.51,210.09c1.07,1.48,2.79,1.75,4.38,2.08,1.14.24.94-.65.62-1.37l2.91,0,.5-.1c2.42.33,4.7.94,6.12,3.18l-.15.5c-2.52.08-4.48-2.11-7.15-1.88.76,1.48,2.5,1.06,3.92,2.79-4.85-1.55-8.91-3.32-13.29-3.81C976.52,210.2,977.51,210.15,978.51,210.09Z"/><path class="cls-142" d="M986.42,210.83c.2-.46-1.68-1.1,0-1.3,1.11-.13,2.32.48,3.48.76,1.55,1.13,3.55,1.41,5.07,2.42,1.75,1.17-.2.77-.65,1l-.51,0c-2.58-.66-4.69-2.55-7.39-2.9Z"/><path class="cls-142" d="M994.3,213.68c1.05,1.4,3,1.34,4.67,2.75-2.56-.18-4.51-.5-6.08-2v0c.36-.5.61-1.23,1.47-.73Z"/><path class="cls-118" d="M1003.11,216.51c.35-.79,2.59-.33,1.45-2.39-.18-.33,2.62-1.24,4.24-.5,1.4-.74,2.15.23,2.29,1.27.29,2.08,1.86,2.85,3.28,3.84l1.58.79c-2.37,1.89-3.64,4.28-3.16,7.36.2,1.31-.52,2.12-1.21,3-3.32-.72-6.8-1.26-6.18-6,0-.27-.64-.63-1-1-.26-1.54.91-3.52-1.36-4.45.47-.31,1.28-.58,1.33-.95C1004.47,216.82,1003.69,216.65,1003.11,216.51Z"/><path class="cls-143" d="M1057.79,230.92c-.39-1.52-2.15-1.26-3.29-2.69,3.78.84,5.46-3.17,8.82-2.94.87,1.19,1.75-1.74,2.76.06a3.29,3.29,0,0,1,.17,3c-.64,1.32-2,0-2.72.29C1061.62,229.39,1059.84,230.48,1057.79,230.92Z"/><path class="cls-85" d="M999.36,239.59c.71-.35,1.61-1.15,2.2-.38.84,1.1.46,2.37-.48,3.59-1.45-.67-1-2.28-1.73-3.2Z"/><path class="cls-118" d="M1008.88,234.45c-.55-1-.69-2.15-2.16-3.23l4.8.85C1012.76,235.22,1009.17,233,1008.88,234.45Z"/><path class="cls-98" d="M1035.33,223.05l4.35,2.27c-1.61,2.82-3.72,4.82-7.44,4.44.34-2,1.79-3.19,3.19-4.28-.5-1.3-2.16-1.33-2.39-2.69C1033.89,222.09,1034.58,222.84,1035.33,223.05Z"/><path class="cls-144" d="M1014.37,218.73c-3,1.76-4.35.89-4.32-2.63,0-.74.35-2.28-1.25-2.48,2.69-1.29,5.22-3.23,8.51-2.07,2.51,1.22.9,2.77.13,4A23.27,23.27,0,0,1,1014.37,218.73Z"/><path class="cls-117" d="M996.45,200c1.12.23,2.22.55,3.35.68,1.7.2.88-.67.5-1.33,2.85-2.72,6.06.18,9-.6,1.61-.76,1.35.64,1.63,1.41.84.89.84.89-1.49,3.41-2.28-.72-4.63-2.15-6.49.75C1001.54,201.78,998.5,201.65,996.45,200Z"/><path class="cls-117" d="M1001.53,206.47l-1.7-1.24c1.82-1.07,3.48,1.4,5.15-.08l6.53,2.63c.51.62,1,1.25,1.86,2.26C1008.88,209.75,1005.57,206.77,1001.53,206.47Z"/><path class="cls-145" d="M1011,200.18l-1.62-1.41c.86-1.26,1.4-3.28,3.53-1.45C1012.78,198.64,1011.71,199.3,1011,200.18Z"/><path class="cls-146" d="M1005,193.28a7.64,7.64,0,0,1-5.3-1.71A10.07,10.07,0,0,1,1005,193.28Z"/><path class="cls-118" d="M994.35,213.71l-1.47.73c-1.81-1.84-4.49-2.12-6.48-3.62C989.4,210.81,991.84,212.36,994.35,213.71Z"/></g></g></svg>