<svg xmlns="http://www.w3.org/2000/svg" viewBox="0 0 1279.99 720.36"><defs><style>.cls-1{fill:#e95600;}.cls-2{fill:#b02f00;}.cls-3{fill:#bf3201;}.cls-4{fill:#8c1202;}.cls-5{fill:#120000;}.cls-6{fill:#be3200;}.cls-7{fill:#861901;}.cls-8{fill:#c93900;}.cls-9{fill:#a12301;}.cls-10{fill:#380601;}.cls-11{fill:#830b02;}.cls-12{fill:#6a1101;}.cls-13{fill:#921e01;}.cls-14{fill:#991002;}.cls-15{fill:#d66a39;}</style></defs><title>hero1</title><g id="Layer_2" data-name="Layer 2"><g id="Layer_1-2" data-name="Layer 1"><path class="cls-1" d="M.13,667.4Q.13,336.28,0,5.13C0,.52,1.25,0,5.36,0Q639.94.21,1274.49,0c4.82,0,5.39,1.32,5.39,5.62q-.2,209.81-.1,419.63a11.27,11.27,0,0,1-6.7,3.91c-9.21,2.22-18.52,4-27.69,6.49-10-.87-19.47,2.42-29.1,4.15-32.08,5.75-63.89,12.9-96,18.75-17.78,3.25-35.42,7.22-53.45,9-8.59-2.3-8.81-3-9.37-11.59-1.38-21.09-.85-42.22-1.74-63.33-.74-17.68-.46-35.43-.43-53.16,0-10.19-1.06-20.36-1.6-30.55.62-9.47,2.42-18.86,1.59-28.44-2-23.31-1.76-46.72-3-70.06,0-1.07-.16-2.15-.13-3.22.63-21.31-1.38-42.56-1.28-63.86,0-9.81-1.15-19.63-.86-29.49.13-4.15-1.4-5-8-5-11.51-1.58-23.21-1.23-34.66-3.42a12.56,12.56,0,0,0-8,.91c-24.93-1.42-49.87-2.47-74.83-3.4-3-.11-6.12-.33-8.66,1.85a27.27,27.27,0,0,0-3.61,13.15c0,8.76,0,17.51,0,26.26,0,3.89.4,7.83-1.07,11.12a1.59,1.59,0,0,1,1-1.66,2.39,2.39,0,0,1,1.73.62c1.85,2.33,1.54,5.12,1.49,7.75-.43,22.74.91,45.45,1.39,68.16.64,30.23.69,60.48,2.09,90.68,1,22.53.63,45.09,2.07,67.59.55,8.57.78,17.15,1.53,25.71-1.52,8.31.19,16.65-.17,25,1.16,8.53-.13,17.25,2.05,25.71-.31,4-.25,8.09-.35,12.14-.09,3.57.09,7.15,0,10.73-.09,2.66-.77,4.92-3.18,6.38-3.08,2.51-7.06,2.86-10.62,3.32-22.75,2.94-45.18,7.73-67.81,11.33-22.05,3.51-44.08,7.17-65.93,11.7q-48.12,10-96.44,18.87c-24,4.46-47.92,8.8-71.81,13.56-24.89,5-50,8.86-74.81,14-24.57,5.13-49.32,9.33-73.8,14.79-11.5,2.56-23.19,4.09-34.63,7-6.17,1.6-13,.9-19.24,2.77-24.33,7.25-49.59,10.23-74.2,16.2-13.22,3.2-26.73,4.55-40,7.53-30,6.77-60.53,10.92-90.65,17.07-15.57,3.17-31.29,5.43-46.86,8.59-3.2.65-5.66,3.25-9.09,2.85a178.86,178.86,0,0,0-36.31,6,123.07,123.07,0,0,1-22.08,4,49.39,49.39,0,0,0-9,1.39c-14.37,4.61-29.43,5.64-44.12,8.6-8.57,1.72-17.17,3.29-25.73,5C5,669.32,2.26,670.11.13,667.4Z"/><path class="cls-2" d="M77.63,653.4c6.33-2.6,13.2-2.73,19.76-4.25,15.56-3.62,31.1-7.31,47.08-8.56,9.06.58,17.64-2.3,26.36-3.89q36.82-6.69,73.63-13.46c36-6.61,71.92-14,107.88-20.88,40.8-7.86,81.28-17.31,122.16-24.75,18.59-3.38,37.12-7.05,55.67-10.61q25.16-4.83,50.3-9.88c13.08-2.63,26.28-5,39.42-7.34,24.32-4.42,48.58-9.25,72.87-13.87,21-4,42.2-7.47,63.12-11.93,17.49-3.73,35.1-6.66,52.66-9.84s35.32-6.38,53-9.46c19.13-3.34,38.28-6.62,57.27-10.68,4.07-2,8.41-1.9,12.84-2.28a62.75,62.75,0,0,0,17-3.39,2.87,2.87,0,0,0,2-2.79c.48-5.71,2.05-7.67,7.63-7.87,12.08-.44,23.33-5.58,35.41-5.84a6.76,6.76,0,0,0,4.31-2c.82-.74,1.84-1.6,2.84-1.34,8.18,2.07,15.17-3.29,23.06-3.52,6.44-.19,12.87-.36,19.31-.21a6.65,6.65,0,0,1,3.12.72,3.56,3.56,0,0,1,2,3.53c-.28,3.15-3.22,2.19-4.9,3.26,5.26-2.79,11.63-2.52,16.56-6.22a3.62,3.62,0,0,1,2.57.1c5,2.29,9.89.16,14.66-.61,19-3,38-6.79,56.92-10.52,23.78-4.68,47.58-9.23,71.31-14.19,12.06-2.51,24.12-5.07,36.31-6.92a8.2,8.2,0,0,0,3.56-1.07c11.44-2.74,22.71-6.26,34.47-7.58v32.29c-2.19,5.2-5.68,6-11.11,4.68a30.7,30.7,0,0,0-14.9.59c-7.06,2-14.29,1-21.29,2.49a7,7,0,0,1-4.26-.2c-9.68-4.47-20-2.71-30.07-3.06-1.44-.05-3.1.31-4.17-.65-6.89-6.14-14.11-4.84-21.82-.87,5.62,1.07,10.44,3.51,15.38,5.86,5.82,2.76,12.66,2.08,19,2.31,6.1.21,11.61,2,17.19,3.85,2.26.77,4.39,2,4.2,4.89s-2.48,3.76-4.76,4.4c-4.4,1.22-8.8,1.81-12.86-1.15-3.32-2.43-7.09-2.62-10.8-1.51-8.56,2.56-17.28,2.83-26.09,2.5-4.43-.16-8.55-1.86-13.24-1.43-6.19.57-11.74,3.13-17.73,4.18-2.71.47-4.7.36-6.9-1.44-3.38-2.77-7.84-2.58-10.53.68-2.28,2.78-4.82,3.4-8,2.92-7.42-1.13-15-.12-22.4-2.3-3.3-1-6.09.48-5.75,4.81a4.67,4.67,0,0,1-3,5.15c-3.95,1.58-3.27,4-1.4,6.82,4.11,6.2,3.58,7.59-2.7,11.13-4.5,2.54-8.6,5.8-14.23,3.22a3.2,3.2,0,0,0-3.06.7c-4.26,3.46-9.28,3.41-14.33,3.28-3.63-.1-7.09.27-10.36,2.18a9.42,9.42,0,0,1-7.86.36,11.61,11.61,0,0,0-6.23-.48c7.39.33,15.69,1.61,23.26,5.79,8.46,4.68,16.69,9.16,27.06,8.6,8.41-.45,16.46,3.17,24.78,4.56,12.68,2.12,25.56,3.76,37.69,8.23,12.57,4.62,26.36,3.61,38.67,8.57,10.31,4.15,21.24,4.65,31.77,7.33a24.4,24.4,0,0,1,5.47,2.18c2.47,1.31,4.16,3.19,3.05,6s-2.63,5.39-6.65,5c-12.35-1.35-24.72-1.67-36.8-5.9-6.51-2.28-14-2.39-21-4-1.57-.36-3.47-.29-4.63-1.24-8.82-7.24-18.92-1.74-28.31-3-1.9-.25-3.12.57-3.47,3-.72,5-2.56,6.06-7.42,4.44-12.06-4-25.07-3.2-37.08-7.58,6,3.82,12.79,5.89,19.17,8.79,7.42,3.36,7,5.28,1.33,10.67-6.43,6.08-13.5,5.66-21,4.68a12.6,12.6,0,0,0-6.18,1c-3.59,1.31-3.76,3.57-.82,6.24.27.24.55.46.81.71,2.06,1.92,4.9,3.51,3.9,7s-4.5,2.9-6.81,3.56c4-.22,7.92-2.29,12.06-3.39,2.39-.64,5.25-1.39,6.54,1.73,1.2,2.91-1.12,4.14-3.25,5.27-1.43.76-3.09,1.52-3.8,2.91-2.75,5.4-7.41,5.76-12.36,4.68-4.59-1-8.75.34-13,2,1.17,1.47,3.39,3,3.31,5.58-.08,2.77-2,4.27-4,5.91-2.45,2-.74,4.75-.19,7,.35,1.44,2.09,1,3.18.15,2.12-1.59,4.24-3.75,2.22-6.26-2.82-3.49-.72-7.23-1.35-10.79-.41-2.36,1.71-4,4.17-3.9,6.43.31,12.69,1,19.23-.65,4.2-1,6.13,3.34,7,7.21,1.11.44,1.61-.57,2.36-.91,5.39-2.44,9.49.08,9.07,6-.28,4.08.52,6.65,5,7.25a4.68,4.68,0,0,1,4.42,5.16c-.06,2.9-1.73,4.66-4.64,5a12.83,12.83,0,0,0-7.67,3.51c-2.28,2.16-1.64,3.65.88,4.9,3,1.46,6.27,1.44,9.36,2.35,5.69,1.68,10.93,4.47,16.41,6.66,4.69,1.86,9.35,3.72,14.33,4.48,5.91.91,8.23,5.43,10.09,10.1,1.3,3.29-2,6.4-5.55,5.67a14.28,14.28,0,0,1-3-1.27c-9.18-4.16-16.86-2.18-22.78,5.92-1.29,1.76-2.83,2.62-5.07,2.09-4.46-1.07-8.73-2.46-10.82-7-1.14-2.53-2.83-2.54-5.26-2.15-4.16.67-8.41,1.71-12.58-.13-2.86-1.27-5.48-2.58-6.2-6.19-.83-4.1-4.53-5.42-7.86-6.59-5.3-1.87-10.36-3.9-13.53-8.91-1.1-1.73-2.4-1.21-3.66-.31-3.8,2.7-7,2-9.78-1.6-1.1-1.4-2.32-2.9-4.45-2.32a2,2,0,0,0-1.31,2.13c0,2.05,1.35,3.2,3.08,4,4.72,2.23,8.63,6.7,14.75,5.05,1.21-.32,2.26.91,3.24,1.7,5.76,4.68,12.39,7.4,19.31,10.09,5.4,2.1,11,3.81,16.35,6.33,5.94,2.82,12.61,3.83,18.89,5.86,3.31,1.08,5.88,2.37,7.22,6.23,1.75,5.05,6.36,7.69,11.34,9a125.92,125.92,0,0,0,23.2,4.37c5.65.41,8,4.16,6.52,10.06q-574.44,0-1148.88.1c-4,0-5-.9-5-5,.29-14.52.11-29,.11-43.58,3.91-3.62,9.11-3,13.77-4.09,16.81-3.8,33.9-6.22,50.71-10C69,656.64,73.62,655.82,77.63,653.4Z"/><path class="cls-3" d="M1153.86,720.14c-2.06-5.36-5.62-7.2-11.63-8-9.54-1.33-19.88-1.47-27.79-8.59-1.06-1-2.76-1.8-3-3-1.71-7.43-7.85-8.94-13.76-9.79-7.62-1.1-14.26-4.59-21.07-7.54-6.37-2.75-13.55-3.23-19.39-7.45-2-1.43-4.42-2.26-6.22-4.1-.85-.87-2.2-2.25-3-2-7.24,1.85-11.83-4.2-17.88-5.84-4.27-1.16-3.63-5.88-4.38-9.11-.56-2.43,2.54-3.14,4.5-3.77,3.26-1,4.87,1.57,6.58,3.58,4.18,4.92,4.48,5,8.51-.14a3.57,3.57,0,0,1,3.63-1.68c1.51.24,3.29,1,3.07,2.48-1.07,7.37,5.5,7.8,9.42,9.64,3.65,1.71,7.1,4.18,11.25,4.93,2.17.39,2.27,2,1.47,3.72-1.32,2.91.19,4.62,2.72,5.29,4.56,1.2,9.19,1.48,13.41-1.28,3.86-2.51,5.47-2,6.44,2.78a8.32,8.32,0,0,0,4.92,6.52c3.43,1.58,6.54,2.77,7.41-2.73a3.47,3.47,0,0,1,1.93-2.39c7.5-2,14.72-7.63,22.93-1.94,1.34.93,3.1,2.81,4.76,1.28,2-1.84-.34-3.53-1.07-5.21a8.51,8.51,0,0,0-7-5.16c-8.23-1.33-15.63-5.09-23.2-8.31a44.21,44.21,0,0,0-11.22-3.57,30.51,30.51,0,0,1-11-4c-2.65-1.52-4-3.68.11-5.17,4.65-1.71,7.19-7.82,13.43-6.3.95.23,1.84-1.05,1.79-2.27a2.05,2.05,0,0,0-1.54-2c-1.38-.34-2.82-.42-4.21-.7-3.84-.77-5.63-2.91-4.53-6.93a17.4,17.4,0,0,0,.89-3.62,3.15,3.15,0,0,0-2.78-3.43c-2-.38-2.33,1-2.44,2.63-.17,2.68-1.46,4.34-4.16,2.89-2.11-1.13-5.66-1.95-4-5.69.74-1.63,1.43-2.82-.1-4.25s-2.89-1.05-4.43-.2c-4.3,2.36-8.77-.95-13.13.35-1.79.54-5-1.37-5.28.69-.36,2.86-2.21,6.25.55,9.1a20.87,20.87,0,0,1,2.22,3c1.59,2.39,1.57,4.34-1.5,5.5a5.79,5.79,0,0,0-2.24,1.38c-1.06,1.18-.28,4-3,3.65a18,18,0,0,1-7.94-3.14c-1.29-.87-1.45-2-.25-3.12.79-.74,1.91-1.56,1-2.68-3.59-4.48-.79-5.8,3.14-6.71,3.49-.81,3.27-2.72,1.39-5a9.87,9.87,0,0,0-4.51-2.79c-1.82-.68-4.34-1.59-3.59-3.86s3.56-1.59,5.25-1.06c7,2.18,14.06-2.21,21,.5,1.14.45,2.59-.45,3.19-1.6,2.12-4.06,5.71-6.27,10-7.73-.15-.46-.31-.93-.47-1.4-5,1.16-9.93,2.23-14.86,3.5-2.25.58-4.39,1.56-6.59,2.33-1.61.56-3.37.9-4.11-1.1s.8-3,2.31-3.68a19.36,19.36,0,0,1,7.25-1.88c1.42-.09,3.1-.06,3.7-1.64.71-1.88-.94-2.89-2-4-2.31-2.42-5.78-2.83-8.33-4.83-.85-.66-1.88-1.28-1.52-2.56.29-1,1.39-.89,2.19-1.23,8.35-3.63,17.21-3.79,26.08-4.2,4.8-.22,6.66-5.43,10.87-7.14,1.75-.72-.74-2.16-1.9-2.64-6.44-2.69-12.9-5.35-19.4-7.88a19,19,0,0,1-6.55-3.59c-.94-.9-3-1.33-2.16-3.17.71-1.5,2.5-1.13,3.9-1.13,6.17,0,12,2.22,17.75,3.82,8.43,2.37,17.65.5,25.49,5.25a2.15,2.15,0,0,0,2.54-.23c0-.33.21-.72.09-1-.82-1.85-4.12-2.74-2.8-5.24s4.17-1.4,6.41-1.58c7.22-.59,14.71,1.57,21.58-2.48,1.79-1,3.54.1,4.64,1.69,2.37,3.43,6,4.19,9.72,5,12.49,2.88,25.47,3.61,37.5,8.52a8.59,8.59,0,0,0,4.19.66,36.69,36.69,0,0,1,14.94.51c2.53.68,4.3-.32,5-2.73s-1.51-3.05-3-3.62c-3.18-1.17-6.53-2.93-9.75-2.82-10,.34-19-3.64-28-6.71-6.77-2.28-13.75-2.33-20.57-3.66-12.14-2.37-23.57-7.54-35.86-9-17-2.06-33.38-8.23-50.79-8.1-6.89.05-12.13-4.87-18-7.72-8.34-4.08-16.62-7.31-26.09-5.24-.7.15-1.42.23-2.12.35-1.82.32-3.91.65-4.62-1.5-.89-2.66,1.64-3.26,3.32-4,3.94-1.74,8.1-1.38,12.17-.67,3.12.54,5.93.62,8.73-1.27,3.37-2.27,7.33-1.33,11-1.29,4.83.06,9.33-.33,12.71-4.35.69-.81,2.09-1.93,2.72-1.31,5,5,8.94-.17,13.21-1.36,4.87-1.36,5.35-3.13,2.31-7.09a42.89,42.89,0,0,1-2.52-3.49c-2.55-4.16-1.77-6,3-7.15,1.64-.4,3.61.18,2.69-3.05-1.34-4.72,3.28-9.76,7.88-8.05,8.35,3.09,17.07,1.36,25.43,3.23.79.17,1.61.47,2.18-.78,2.75-6,13-7.31,17.44-2.12,1.23,1.44,2.11.58,3.26.46,5-.52,9.47-3.11,14.51-3.81,6-.83,11.6.08,17.46.91,8.17,1.14,16.39,0,24.45-2.17,5.07-1.38,10.05-1.6,14.75,2.21,3.16,2.56,7.2,1.25,10.83,0,.84-.29,1.79-.64,1.82-1.7s-.94-1.52-1.77-1.76c-5-1.47-9.67-3.84-15-3.9-2.86,0-5.78-.81-8.56-.43-10.29,1.41-18.07-6-27.48-7.49-2.29-.37-4.61-.64-6.89-1.07-1.06-.19-2.21-.66-2.18-2,0-.58.61-1.61,1-1.66,8.8-1.13,17.2-7.93,26.33-2.91,3.38,1.85,6.34,3.61,10.25,3.44,5-.21,10-.32,14.92-.44,1.24,0,2.71-.34,3.69.19,10.69,5.78,21.47,2.27,32.41,1,6.59-.74,13.42-2.62,20.15-.13,3.06,1.13,4.74-2.16,7.37-2.54V653.41c-.88,1-2.35,2.12-3.21,1.29-5.25-5.05-13-2.43-18.59-6.43-.85-.61-1.84-1.06-2.45-1.51,3.5,1.36,2.91,4.55,2.6,7.87,6-1.14,11.74.69,17.57.86a5.48,5.48,0,0,1,4.08,2.23v6.46a1.26,1.26,0,0,0,0,2.15v38.74c-2.77,2.15-2.71,4.31,0,6.46a23.72,23.72,0,0,0,0,4.3c.69,3.7-.67,5.12-4.35,4.31a3.88,3.88,0,0,0-3.16-1.64c-6.21.32-11.69-2-17-4.64-6.85-3.43-14.69-3-21.67-6-4.6-1.95-9.31-3.7-14-5.51a74.59,74.59,0,0,0-23.36-5.18c-8-.36-15.92-2.61-24-.65-1,.24-2.11-.26-4.35-.86,12.3,7.53,24.91,11.59,36.48,17.79,2.94,1.59,6.39.41,9.54,1s6.9.67,5.5,5.68H1192.6c-3.14-1.63-5.44-4.64-9.15-5.77-1.12,1.89.77,4.49-1.61,5.77Z"/><path class="cls-2" d="M1219.51,720.14c-1.49-2-3.68-3.53-6-3-7.48,1.69-13.22-2.42-19.15-5.45-8.42-4.3-17.62-6.92-25.65-12-.45-.28-1.09-.31-1.47-.64-2.36-2.1-6.28-4.75-5.11-7.31s4.57.69,7,1.35c1.2.32,2.6,1.09,3.62.76,8-2.55,15.94.15,23.76.78,9.28.74,18.6,2.53,27.36,6.6,7.59,3.53,15.49,6.68,24.07,7.22,3,.19,5.4,1.86,8.08,2.85,5.34,2,10.31,5,16.12,5.72a4,4,0,0,1,3.3,3.17Z"/><path class="cls-2" d="M1279.78,657.72h-29.54c2.24-3.64,6.23-3.73,5.48-7.31-.64-3.1-3.15-4.08-5.58-5.27-1.12-.54-3.36-.77-2.17-2.73.8-1.32,3-1.13,3.89-.18,3.1,3.54,7.62,3.61,11.49,5.27,3.11,1.33,6,2.18,8.92-.51a3.24,3.24,0,0,1,4.45-.12c1.57,1.35-.59,2-.83,3-.79,3.34,1.9,3.1,3.89,3.53Z"/><path class="cls-4" d="M77.63,653.4c1.08.42,2.5-.4,3.63,1.22C68.5,657,56.49,661.5,43.75,663.31c-9,1.27-17.77,4-26.7,5.76-5.59,1.13-11.27,1.78-16.92,2.64V667.4c9.6.08,18.63-3.36,28-4.6,10.64-1.42,21.18-3.56,31.8-5.19C66,656.68,71.48,653.73,77.63,653.4Z"/><path class="cls-2" d="M1181.84,720.14a14.37,14.37,0,0,0-3.2-5.51c-.84-1-2.92-1.64-1.74-3.34.86-1.25,2.65-.89,4-.73,6,.64,9.78,4,11.66,9.58Z"/><path class="cls-2" d="M1279.78,711.53l-.53,0c-2.66-.13-5.33-.9-5-4s3.45-2.12,5.55-2.43Z"/><path class="cls-2" d="M1279.78,666.33c-1.5-.19-3.2.24-4.3-1.48,1.25-1.57,2.91-.35,4.3-.67Z"/><path class="cls-5" d="M919.39,414.5c-1.48-48.5-3.11-97-4.4-145.49-1-38.3-1.6-76.62-2.39-114.93-1-1.42-.88-3.06-.89-4.67,0-10.75,0-21.5,0-32.25,0-5.29.9-6.23,6.19-6.54,9.68-.56,19.27,1.48,29,1,15.43-.81,30.7,2.27,46.11,2.3,4.23,0,6,2.23,6.26,6.35.59,11.25,2,22.49.85,33.79-.3,3,1.87,5.43,1.35,8.36.28,16-.12,31.94-.65,47.91-.23,7.21,1.44,14.36,1.91,21.58.35,5.17.76,10.34.95,15.52,0,8,.07,16,.05,24-.92,5.8-.74,11.71-.85,17.51-.22,10.81-.52,21.75,2.13,32.44,1.17,4.74-.38,9.63.68,14.39.44,5.46-.94,10.93,0,16.39-1.57,7.33-.55,14.76-.92,22.14,0,17-.13,34,.05,50.95.08,7.64-1.71,10.6-10.59,8.25-10.64-2.8-21.56-2.54-32.18-4.59-9.91-1.92-19.88-1.36-29.82-2C922,426.21,920.57,424.63,919.39,414.5Z"/><path class="cls-6" d="M1062.67,467.45l-2.56-.09c-5.88,1.91-10.53-.93-15.16-3.9-2-3.56-5-5.58-8.91-6.83-5.69-1.8-6.8-4-6.92-9.84a50.6,50.6,0,0,0-1.94-14.31c-2.65-8.53-.62-17.55-2-26.16-3-18.48.5-36.83.17-55.24-.25-14-1.92-27.86-3.61-41.72a17.25,17.25,0,0,1-.19-4.81c2.35-15,.79-29.66-2.81-44.48-2.73-11.24-2.64-23.11-1.89-34.78a105.1,105.1,0,0,0-.63-18.78c-2.54-21.68-.52-42.59,9.85-62.16,5.15-9.72,8.59-20.42,16.44-28.62,1.35-1.41,2.22-3.33,4.61-3.09,2.59,1.45,1.76,3.53,1.07,5.62-1.58,4.8-4.36,9-6.31,13.66a43.58,43.58,0,0,0-2.86,25.54c1.81,10.45,4.13,21,4.4,31.74.15,5.58,1.78,11,3.31,16.26,2,6.91,1.89,13.5,1,20.56a59.41,59.41,0,0,0,4.18,30c2.79,6.73,3.38,13.28,3.33,20.14-.08,10.11,1.06,20.18,1,30.29A3.94,3.94,0,0,0,1057,309c1.11,22.19.78,44.4,1.32,66.59.47,19.3.53,38.6,1.07,57.89.24,8.39,1.11,16.79.89,25.2-.14,5.44,3.85,6.2,7.53,7.53C1066.76,469.47,1064.67,468.29,1062.67,467.45Z"/><path class="cls-7" d="M998.75,162.82c-.94-2.22-.77-4.57-.83-6.89-.32-11.26-.72-22.53-.9-33.8,0-3.72-1.29-5.44-5.25-5.69-24.1-1.55-48.23-2.49-72.36-3.12-6.68-.18-6.9.27-6.87,7,0,11.26,0,22.53.06,33.79-.23-.15-.47-.31-.7-.48a2.35,2.35,0,0,1-.73-1.9c.1-16.69-.23-33.39.18-50.08,1.33-2.62,3.74-1.62,5.72-1.54q40.9,1.71,81.81,3.53a121.42,121.42,0,0,0,25,3.69c3.61.13,8.16-1.13,10.06,3.17s-2.79,6-4.6,8.87c-5.54,8.74-13,16.11-17.43,25.72C1008.85,151.69,1005.08,158.34,998.75,162.82Z"/><path class="cls-8" d="M1057,309c-2.14-7.18-2.47-14.65-3.12-22-.51-5.7-.2-11.46-.53-17.18a22.06,22.06,0,0,0-3.38-10.58c-4-6.57-2.88-14.56-4.88-21.69-2.28-8.13,1.68-15.81.61-23.88a106.88,106.88,0,0,0-3.05-12.93c-2.5-9.53-1.18-19.67-4.37-28.73-2.42-6.87-1.32-13.78-3-20.63-2.12-8.65,2-17.19,6.19-25a90.65,90.65,0,0,0,5.85-13.23c-.93-.8-1.06-2.08-1.83-3-1-1.64-4.55-1.31-3.55-4.51,10.73-.24,10.55-.23,10.78,10.19.66,30.76,1.09,61.54,2.42,92.27.52,12,.34,24,.86,35.94C1056.92,265.71,1057.29,287.36,1057,309Z"/><path class="cls-9" d="M1047.31,461.83c3.72,3.11,8.92,2.8,12.8,5.53-.08,1.74-.63,3.43-2.46,3.72-7.85,1.24-15.74,2.29-25.11,3.63,3.61-3.73,7-2.8,10-3.46,1.45-.33,3.75-.25,3.44-2.45-.23-1.65-2.25-1.51-3.64-1.51-11.24,0-22.23.41-33.32,3.89-5.27,1.65-11.13,3.87-17.22,3.66-8.86-.3-17,4.11-25.74,4.67a48.12,48.12,0,0,0-8,.87c-2.95.71-7,.93-4.43,6.07,1.24,2.49-1,2.91-2.79,3.4a107,107,0,0,1-31.62,4.26c-.31-.19-.42-.39-.32-.59s.19-.31.29-.31c3.35-2.74,1.83-6.54,2.11-9.93.18-2.11.13-4.24.18-6.36,11.37-6.62,23.18-11.82,36.76-11.34,4,.15,7.77-1.11,11.48-2.37,14.71-5,29.66-7.41,45.23-5.33,3.52.47,7.55,1.5,10.53-1.95C1033.64,454.58,1040.48,458.17,1047.31,461.83Z"/><path class="cls-10" d="M919.39,414.5c2.55,8.3,6.76,10.91,18.87,10,12.63-.95,24.77,2.13,37.14,3.32,7,.67,14,.88,20.86,3.24,5.32,1.81,6.87-.25,6.9-6.18q.14-25.2.17-50.4a1.6,1.6,0,0,1,1.69.43,4.35,4.35,0,0,1,.83,2.63,78.27,78.27,0,0,1,2.13,19c-.19,8.13.61,16.29-.64,24.38-.38,4.59.61,9.09,1.06,13.6.17,5,.51,9.92-1.3,14.82-1.55,4.2-3,5.32-7.46,3.85-7-2.35-13.91-5.14-21.44-5.39-11.21-.38-22.34-2.32-33.67-1-6,.68-12.07-.69-18-1.9-3.28-.66-4.26-3.52-6.2-5.48A174.93,174.93,0,0,1,919.39,414.5Z"/><path class="cls-11" d="M919.17,493.21q0,.45,0,.9c-11.58,4-23.76,5.15-35.67,7.53-21.41,4.28-42.89,8.25-64.38,12.15-18.15,3.3-36.37,6.2-54.53,9.47-16,2.89-32,6-48,9.08-25.68,4.92-51.35,9.92-77,14.77-19.49,3.68-39.15,6.58-58.5,10.89-33.39,7.43-67.17,12.71-100.66,19.56-18.06,3.7-36.46,6.09-54.32,10.6-19,4.8-38.23,7.89-57.35,11.77-36,7.31-72.08,14.21-108.14,21.17-19.69,3.81-39.42,7.43-59.14,11.09q-24.8,4.6-49.62,9.07c-2.47.45-5,.7-7.34-.67,41.91-7.65,83.87-15,125.72-23,41.5-7.93,83-16.08,124.32-24.84,33.78-7.16,67.72-13.5,101.59-20.23,27.92-5.54,55.84-11.06,83.81-16.37,54.46-10.35,109.06-20,163.39-31,37.73-7.64,75.67-14,113.5-20.94C877.56,500.35,898.38,496.85,919.17,493.21Z"/><path class="cls-9" d="M1041.92,105.67c2,1.15,4.32.84,6.51,1.07,1.35.14,2.67.45,1,2.12-9,8-15.53,17.84-21.81,27.86-3.74,6-3.62,13.36-6.41,19.82-4,9.18-8.18,18.26-11.56,27.7-1.65,4.58-3.23,9.2-3.42,14-.25,6.5-1.15,13-1.27,19.49-.16,9-1.09,18.08-1.64,27.13-.09,1.47-.73,2.79-2.49,3-1.8-11.7-1.06-23.51-1.48-35.27-.6-16.59-.46-33.2-.63-49.8.06-5.81,5.36-8.65,7.54-13.3,4.88-10.39,11.66-19.63,18.5-28.79,1.49-2,3.32-3.74,5-5.64.89-1,2.66-1.86,2-3.47-.68-1.78-2.67-1.72-4.22-1.62-8,.54-15.62-1.55-23.31-3.26-2.23-.49-4.07-1.25-5.38-3.13C1013.27,103.3,1027.56,105.31,1041.92,105.67Z"/><path class="cls-12" d="M920.28,439.36c9.8,4.69,20.14,4.84,30.76,4.32,11.94-.59,23.85,1.18,35.75,2.22,4.56.4,8,3.73,12.31,5.08,4.91,1.55,6.06.92,6.22-4.33.12-3.93.14-7.86.2-11.79,2.84.12,3,2.6,3.08,4.31.21,2.75.65,5.46.94,8.18-.75,6.57-1.62,7.7-7.86,8.75-7,1.19-14.21,1.06-21.3,1.58-15.9,1.15-31.63,2.58-47,7.25a19.8,19.8,0,0,1-12.12.25A148.53,148.53,0,0,1,920.28,439.36Z"/><path class="cls-13" d="M921.28,465.18A7.26,7.26,0,0,1,926,463c9.06-.34,17.37-4.11,26.11-5.72,7.68-1.41,15.64-1.28,23.48-1.87,8.5-.64,16.93-2.27,25.52-1.87,3.69.16,5.68-1.74,5.41-5.61.48-.26,1.24-.59,1.49-.26,3.68,4.79,8.94,5,14.29,5.08,1.67,1.23,3.76,2.17,3.43,4.82-2.44,4-6.54,3.64-10.12,3.1-17-2.55-33,.94-48.93,6.32a16.85,16.85,0,0,1-6.28,1.21c-11.49-.78-21.8,3-31.86,7.85-2.3,1.11-4.54,2.26-7.12.89Z"/><path class="cls-14" d="M1062.67,467.45c1.76-.16,3.59-.07,5.11-1.23,10.35-1.86,20.74-3.57,31-5.6,24.4-4.8,48.88-9.13,73.2-14.34,23.07-4.94,46.34-9,69.53-13.37a22.28,22.28,0,0,1,3.75-.08c-5.91,3.93-13,3.58-19.5,4.9-43.5,8.78-87.09,17.13-130.65,25.63-9.29,1.82-18.77,2.73-27.88,5.47C1065.5,469.37,1063.7,469.6,1062.67,467.45Z"/><path class="cls-15" d="M911.35,101.62q.27,26,.55,52l-.42,8.51-.84,0c0-4.46-.06-8.92,0-13.37C910.89,133,909.73,117.31,911.35,101.62Z"/><path class="cls-2" d="M1083.72,594.87c-6.07,3-10.9-.78-16-1.3a1.93,1.93,0,0,1-1.41-2.51,2.09,2.09,0,0,1,2.37-1.7C1073.87,590,1079.38,589.81,1083.72,594.87Z"/><path class="cls-2" d="M1089.41,610.93c-1.74,0-2.69-.72-2.85-2.15a1.9,1.9,0,0,1,2.18-2.3c1.48,0,2.94.57,3,2.34C1091.71,610.34,1090.34,610.67,1089.41,610.93Z"/><path class="cls-2" d="M1105.84,615.85c-1.55.16-2.7.07-2.64-1.45a2.4,2.4,0,0,1,2.78-2.56,2.31,2.31,0,0,1,2.41,1.76C1108.72,615.85,1106.57,615.28,1105.84,615.85Z"/><path class="cls-2" d="M1196.32,669.47c2-1,3.52-3.46,6.07-1.87.22.14.23,1.13,0,1.41C1200.61,671.06,1198.52,670.86,1196.32,669.47Z"/><path class="cls-2" d="M1170.16,709.82c-.11,1.1-.92,1.44-1.83,1.47-1.07,0-2.31-.11-2.24-1.53.05-1.07,1.15-1.22,2-1.22S1169.91,708.72,1170.16,709.82Z"/><path class="cls-2" d="M1103.34,625.73c.27.22,1.05.55,1.17,1,.28,1.12-.61,1.52-1.51,1.31a2.1,2.1,0,0,1-1.41-1.18C1101.44,626.11,1102.24,625.83,1103.34,625.73Z"/><path class="cls-2" d="M1255.22,699c.48.44,1.08.72,1.15,1.09.16.89-.48,1.35-1.28,1.17a1.46,1.46,0,0,1-.89-1.07C1254.2,699.79,1254.79,699.44,1255.22,699Z"/><path class="cls-2" d="M1025.77,457.55q-2.13-1.1-4.28-2.17c-9.89-2.39-12.1-5.54-12.88-16.21-.44-6.13.1-12.54-3.06-18.26l-.36-24.55c-1.25-6.47.58-13.1-1-19.56l-.07-2a45.91,45.91,0,0,1,.22-15.6c.53-2.5.48-4.95-1.08-7.15q-.12-8.12-.23-16.22a1.47,1.47,0,0,1,1.5,0,3.28,3.28,0,0,1,1.28,1.67c-.09-.65.15-1.58-.26-1.92-4.37-3.71-2.87-8.72-2.91-13.28-.11-13.87-1.73-27.68-1.23-41.57.12-3.07,1.9-6.32-.29-9.36q-.17-11.71-.31-23.44c.07-5.37.43-10.75.15-16.1-.39-7.5,4-15.12-.54-22.5,5-10,3.53-21.63,8.59-31.83,6.1-12.29,11.49-25,14.65-38.53,1.72-7.37,7.57-12.93,12.66-18.4,4-4.26,7.4-9.29,13.09-11.67l-2.16,4.28c-7.32,5.44-9.37,14.16-13.48,21.61-4.52,8.18-7.73,16.94-11.37,25.51-6.08,14.29-4.26,29.21-3.7,44,.28,7.47,1.17,14.87.86,22.43-.55,13.37-.71,26.81,3.94,39.77,2.53,7,.46,14.62,1.94,21.86,1.12,5.45.24,10.74-.87,16.29-1.26,6.33.65,13.15,1.58,19.61,2.87,20.05,1.85,40,.39,60-.47,6.56.77,12.84,1.44,19.21.88,8.37-1,16.94,1.19,25.08,1.9,6.93,3.11,13.75,2.7,20.93-.17,2.83,2.45,3.71,4.62,4.57a26.37,26.37,0,0,1,10.77,7.75Z"/><path class="cls-9" d="M1001.17,271.33c1.86,1.1,1.93,2.79,1.64,4.68-1.38,8.7-.34,17.46-.58,26.19,0,1.24-.41,3.28,1.94,1.41a5.33,5.33,0,0,1,.44,5.11c-2.66,6.57-.91,13.42-1.26,20.14a3.09,3.09,0,0,0,.82,2.4c5.36,3.32,3,7.93,2.62,13.51-3.1-3.1-1.89-6.66-3.71-8.93-1.7-15.59-1.66-31.25-1.94-46.9C1001,283.07,1001.15,277.2,1001.17,271.33Z"/><path class="cls-9" d="M1003.31,352.06c2.47,1.19,3.68,3.52,2.7,5.77-2.44,5.55-1.27,11.33-1.84,17l-.84-.33Q1003.32,363.28,1003.31,352.06Z"/><path class="cls-2" d="M944.21,483c2,.36,4.22.27,4.25,2.67,0,2-1.72,2.61-3.47,2.36-4.1-.6-7.53,2-11.45,2.24-1.18.06-2.73.94-3.3-.59s1.08-2.06,2.18-2.47C936.4,485.74,940.41,484.36,944.21,483Z"/><path class="cls-9" d="M1005.55,420.91c3.13.46,3.53,2.92,4.24,5.41,1.58,5.55.66,11.3,1.9,16.95,1.31,6,4,10.07,9.8,12.11-6-.56-12-.82-14.93-7.47-.48-4.34.39-8.78-1-13.05Z"/><path class="cls-9" d="M1004.24,376.8c2.17,6.43.84,13,1,19.56C1003.75,389.9,1004.2,383.34,1004.24,376.8Z"/><path class="cls-9" d="M1006.22,375.22a17.86,17.86,0,0,1-.3-10C1007.93,368.52,1007.79,371.11,1006.22,375.22Z"/></g></g></svg>