<?xml version="1.0" encoding="UTF-8"?>
<svg width="420px" height="120px" viewBox="0 0 420 120" version="1.1" xmlns="http://www.w3.org/2000/svg" xmlns:xlink="http://www.w3.org/1999/xlink">
    <!-- Generator: Sketch 52.5 (67469) - http://www.bohemiancoding.com/sketch -->
    <title>black</title>
    <desc>Created with Sketch.</desc>
    <g id="black" stroke="none" stroke-width="1" fill="none" fill-rule="evenodd">
        <path d="M0,0 L420,0 L420,120 L0,120 L0,0 Z M36,95.2 L51.9,95.2 L58.1,65.9 L61.1,65.9 L79.6,95.2 L97.2,95.2 L78.3,65.2 C92.5,62.2 97.1,52.4 97.1,42.4 C97.1,32.7 89.6,24.2 75.1,24.2 L51.1,24.2 L36,95.2 Z M61,52.4 L63.9,38.8 L73.7,38.8 C78.8,38.8 80.9,41.6 80.9,44.9 C80.9,49.2 77.2,52.4 71.7,52.4 L61,52.4 Z M126.6,96.4 C142.6,96.4 152.2,87.8 152.2,74.7 C152.2,64.6 148.2,58.6 138.3,53.6 L135.3,52.1 C129,49 126.3,47.5 126.3,43.6 C126.3,39.8 130.1,38 134.5,38 C139.4,38 144,39.9 146.9,44.8 L158.8,35.4 C153,26.2 144,23 135.2,23 C118.7,23 110.2,33.1 110.2,44.6 C110.2,54.3 114.5,60 124.3,64.9 L127.9,66.7 C134.4,70 136,72 136,75.3 C136,78.8 133.6,81.5 127.6,81.5 C122.7,81.5 116.1,78.6 113.3,72.2 L99.8,80.8 C104.1,90.2 115.2,96.4 126.6,96.4 Z M171.3,95.2 L187.3,95.2 L199.2,39.4 L217.5,39.4 L220.7,24.2 L168.3,24.2 L165.1,39.4 L183.2,39.4 L171.3,95.2 Z M214.9,95.2 L260.2,95.2 L263.4,80 L234,80 L245.9,24.2 L230,24.2 L214.9,95.2 Z M294,96.4 C310,96.4 319.6,87.8 319.6,74.7 C319.6,64.6 315.6,58.6 305.7,53.6 L302.7,52.1 C296.4,49 293.7,47.5 293.7,43.6 C293.7,39.8 297.5,38 301.9,38 C306.8,38 311.4,39.9 314.3,44.8 L326.2,35.4 C320.4,26.2 311.4,23 302.6,23 C286.1,23 277.6,33.1 277.6,44.6 C277.6,54.3 281.9,60 291.7,64.9 L295.3,66.7 C301.8,70 303.4,72 303.4,75.3 C303.4,78.8 301,81.5 295,81.5 C290.1,81.5 283.5,78.6 280.7,72.2 L267.2,80.8 C271.5,90.2 282.6,96.4 294,96.4 Z M351.2,96.4 C367.2,96.4 376.8,87.8 376.8,74.7 C376.8,64.6 372.8,58.6 362.9,53.6 L359.9,52.1 C353.6,49 350.9,47.5 350.9,43.6 C350.9,39.8 354.7,38 359.1,38 C364,38 368.6,39.9 371.5,44.8 L383.4,35.4 C377.6,26.2 368.6,23 359.8,23 C343.3,23 334.8,33.1 334.8,44.6 C334.8,54.3 339.1,60 348.9,64.9 L352.5,66.7 C359,70 360.6,72 360.6,75.3 C360.6,78.8 358.2,81.5 352.2,81.5 C347.3,81.5 340.7,78.6 337.9,72.2 L324.4,80.8 C328.7,90.2 339.8,96.4 351.2,96.4 Z" id="Combined-Shape" fill="#000000"></path>
    </g>
</svg>