<?xml version="1.0" encoding="UTF-8"?>
<svg width="420px" height="120px" viewBox="0 0 420 120" version="1.1" xmlns="http://www.w3.org/2000/svg" xmlns:xlink="http://www.w3.org/1999/xlink">
    <!-- Generator: Sketch 52.5 (67469) - http://www.bohemiancoding.com/sketch -->
    <title>full-default</title>
    <desc>Created with Sketch.</desc>
    <g id="full-default" stroke="none" stroke-width="1" fill="none" fill-rule="evenodd">
        <rect id="Rectangle" fill="#000000" x="0" y="0" width="420" height="120"></rect>
        <path d="M36,95.2 L51.1,24.2 L75.1,24.2 C89.6,24.2 97.1,32.7 97.1,42.4 C97.1,52.4 92.5,62.2 78.3,65.2 L97.2,95.2 L79.6,95.2 L61.1,65.9 L58.1,65.9 L51.9,95.2 L36,95.2 Z M61,52.4 L71.7,52.4 C77.2,52.4 80.9,49.2 80.9,44.9 C80.9,41.6 78.8,38.8 73.7,38.8 L63.9,38.8 L61,52.4 Z M126.6,96.4 C115.2,96.4 104.1,90.2 99.8,80.8 L113.3,72.2 C116.1,78.6 122.7,81.5 127.6,81.5 C133.6,81.5 136,78.8 136,75.3 C136,72 134.4,70 127.9,66.7 L124.3,64.9 C114.5,60 110.2,54.3 110.2,44.6 C110.2,33.1 118.7,23 135.2,23 C144,23 153,26.2 158.8,35.4 L146.9,44.8 C144,39.9 139.4,38 134.5,38 C130.1,38 126.3,39.8 126.3,43.6 C126.3,47.5 129,49 135.3,52.1 L138.3,53.6 C148.2,58.6 152.2,64.6 152.2,74.7 C152.2,87.8 142.6,96.4 126.6,96.4 Z M171.3,95.2 L183.2,39.4 L165.1,39.4 L168.3,24.2 L220.7,24.2 L217.5,39.4 L199.2,39.4 L187.3,95.2 L171.3,95.2 Z M214.9,95.2 L230,24.2 L245.9,24.2 L234,80 L263.4,80 L260.2,95.2 L214.9,95.2 Z M294,96.4 C282.6,96.4 271.5,90.2 267.2,80.8 L280.7,72.2 C283.5,78.6 290.1,81.5 295,81.5 C301,81.5 303.4,78.8 303.4,75.3 C303.4,72 301.8,70 295.3,66.7 L291.7,64.9 C281.9,60 277.6,54.3 277.6,44.6 C277.6,33.1 286.1,23 302.6,23 C311.4,23 320.4,26.2 326.2,35.4 L314.3,44.8 C311.4,39.9 306.8,38 301.9,38 C297.5,38 293.7,39.8 293.7,43.6 C293.7,47.5 296.4,49 302.7,52.1 L305.7,53.6 C315.6,58.6 319.6,64.6 319.6,74.7 C319.6,87.8 310,96.4 294,96.4 Z M351.2,96.4 C339.8,96.4 328.7,90.2 324.4,80.8 L337.9,72.2 C340.7,78.6 347.3,81.5 352.2,81.5 C358.2,81.5 360.6,78.8 360.6,75.3 C360.6,72 359,70 352.5,66.7 L348.9,64.9 C339.1,60 334.8,54.3 334.8,44.6 C334.8,33.1 343.3,23 359.8,23 C368.6,23 377.6,26.2 383.4,35.4 L371.5,44.8 C368.6,39.9 364,38 359.1,38 C354.7,38 350.9,39.8 350.9,43.6 C350.9,47.5 353.6,49 359.9,52.1 L362.9,53.6 C372.8,58.6 376.8,64.6 376.8,74.7 C376.8,87.8 367.2,96.4 351.2,96.4 Z" id="RSTLSS" fill="#FFFFFF"></path>
    </g>
</svg>