<svg version="1" xmlns="http://www.w3.org/2000/svg" width="1680" height="1680" viewBox="0 0 1260.000000 1260.000000"><path d="M0 630v630h1260V0H0v630zm715-363.6c71.4 9.4 122 35.5 155 80.1 25.9 35.1 36.5 73.3 33.9 122.3-6.1 114.1-69.8 189.3-183.7 216.8-11 2.6-11.2 2.7-9.9 4.8 6.1 9.3 194.7 307.8 194.7 308.2 0 .2-40.8.4-90.7.4h-90.8l-96.2-151.8-96.1-151.7-15.9-.3-15.9-.2L468 842.7c-17.2 81.3-31.8 149.7-32.3 152l-.9 4.3h-81.9c-70 0-81.9-.2-81.9-1.4 0-1.3 17.4-83 118.5-556.6 20.1-94.3 36.9-172.8 37.2-174.3l.6-2.8 137.6.4c120.5.4 139.2.6 150.1 2.1z"/><path d="M560.5 415.2c-.6 2.1-29.5 137.7-29.5 138.8 0 1.4 120.4 1.3 130.6-.1 36.4-5 63.4-25.2 73.4-54.9 3.4-10 3.9-28 1.1-38.9-4.3-17.4-14.6-29.9-30.5-37.5-17.1-8.2-14.4-8-83.4-8.4-49.6-.2-61.3-.1-61.7 1z"/></svg>