<svg xmlns="http://www.w3.org/2000/svg" viewBox="0 0 258.91 85.15"><defs><style>.cls-1{fill:#fff;}</style></defs><title>white</title><g id="Layer_2" data-name="Layer 2"><g id="Layer_1-2" data-name="Layer 1"><path class="cls-1" d="M39.66,30.09H33.32v8.45h6.33c2.92,0,5-1.68,5-4.22S42.58,30.09,39.66,30.09Z"/><path class="cls-1" d="M0,0V85.15H258.91V0ZM49.6,65.11,34.94,46.92H33.32v18.2H23.45V21H40.84c8.32,0,13.66,6,13.66,13.29,0,5.71-3,9.38-8.63,11.36L61.46,65.11Zm28.88.75c-10.93,0-17-7.51-17.39-14.9H71c.62,3.73,3.66,5.78,7.51,5.78,3.29,0,5.71-1.43,5.71-3.91,0-2-1.55-3.66-5.78-4.78l-4.29-1.12c-7-1.86-11.86-6.33-11.92-13.23-.06-8.32,6-13.41,15.15-13.41,9.63,0,15.65,7,15.9,13.79H83.44a6.08,6.08,0,0,0-6.09-4.66c-2.86,0-5.15,1.24-5.22,3.6s1.93,3.85,5.34,4.72l5,1.3c7.2,1.86,11.68,6.58,11.68,13.48C94.18,60,88,65.86,78.47,65.86Zm50.92-35.4H118V65.11h-9.94V30.46H96.85V21H129.4Zm34.16,34.65H135.42V21h9.87V55.67h18.26Zm20,.75c-10.93,0-17-7.51-17.39-14.9H176c.62,3.73,3.66,5.78,7.51,5.78,3.29,0,5.71-1.43,5.71-3.91,0-2-1.55-3.66-5.78-4.78l-4.29-1.12c-7-1.86-11.86-6.33-11.92-13.23-.06-8.32,6-13.41,15.15-13.41,9.63,0,15.65,7,15.9,13.79h-9.81a6.08,6.08,0,0,0-6.09-4.66c-2.86,0-5.15,1.24-5.22,3.6s1.93,3.85,5.34,4.72l5,1.3c7.2,1.86,11.68,6.58,11.68,13.48C199.26,60,193,65.86,183.55,65.86Zm37.38,0c-10.93,0-17-7.51-17.39-14.9h9.87c.62,3.73,3.66,5.78,7.51,5.78,3.29,0,5.71-1.43,5.71-3.91,0-2-1.55-3.66-5.78-4.78l-4.29-1.12c-7-1.86-11.86-6.33-11.92-13.23-.06-8.32,6-13.41,15.15-13.41,9.63,0,15.65,7,15.9,13.79H225.9a6.08,6.08,0,0,0-6.09-4.66c-2.86,0-5.15,1.24-5.22,3.6s1.93,3.85,5.34,4.72l5,1.3c7.2,1.86,11.68,6.58,11.68,13.48C236.64,60,230.43,65.86,220.93,65.86Z"/></g></g></svg>